G04 #@! TF.GenerationSoftware,KiCad,Pcbnew,(5.1.10)-1*
G04 #@! TF.CreationDate,2021-07-28T22:28:55+09:30*
G04 #@! TF.ProjectId,FilestoreE01-SSD,46696c65-7374-46f7-9265-4530312d5353,rev?*
G04 #@! TF.SameCoordinates,Original*
G04 #@! TF.FileFunction,Soldermask,Top*
G04 #@! TF.FilePolarity,Negative*
%FSLAX46Y46*%
G04 Gerber Fmt 4.6, Leading zero omitted, Abs format (unit mm)*
G04 Created by KiCad (PCBNEW (5.1.10)-1) date 2021-07-28 22:28:55*
%MOMM*%
%LPD*%
G01*
G04 APERTURE LIST*
%ADD10O,1.800000X1.800000*%
%ADD11O,1.600000X1.600000*%
%ADD12O,1.900000X1.900000*%
%ADD13C,1.700000*%
G04 APERTURE END LIST*
G36*
G01*
X164160000Y-70465000D02*
X164160000Y-64665000D01*
G75*
G02*
X164210000Y-64615000I50000J0D01*
G01*
X170610000Y-64615000D01*
G75*
G02*
X170660000Y-64665000I0J-50000D01*
G01*
X170660000Y-70465000D01*
G75*
G02*
X170610000Y-70515000I-50000J0D01*
G01*
X164210000Y-70515000D01*
G75*
G02*
X164160000Y-70465000I0J50000D01*
G01*
G37*
G36*
G01*
X159960000Y-70445000D02*
X159960000Y-69245000D01*
G75*
G02*
X160010000Y-69195000I50000J0D01*
G01*
X162210000Y-69195000D01*
G75*
G02*
X162260000Y-69245000I0J-50000D01*
G01*
X162260000Y-70445000D01*
G75*
G02*
X162210000Y-70495000I-50000J0D01*
G01*
X160010000Y-70495000D01*
G75*
G02*
X159960000Y-70445000I0J50000D01*
G01*
G37*
G36*
G01*
X159960000Y-65885000D02*
X159960000Y-64685000D01*
G75*
G02*
X160010000Y-64635000I50000J0D01*
G01*
X162210000Y-64635000D01*
G75*
G02*
X162260000Y-64685000I0J-50000D01*
G01*
X162260000Y-65885000D01*
G75*
G02*
X162210000Y-65935000I-50000J0D01*
G01*
X160010000Y-65935000D01*
G75*
G02*
X159960000Y-65885000I0J50000D01*
G01*
G37*
G36*
G01*
X157290000Y-97605000D02*
X157290000Y-97205000D01*
G75*
G02*
X157340000Y-97155000I50000J0D01*
G01*
X158340000Y-97155000D01*
G75*
G02*
X158390000Y-97205000I0J-50000D01*
G01*
X158390000Y-97605000D01*
G75*
G02*
X158340000Y-97655000I-50000J0D01*
G01*
X157340000Y-97655000D01*
G75*
G02*
X157290000Y-97605000I0J50000D01*
G01*
G37*
G36*
G01*
X157290000Y-98255000D02*
X157290000Y-97855000D01*
G75*
G02*
X157340000Y-97805000I50000J0D01*
G01*
X158340000Y-97805000D01*
G75*
G02*
X158390000Y-97855000I0J-50000D01*
G01*
X158390000Y-98255000D01*
G75*
G02*
X158340000Y-98305000I-50000J0D01*
G01*
X157340000Y-98305000D01*
G75*
G02*
X157290000Y-98255000I0J50000D01*
G01*
G37*
G36*
G01*
X157290000Y-98905000D02*
X157290000Y-98505000D01*
G75*
G02*
X157340000Y-98455000I50000J0D01*
G01*
X158340000Y-98455000D01*
G75*
G02*
X158390000Y-98505000I0J-50000D01*
G01*
X158390000Y-98905000D01*
G75*
G02*
X158340000Y-98955000I-50000J0D01*
G01*
X157340000Y-98955000D01*
G75*
G02*
X157290000Y-98905000I0J50000D01*
G01*
G37*
G36*
G01*
X157290000Y-99555000D02*
X157290000Y-99155000D01*
G75*
G02*
X157340000Y-99105000I50000J0D01*
G01*
X158340000Y-99105000D01*
G75*
G02*
X158390000Y-99155000I0J-50000D01*
G01*
X158390000Y-99555000D01*
G75*
G02*
X158340000Y-99605000I-50000J0D01*
G01*
X157340000Y-99605000D01*
G75*
G02*
X157290000Y-99555000I0J50000D01*
G01*
G37*
G36*
G01*
X157290000Y-100205000D02*
X157290000Y-99805000D01*
G75*
G02*
X157340000Y-99755000I50000J0D01*
G01*
X158340000Y-99755000D01*
G75*
G02*
X158390000Y-99805000I0J-50000D01*
G01*
X158390000Y-100205000D01*
G75*
G02*
X158340000Y-100255000I-50000J0D01*
G01*
X157340000Y-100255000D01*
G75*
G02*
X157290000Y-100205000I0J50000D01*
G01*
G37*
G36*
G01*
X157290000Y-100855000D02*
X157290000Y-100455000D01*
G75*
G02*
X157340000Y-100405000I50000J0D01*
G01*
X158340000Y-100405000D01*
G75*
G02*
X158390000Y-100455000I0J-50000D01*
G01*
X158390000Y-100855000D01*
G75*
G02*
X158340000Y-100905000I-50000J0D01*
G01*
X157340000Y-100905000D01*
G75*
G02*
X157290000Y-100855000I0J50000D01*
G01*
G37*
G36*
G01*
X157290000Y-101505000D02*
X157290000Y-101105000D01*
G75*
G02*
X157340000Y-101055000I50000J0D01*
G01*
X158340000Y-101055000D01*
G75*
G02*
X158390000Y-101105000I0J-50000D01*
G01*
X158390000Y-101505000D01*
G75*
G02*
X158340000Y-101555000I-50000J0D01*
G01*
X157340000Y-101555000D01*
G75*
G02*
X157290000Y-101505000I0J50000D01*
G01*
G37*
G36*
G01*
X157290000Y-102155000D02*
X157290000Y-101755000D01*
G75*
G02*
X157340000Y-101705000I50000J0D01*
G01*
X158340000Y-101705000D01*
G75*
G02*
X158390000Y-101755000I0J-50000D01*
G01*
X158390000Y-102155000D01*
G75*
G02*
X158340000Y-102205000I-50000J0D01*
G01*
X157340000Y-102205000D01*
G75*
G02*
X157290000Y-102155000I0J50000D01*
G01*
G37*
G36*
G01*
X157290000Y-102805000D02*
X157290000Y-102405000D01*
G75*
G02*
X157340000Y-102355000I50000J0D01*
G01*
X158340000Y-102355000D01*
G75*
G02*
X158390000Y-102405000I0J-50000D01*
G01*
X158390000Y-102805000D01*
G75*
G02*
X158340000Y-102855000I-50000J0D01*
G01*
X157340000Y-102855000D01*
G75*
G02*
X157290000Y-102805000I0J50000D01*
G01*
G37*
G36*
G01*
X157290000Y-103455000D02*
X157290000Y-103055000D01*
G75*
G02*
X157340000Y-103005000I50000J0D01*
G01*
X158340000Y-103005000D01*
G75*
G02*
X158390000Y-103055000I0J-50000D01*
G01*
X158390000Y-103455000D01*
G75*
G02*
X158340000Y-103505000I-50000J0D01*
G01*
X157340000Y-103505000D01*
G75*
G02*
X157290000Y-103455000I0J50000D01*
G01*
G37*
G36*
G01*
X151490000Y-103455000D02*
X151490000Y-103055000D01*
G75*
G02*
X151540000Y-103005000I50000J0D01*
G01*
X152540000Y-103005000D01*
G75*
G02*
X152590000Y-103055000I0J-50000D01*
G01*
X152590000Y-103455000D01*
G75*
G02*
X152540000Y-103505000I-50000J0D01*
G01*
X151540000Y-103505000D01*
G75*
G02*
X151490000Y-103455000I0J50000D01*
G01*
G37*
G36*
G01*
X151490000Y-102805000D02*
X151490000Y-102405000D01*
G75*
G02*
X151540000Y-102355000I50000J0D01*
G01*
X152540000Y-102355000D01*
G75*
G02*
X152590000Y-102405000I0J-50000D01*
G01*
X152590000Y-102805000D01*
G75*
G02*
X152540000Y-102855000I-50000J0D01*
G01*
X151540000Y-102855000D01*
G75*
G02*
X151490000Y-102805000I0J50000D01*
G01*
G37*
G36*
G01*
X151490000Y-102155000D02*
X151490000Y-101755000D01*
G75*
G02*
X151540000Y-101705000I50000J0D01*
G01*
X152540000Y-101705000D01*
G75*
G02*
X152590000Y-101755000I0J-50000D01*
G01*
X152590000Y-102155000D01*
G75*
G02*
X152540000Y-102205000I-50000J0D01*
G01*
X151540000Y-102205000D01*
G75*
G02*
X151490000Y-102155000I0J50000D01*
G01*
G37*
G36*
G01*
X151490000Y-101505000D02*
X151490000Y-101105000D01*
G75*
G02*
X151540000Y-101055000I50000J0D01*
G01*
X152540000Y-101055000D01*
G75*
G02*
X152590000Y-101105000I0J-50000D01*
G01*
X152590000Y-101505000D01*
G75*
G02*
X152540000Y-101555000I-50000J0D01*
G01*
X151540000Y-101555000D01*
G75*
G02*
X151490000Y-101505000I0J50000D01*
G01*
G37*
G36*
G01*
X151490000Y-100855000D02*
X151490000Y-100455000D01*
G75*
G02*
X151540000Y-100405000I50000J0D01*
G01*
X152540000Y-100405000D01*
G75*
G02*
X152590000Y-100455000I0J-50000D01*
G01*
X152590000Y-100855000D01*
G75*
G02*
X152540000Y-100905000I-50000J0D01*
G01*
X151540000Y-100905000D01*
G75*
G02*
X151490000Y-100855000I0J50000D01*
G01*
G37*
G36*
G01*
X151490000Y-100205000D02*
X151490000Y-99805000D01*
G75*
G02*
X151540000Y-99755000I50000J0D01*
G01*
X152540000Y-99755000D01*
G75*
G02*
X152590000Y-99805000I0J-50000D01*
G01*
X152590000Y-100205000D01*
G75*
G02*
X152540000Y-100255000I-50000J0D01*
G01*
X151540000Y-100255000D01*
G75*
G02*
X151490000Y-100205000I0J50000D01*
G01*
G37*
G36*
G01*
X151490000Y-99555000D02*
X151490000Y-99155000D01*
G75*
G02*
X151540000Y-99105000I50000J0D01*
G01*
X152540000Y-99105000D01*
G75*
G02*
X152590000Y-99155000I0J-50000D01*
G01*
X152590000Y-99555000D01*
G75*
G02*
X152540000Y-99605000I-50000J0D01*
G01*
X151540000Y-99605000D01*
G75*
G02*
X151490000Y-99555000I0J50000D01*
G01*
G37*
G36*
G01*
X151490000Y-98905000D02*
X151490000Y-98505000D01*
G75*
G02*
X151540000Y-98455000I50000J0D01*
G01*
X152540000Y-98455000D01*
G75*
G02*
X152590000Y-98505000I0J-50000D01*
G01*
X152590000Y-98905000D01*
G75*
G02*
X152540000Y-98955000I-50000J0D01*
G01*
X151540000Y-98955000D01*
G75*
G02*
X151490000Y-98905000I0J50000D01*
G01*
G37*
G36*
G01*
X151490000Y-98255000D02*
X151490000Y-97855000D01*
G75*
G02*
X151540000Y-97805000I50000J0D01*
G01*
X152540000Y-97805000D01*
G75*
G02*
X152590000Y-97855000I0J-50000D01*
G01*
X152590000Y-98255000D01*
G75*
G02*
X152540000Y-98305000I-50000J0D01*
G01*
X151540000Y-98305000D01*
G75*
G02*
X151490000Y-98255000I0J50000D01*
G01*
G37*
G36*
G01*
X151490000Y-97605000D02*
X151490000Y-97205000D01*
G75*
G02*
X151540000Y-97155000I50000J0D01*
G01*
X152540000Y-97155000D01*
G75*
G02*
X152590000Y-97205000I0J-50000D01*
G01*
X152590000Y-97605000D01*
G75*
G02*
X152540000Y-97655000I-50000J0D01*
G01*
X151540000Y-97655000D01*
G75*
G02*
X151490000Y-97605000I0J50000D01*
G01*
G37*
G36*
G01*
X157925000Y-82365000D02*
X157925000Y-81965000D01*
G75*
G02*
X157975000Y-81915000I50000J0D01*
G01*
X158975000Y-81915000D01*
G75*
G02*
X159025000Y-81965000I0J-50000D01*
G01*
X159025000Y-82365000D01*
G75*
G02*
X158975000Y-82415000I-50000J0D01*
G01*
X157975000Y-82415000D01*
G75*
G02*
X157925000Y-82365000I0J50000D01*
G01*
G37*
G36*
G01*
X157925000Y-83015000D02*
X157925000Y-82615000D01*
G75*
G02*
X157975000Y-82565000I50000J0D01*
G01*
X158975000Y-82565000D01*
G75*
G02*
X159025000Y-82615000I0J-50000D01*
G01*
X159025000Y-83015000D01*
G75*
G02*
X158975000Y-83065000I-50000J0D01*
G01*
X157975000Y-83065000D01*
G75*
G02*
X157925000Y-83015000I0J50000D01*
G01*
G37*
G36*
G01*
X157925000Y-83665000D02*
X157925000Y-83265000D01*
G75*
G02*
X157975000Y-83215000I50000J0D01*
G01*
X158975000Y-83215000D01*
G75*
G02*
X159025000Y-83265000I0J-50000D01*
G01*
X159025000Y-83665000D01*
G75*
G02*
X158975000Y-83715000I-50000J0D01*
G01*
X157975000Y-83715000D01*
G75*
G02*
X157925000Y-83665000I0J50000D01*
G01*
G37*
G36*
G01*
X157925000Y-84315000D02*
X157925000Y-83915000D01*
G75*
G02*
X157975000Y-83865000I50000J0D01*
G01*
X158975000Y-83865000D01*
G75*
G02*
X159025000Y-83915000I0J-50000D01*
G01*
X159025000Y-84315000D01*
G75*
G02*
X158975000Y-84365000I-50000J0D01*
G01*
X157975000Y-84365000D01*
G75*
G02*
X157925000Y-84315000I0J50000D01*
G01*
G37*
G36*
G01*
X157925000Y-84965000D02*
X157925000Y-84565000D01*
G75*
G02*
X157975000Y-84515000I50000J0D01*
G01*
X158975000Y-84515000D01*
G75*
G02*
X159025000Y-84565000I0J-50000D01*
G01*
X159025000Y-84965000D01*
G75*
G02*
X158975000Y-85015000I-50000J0D01*
G01*
X157975000Y-85015000D01*
G75*
G02*
X157925000Y-84965000I0J50000D01*
G01*
G37*
G36*
G01*
X157925000Y-85615000D02*
X157925000Y-85215000D01*
G75*
G02*
X157975000Y-85165000I50000J0D01*
G01*
X158975000Y-85165000D01*
G75*
G02*
X159025000Y-85215000I0J-50000D01*
G01*
X159025000Y-85615000D01*
G75*
G02*
X158975000Y-85665000I-50000J0D01*
G01*
X157975000Y-85665000D01*
G75*
G02*
X157925000Y-85615000I0J50000D01*
G01*
G37*
G36*
G01*
X157925000Y-86265000D02*
X157925000Y-85865000D01*
G75*
G02*
X157975000Y-85815000I50000J0D01*
G01*
X158975000Y-85815000D01*
G75*
G02*
X159025000Y-85865000I0J-50000D01*
G01*
X159025000Y-86265000D01*
G75*
G02*
X158975000Y-86315000I-50000J0D01*
G01*
X157975000Y-86315000D01*
G75*
G02*
X157925000Y-86265000I0J50000D01*
G01*
G37*
G36*
G01*
X157925000Y-86915000D02*
X157925000Y-86515000D01*
G75*
G02*
X157975000Y-86465000I50000J0D01*
G01*
X158975000Y-86465000D01*
G75*
G02*
X159025000Y-86515000I0J-50000D01*
G01*
X159025000Y-86915000D01*
G75*
G02*
X158975000Y-86965000I-50000J0D01*
G01*
X157975000Y-86965000D01*
G75*
G02*
X157925000Y-86915000I0J50000D01*
G01*
G37*
G36*
G01*
X157925000Y-87565000D02*
X157925000Y-87165000D01*
G75*
G02*
X157975000Y-87115000I50000J0D01*
G01*
X158975000Y-87115000D01*
G75*
G02*
X159025000Y-87165000I0J-50000D01*
G01*
X159025000Y-87565000D01*
G75*
G02*
X158975000Y-87615000I-50000J0D01*
G01*
X157975000Y-87615000D01*
G75*
G02*
X157925000Y-87565000I0J50000D01*
G01*
G37*
G36*
G01*
X157925000Y-88215000D02*
X157925000Y-87815000D01*
G75*
G02*
X157975000Y-87765000I50000J0D01*
G01*
X158975000Y-87765000D01*
G75*
G02*
X159025000Y-87815000I0J-50000D01*
G01*
X159025000Y-88215000D01*
G75*
G02*
X158975000Y-88265000I-50000J0D01*
G01*
X157975000Y-88265000D01*
G75*
G02*
X157925000Y-88215000I0J50000D01*
G01*
G37*
G36*
G01*
X152125000Y-88215000D02*
X152125000Y-87815000D01*
G75*
G02*
X152175000Y-87765000I50000J0D01*
G01*
X153175000Y-87765000D01*
G75*
G02*
X153225000Y-87815000I0J-50000D01*
G01*
X153225000Y-88215000D01*
G75*
G02*
X153175000Y-88265000I-50000J0D01*
G01*
X152175000Y-88265000D01*
G75*
G02*
X152125000Y-88215000I0J50000D01*
G01*
G37*
G36*
G01*
X152125000Y-87565000D02*
X152125000Y-87165000D01*
G75*
G02*
X152175000Y-87115000I50000J0D01*
G01*
X153175000Y-87115000D01*
G75*
G02*
X153225000Y-87165000I0J-50000D01*
G01*
X153225000Y-87565000D01*
G75*
G02*
X153175000Y-87615000I-50000J0D01*
G01*
X152175000Y-87615000D01*
G75*
G02*
X152125000Y-87565000I0J50000D01*
G01*
G37*
G36*
G01*
X152125000Y-86915000D02*
X152125000Y-86515000D01*
G75*
G02*
X152175000Y-86465000I50000J0D01*
G01*
X153175000Y-86465000D01*
G75*
G02*
X153225000Y-86515000I0J-50000D01*
G01*
X153225000Y-86915000D01*
G75*
G02*
X153175000Y-86965000I-50000J0D01*
G01*
X152175000Y-86965000D01*
G75*
G02*
X152125000Y-86915000I0J50000D01*
G01*
G37*
G36*
G01*
X152125000Y-86265000D02*
X152125000Y-85865000D01*
G75*
G02*
X152175000Y-85815000I50000J0D01*
G01*
X153175000Y-85815000D01*
G75*
G02*
X153225000Y-85865000I0J-50000D01*
G01*
X153225000Y-86265000D01*
G75*
G02*
X153175000Y-86315000I-50000J0D01*
G01*
X152175000Y-86315000D01*
G75*
G02*
X152125000Y-86265000I0J50000D01*
G01*
G37*
G36*
G01*
X152125000Y-85615000D02*
X152125000Y-85215000D01*
G75*
G02*
X152175000Y-85165000I50000J0D01*
G01*
X153175000Y-85165000D01*
G75*
G02*
X153225000Y-85215000I0J-50000D01*
G01*
X153225000Y-85615000D01*
G75*
G02*
X153175000Y-85665000I-50000J0D01*
G01*
X152175000Y-85665000D01*
G75*
G02*
X152125000Y-85615000I0J50000D01*
G01*
G37*
G36*
G01*
X152125000Y-84965000D02*
X152125000Y-84565000D01*
G75*
G02*
X152175000Y-84515000I50000J0D01*
G01*
X153175000Y-84515000D01*
G75*
G02*
X153225000Y-84565000I0J-50000D01*
G01*
X153225000Y-84965000D01*
G75*
G02*
X153175000Y-85015000I-50000J0D01*
G01*
X152175000Y-85015000D01*
G75*
G02*
X152125000Y-84965000I0J50000D01*
G01*
G37*
G36*
G01*
X152125000Y-84315000D02*
X152125000Y-83915000D01*
G75*
G02*
X152175000Y-83865000I50000J0D01*
G01*
X153175000Y-83865000D01*
G75*
G02*
X153225000Y-83915000I0J-50000D01*
G01*
X153225000Y-84315000D01*
G75*
G02*
X153175000Y-84365000I-50000J0D01*
G01*
X152175000Y-84365000D01*
G75*
G02*
X152125000Y-84315000I0J50000D01*
G01*
G37*
G36*
G01*
X152125000Y-83665000D02*
X152125000Y-83265000D01*
G75*
G02*
X152175000Y-83215000I50000J0D01*
G01*
X153175000Y-83215000D01*
G75*
G02*
X153225000Y-83265000I0J-50000D01*
G01*
X153225000Y-83665000D01*
G75*
G02*
X153175000Y-83715000I-50000J0D01*
G01*
X152175000Y-83715000D01*
G75*
G02*
X152125000Y-83665000I0J50000D01*
G01*
G37*
G36*
G01*
X152125000Y-83015000D02*
X152125000Y-82615000D01*
G75*
G02*
X152175000Y-82565000I50000J0D01*
G01*
X153175000Y-82565000D01*
G75*
G02*
X153225000Y-82615000I0J-50000D01*
G01*
X153225000Y-83015000D01*
G75*
G02*
X153175000Y-83065000I-50000J0D01*
G01*
X152175000Y-83065000D01*
G75*
G02*
X152125000Y-83015000I0J50000D01*
G01*
G37*
G36*
G01*
X152125000Y-82365000D02*
X152125000Y-81965000D01*
G75*
G02*
X152175000Y-81915000I50000J0D01*
G01*
X153175000Y-81915000D01*
G75*
G02*
X153225000Y-81965000I0J-50000D01*
G01*
X153225000Y-82365000D01*
G75*
G02*
X153175000Y-82415000I-50000J0D01*
G01*
X152175000Y-82415000D01*
G75*
G02*
X152125000Y-82365000I0J50000D01*
G01*
G37*
D10*
X138430000Y-114705000D03*
G36*
G01*
X139280000Y-117405000D02*
X137580000Y-117405000D01*
G75*
G02*
X137530000Y-117355000I0J50000D01*
G01*
X137530000Y-113855000D01*
G75*
G02*
X137580000Y-113805000I50000J0D01*
G01*
X139280000Y-113805000D01*
G75*
G02*
X139330000Y-113855000I0J-50000D01*
G01*
X139330000Y-117355000D01*
G75*
G02*
X139280000Y-117405000I-50000J0D01*
G01*
G37*
G36*
G01*
X134990000Y-115555000D02*
X134990000Y-113855000D01*
G75*
G02*
X135040000Y-113805000I50000J0D01*
G01*
X136740000Y-113805000D01*
G75*
G02*
X136790000Y-113855000I0J-50000D01*
G01*
X136790000Y-115555000D01*
G75*
G02*
X136740000Y-115605000I-50000J0D01*
G01*
X135040000Y-115605000D01*
G75*
G02*
X134990000Y-115555000I0J50000D01*
G01*
G37*
G36*
G01*
X136740000Y-117405000D02*
X135040000Y-117405000D01*
G75*
G02*
X134990000Y-117355000I0J50000D01*
G01*
X134990000Y-113855000D01*
G75*
G02*
X135040000Y-113805000I50000J0D01*
G01*
X136740000Y-113805000D01*
G75*
G02*
X136790000Y-113855000I0J-50000D01*
G01*
X136790000Y-117355000D01*
G75*
G02*
X136740000Y-117405000I-50000J0D01*
G01*
G37*
X133350000Y-114705000D03*
G36*
G01*
X134200000Y-117405000D02*
X132500000Y-117405000D01*
G75*
G02*
X132450000Y-117355000I0J50000D01*
G01*
X132450000Y-113855000D01*
G75*
G02*
X132500000Y-113805000I50000J0D01*
G01*
X134200000Y-113805000D01*
G75*
G02*
X134250000Y-113855000I0J-50000D01*
G01*
X134250000Y-117355000D01*
G75*
G02*
X134200000Y-117405000I-50000J0D01*
G01*
G37*
D11*
X138315000Y-69835000D03*
X133465000Y-69835000D03*
D12*
X138615000Y-66805000D03*
X133165000Y-66805000D03*
G36*
G01*
X143880000Y-115785000D02*
X143880000Y-114085000D01*
G75*
G02*
X143930000Y-114035000I50000J0D01*
G01*
X147430000Y-114035000D01*
G75*
G02*
X147480000Y-114085000I0J-50000D01*
G01*
X147480000Y-115785000D01*
G75*
G02*
X147430000Y-115835000I-50000J0D01*
G01*
X143930000Y-115835000D01*
G75*
G02*
X143880000Y-115785000I0J50000D01*
G01*
G37*
G36*
G01*
X143880000Y-113245000D02*
X143880000Y-111545000D01*
G75*
G02*
X143930000Y-111495000I50000J0D01*
G01*
X147430000Y-111495000D01*
G75*
G02*
X147480000Y-111545000I0J-50000D01*
G01*
X147480000Y-113245000D01*
G75*
G02*
X147430000Y-113295000I-50000J0D01*
G01*
X143930000Y-113295000D01*
G75*
G02*
X143880000Y-113245000I0J50000D01*
G01*
G37*
G36*
G01*
X143880000Y-110705000D02*
X143880000Y-109005000D01*
G75*
G02*
X143930000Y-108955000I50000J0D01*
G01*
X147430000Y-108955000D01*
G75*
G02*
X147480000Y-109005000I0J-50000D01*
G01*
X147480000Y-110705000D01*
G75*
G02*
X147430000Y-110755000I-50000J0D01*
G01*
X143930000Y-110755000D01*
G75*
G02*
X143880000Y-110705000I0J50000D01*
G01*
G37*
G36*
G01*
X143880000Y-108165000D02*
X143880000Y-106465000D01*
G75*
G02*
X143930000Y-106415000I50000J0D01*
G01*
X147430000Y-106415000D01*
G75*
G02*
X147480000Y-106465000I0J-50000D01*
G01*
X147480000Y-108165000D01*
G75*
G02*
X147430000Y-108215000I-50000J0D01*
G01*
X143930000Y-108215000D01*
G75*
G02*
X143880000Y-108165000I0J50000D01*
G01*
G37*
G36*
G01*
X143880000Y-105625000D02*
X143880000Y-103925000D01*
G75*
G02*
X143930000Y-103875000I50000J0D01*
G01*
X147430000Y-103875000D01*
G75*
G02*
X147480000Y-103925000I0J-50000D01*
G01*
X147480000Y-105625000D01*
G75*
G02*
X147430000Y-105675000I-50000J0D01*
G01*
X143930000Y-105675000D01*
G75*
G02*
X143880000Y-105625000I0J50000D01*
G01*
G37*
G36*
G01*
X143880000Y-103085000D02*
X143880000Y-101385000D01*
G75*
G02*
X143930000Y-101335000I50000J0D01*
G01*
X147430000Y-101335000D01*
G75*
G02*
X147480000Y-101385000I0J-50000D01*
G01*
X147480000Y-103085000D01*
G75*
G02*
X147430000Y-103135000I-50000J0D01*
G01*
X143930000Y-103135000D01*
G75*
G02*
X143880000Y-103085000I0J50000D01*
G01*
G37*
G36*
G01*
X143880000Y-100545000D02*
X143880000Y-98845000D01*
G75*
G02*
X143930000Y-98795000I50000J0D01*
G01*
X147430000Y-98795000D01*
G75*
G02*
X147480000Y-98845000I0J-50000D01*
G01*
X147480000Y-100545000D01*
G75*
G02*
X147430000Y-100595000I-50000J0D01*
G01*
X143930000Y-100595000D01*
G75*
G02*
X143880000Y-100545000I0J50000D01*
G01*
G37*
G36*
G01*
X143880000Y-98005000D02*
X143880000Y-96305000D01*
G75*
G02*
X143930000Y-96255000I50000J0D01*
G01*
X147430000Y-96255000D01*
G75*
G02*
X147480000Y-96305000I0J-50000D01*
G01*
X147480000Y-98005000D01*
G75*
G02*
X147430000Y-98055000I-50000J0D01*
G01*
X143930000Y-98055000D01*
G75*
G02*
X143880000Y-98005000I0J50000D01*
G01*
G37*
G36*
G01*
X143880000Y-95465000D02*
X143880000Y-93765000D01*
G75*
G02*
X143930000Y-93715000I50000J0D01*
G01*
X147430000Y-93715000D01*
G75*
G02*
X147480000Y-93765000I0J-50000D01*
G01*
X147480000Y-95465000D01*
G75*
G02*
X147430000Y-95515000I-50000J0D01*
G01*
X143930000Y-95515000D01*
G75*
G02*
X143880000Y-95465000I0J50000D01*
G01*
G37*
G36*
G01*
X143880000Y-92925000D02*
X143880000Y-91225000D01*
G75*
G02*
X143930000Y-91175000I50000J0D01*
G01*
X147430000Y-91175000D01*
G75*
G02*
X147480000Y-91225000I0J-50000D01*
G01*
X147480000Y-92925000D01*
G75*
G02*
X147430000Y-92975000I-50000J0D01*
G01*
X143930000Y-92975000D01*
G75*
G02*
X143880000Y-92925000I0J50000D01*
G01*
G37*
G36*
G01*
X143880000Y-90385000D02*
X143880000Y-88685000D01*
G75*
G02*
X143930000Y-88635000I50000J0D01*
G01*
X147430000Y-88635000D01*
G75*
G02*
X147480000Y-88685000I0J-50000D01*
G01*
X147480000Y-90385000D01*
G75*
G02*
X147430000Y-90435000I-50000J0D01*
G01*
X143930000Y-90435000D01*
G75*
G02*
X143880000Y-90385000I0J50000D01*
G01*
G37*
G36*
G01*
X143880000Y-87845000D02*
X143880000Y-86145000D01*
G75*
G02*
X143930000Y-86095000I50000J0D01*
G01*
X147430000Y-86095000D01*
G75*
G02*
X147480000Y-86145000I0J-50000D01*
G01*
X147480000Y-87845000D01*
G75*
G02*
X147430000Y-87895000I-50000J0D01*
G01*
X143930000Y-87895000D01*
G75*
G02*
X143880000Y-87845000I0J50000D01*
G01*
G37*
G36*
G01*
X143880000Y-85305000D02*
X143880000Y-83605000D01*
G75*
G02*
X143930000Y-83555000I50000J0D01*
G01*
X147430000Y-83555000D01*
G75*
G02*
X147480000Y-83605000I0J-50000D01*
G01*
X147480000Y-85305000D01*
G75*
G02*
X147430000Y-85355000I-50000J0D01*
G01*
X143930000Y-85355000D01*
G75*
G02*
X143880000Y-85305000I0J50000D01*
G01*
G37*
G36*
G01*
X143880000Y-82765000D02*
X143880000Y-81065000D01*
G75*
G02*
X143930000Y-81015000I50000J0D01*
G01*
X147430000Y-81015000D01*
G75*
G02*
X147480000Y-81065000I0J-50000D01*
G01*
X147480000Y-82765000D01*
G75*
G02*
X147430000Y-82815000I-50000J0D01*
G01*
X143930000Y-82815000D01*
G75*
G02*
X143880000Y-82765000I0J50000D01*
G01*
G37*
G36*
G01*
X143880000Y-80225000D02*
X143880000Y-78525000D01*
G75*
G02*
X143930000Y-78475000I50000J0D01*
G01*
X147430000Y-78475000D01*
G75*
G02*
X147480000Y-78525000I0J-50000D01*
G01*
X147480000Y-80225000D01*
G75*
G02*
X147430000Y-80275000I-50000J0D01*
G01*
X143930000Y-80275000D01*
G75*
G02*
X143880000Y-80225000I0J50000D01*
G01*
G37*
G36*
G01*
X143880000Y-77685000D02*
X143880000Y-75985000D01*
G75*
G02*
X143930000Y-75935000I50000J0D01*
G01*
X147430000Y-75935000D01*
G75*
G02*
X147480000Y-75985000I0J-50000D01*
G01*
X147480000Y-77685000D01*
G75*
G02*
X147430000Y-77735000I-50000J0D01*
G01*
X143930000Y-77735000D01*
G75*
G02*
X143880000Y-77685000I0J50000D01*
G01*
G37*
G36*
G01*
X143880000Y-75145000D02*
X143880000Y-73445000D01*
G75*
G02*
X143930000Y-73395000I50000J0D01*
G01*
X147430000Y-73395000D01*
G75*
G02*
X147480000Y-73445000I0J-50000D01*
G01*
X147480000Y-75145000D01*
G75*
G02*
X147430000Y-75195000I-50000J0D01*
G01*
X143930000Y-75195000D01*
G75*
G02*
X143880000Y-75145000I0J50000D01*
G01*
G37*
G36*
G01*
X143880000Y-72605000D02*
X143880000Y-70905000D01*
G75*
G02*
X143930000Y-70855000I50000J0D01*
G01*
X147430000Y-70855000D01*
G75*
G02*
X147480000Y-70905000I0J-50000D01*
G01*
X147480000Y-72605000D01*
G75*
G02*
X147430000Y-72655000I-50000J0D01*
G01*
X143930000Y-72655000D01*
G75*
G02*
X143880000Y-72605000I0J50000D01*
G01*
G37*
G36*
G01*
X143880000Y-70065000D02*
X143880000Y-68365000D01*
G75*
G02*
X143930000Y-68315000I50000J0D01*
G01*
X147430000Y-68315000D01*
G75*
G02*
X147480000Y-68365000I0J-50000D01*
G01*
X147480000Y-70065000D01*
G75*
G02*
X147430000Y-70115000I-50000J0D01*
G01*
X143930000Y-70115000D01*
G75*
G02*
X143880000Y-70065000I0J50000D01*
G01*
G37*
G36*
G01*
X143880000Y-67525000D02*
X143880000Y-65825000D01*
G75*
G02*
X143930000Y-65775000I50000J0D01*
G01*
X147430000Y-65775000D01*
G75*
G02*
X147480000Y-65825000I0J-50000D01*
G01*
X147480000Y-67525000D01*
G75*
G02*
X147430000Y-67575000I-50000J0D01*
G01*
X143930000Y-67575000D01*
G75*
G02*
X143880000Y-67525000I0J50000D01*
G01*
G37*
G36*
G01*
X124300000Y-115785000D02*
X124300000Y-114085000D01*
G75*
G02*
X124350000Y-114035000I50000J0D01*
G01*
X127850000Y-114035000D01*
G75*
G02*
X127900000Y-114085000I0J-50000D01*
G01*
X127900000Y-115785000D01*
G75*
G02*
X127850000Y-115835000I-50000J0D01*
G01*
X124350000Y-115835000D01*
G75*
G02*
X124300000Y-115785000I0J50000D01*
G01*
G37*
G36*
G01*
X124300000Y-113245000D02*
X124300000Y-111545000D01*
G75*
G02*
X124350000Y-111495000I50000J0D01*
G01*
X127850000Y-111495000D01*
G75*
G02*
X127900000Y-111545000I0J-50000D01*
G01*
X127900000Y-113245000D01*
G75*
G02*
X127850000Y-113295000I-50000J0D01*
G01*
X124350000Y-113295000D01*
G75*
G02*
X124300000Y-113245000I0J50000D01*
G01*
G37*
G36*
G01*
X124300000Y-110705000D02*
X124300000Y-109005000D01*
G75*
G02*
X124350000Y-108955000I50000J0D01*
G01*
X127850000Y-108955000D01*
G75*
G02*
X127900000Y-109005000I0J-50000D01*
G01*
X127900000Y-110705000D01*
G75*
G02*
X127850000Y-110755000I-50000J0D01*
G01*
X124350000Y-110755000D01*
G75*
G02*
X124300000Y-110705000I0J50000D01*
G01*
G37*
G36*
G01*
X124300000Y-108165000D02*
X124300000Y-106465000D01*
G75*
G02*
X124350000Y-106415000I50000J0D01*
G01*
X127850000Y-106415000D01*
G75*
G02*
X127900000Y-106465000I0J-50000D01*
G01*
X127900000Y-108165000D01*
G75*
G02*
X127850000Y-108215000I-50000J0D01*
G01*
X124350000Y-108215000D01*
G75*
G02*
X124300000Y-108165000I0J50000D01*
G01*
G37*
G36*
G01*
X124300000Y-105625000D02*
X124300000Y-103925000D01*
G75*
G02*
X124350000Y-103875000I50000J0D01*
G01*
X127850000Y-103875000D01*
G75*
G02*
X127900000Y-103925000I0J-50000D01*
G01*
X127900000Y-105625000D01*
G75*
G02*
X127850000Y-105675000I-50000J0D01*
G01*
X124350000Y-105675000D01*
G75*
G02*
X124300000Y-105625000I0J50000D01*
G01*
G37*
G36*
G01*
X124300000Y-103085000D02*
X124300000Y-101385000D01*
G75*
G02*
X124350000Y-101335000I50000J0D01*
G01*
X127850000Y-101335000D01*
G75*
G02*
X127900000Y-101385000I0J-50000D01*
G01*
X127900000Y-103085000D01*
G75*
G02*
X127850000Y-103135000I-50000J0D01*
G01*
X124350000Y-103135000D01*
G75*
G02*
X124300000Y-103085000I0J50000D01*
G01*
G37*
G36*
G01*
X124300000Y-100545000D02*
X124300000Y-98845000D01*
G75*
G02*
X124350000Y-98795000I50000J0D01*
G01*
X127850000Y-98795000D01*
G75*
G02*
X127900000Y-98845000I0J-50000D01*
G01*
X127900000Y-100545000D01*
G75*
G02*
X127850000Y-100595000I-50000J0D01*
G01*
X124350000Y-100595000D01*
G75*
G02*
X124300000Y-100545000I0J50000D01*
G01*
G37*
G36*
G01*
X124300000Y-98005000D02*
X124300000Y-96305000D01*
G75*
G02*
X124350000Y-96255000I50000J0D01*
G01*
X127850000Y-96255000D01*
G75*
G02*
X127900000Y-96305000I0J-50000D01*
G01*
X127900000Y-98005000D01*
G75*
G02*
X127850000Y-98055000I-50000J0D01*
G01*
X124350000Y-98055000D01*
G75*
G02*
X124300000Y-98005000I0J50000D01*
G01*
G37*
G36*
G01*
X124300000Y-95465000D02*
X124300000Y-93765000D01*
G75*
G02*
X124350000Y-93715000I50000J0D01*
G01*
X127850000Y-93715000D01*
G75*
G02*
X127900000Y-93765000I0J-50000D01*
G01*
X127900000Y-95465000D01*
G75*
G02*
X127850000Y-95515000I-50000J0D01*
G01*
X124350000Y-95515000D01*
G75*
G02*
X124300000Y-95465000I0J50000D01*
G01*
G37*
G36*
G01*
X124300000Y-92925000D02*
X124300000Y-91225000D01*
G75*
G02*
X124350000Y-91175000I50000J0D01*
G01*
X127850000Y-91175000D01*
G75*
G02*
X127900000Y-91225000I0J-50000D01*
G01*
X127900000Y-92925000D01*
G75*
G02*
X127850000Y-92975000I-50000J0D01*
G01*
X124350000Y-92975000D01*
G75*
G02*
X124300000Y-92925000I0J50000D01*
G01*
G37*
G36*
G01*
X124300000Y-90385000D02*
X124300000Y-88685000D01*
G75*
G02*
X124350000Y-88635000I50000J0D01*
G01*
X127850000Y-88635000D01*
G75*
G02*
X127900000Y-88685000I0J-50000D01*
G01*
X127900000Y-90385000D01*
G75*
G02*
X127850000Y-90435000I-50000J0D01*
G01*
X124350000Y-90435000D01*
G75*
G02*
X124300000Y-90385000I0J50000D01*
G01*
G37*
G36*
G01*
X124300000Y-87845000D02*
X124300000Y-86145000D01*
G75*
G02*
X124350000Y-86095000I50000J0D01*
G01*
X127850000Y-86095000D01*
G75*
G02*
X127900000Y-86145000I0J-50000D01*
G01*
X127900000Y-87845000D01*
G75*
G02*
X127850000Y-87895000I-50000J0D01*
G01*
X124350000Y-87895000D01*
G75*
G02*
X124300000Y-87845000I0J50000D01*
G01*
G37*
G36*
G01*
X124300000Y-85305000D02*
X124300000Y-83605000D01*
G75*
G02*
X124350000Y-83555000I50000J0D01*
G01*
X127850000Y-83555000D01*
G75*
G02*
X127900000Y-83605000I0J-50000D01*
G01*
X127900000Y-85305000D01*
G75*
G02*
X127850000Y-85355000I-50000J0D01*
G01*
X124350000Y-85355000D01*
G75*
G02*
X124300000Y-85305000I0J50000D01*
G01*
G37*
G36*
G01*
X124300000Y-82765000D02*
X124300000Y-81065000D01*
G75*
G02*
X124350000Y-81015000I50000J0D01*
G01*
X127850000Y-81015000D01*
G75*
G02*
X127900000Y-81065000I0J-50000D01*
G01*
X127900000Y-82765000D01*
G75*
G02*
X127850000Y-82815000I-50000J0D01*
G01*
X124350000Y-82815000D01*
G75*
G02*
X124300000Y-82765000I0J50000D01*
G01*
G37*
G36*
G01*
X124300000Y-80225000D02*
X124300000Y-78525000D01*
G75*
G02*
X124350000Y-78475000I50000J0D01*
G01*
X127850000Y-78475000D01*
G75*
G02*
X127900000Y-78525000I0J-50000D01*
G01*
X127900000Y-80225000D01*
G75*
G02*
X127850000Y-80275000I-50000J0D01*
G01*
X124350000Y-80275000D01*
G75*
G02*
X124300000Y-80225000I0J50000D01*
G01*
G37*
G36*
G01*
X124300000Y-77685000D02*
X124300000Y-75985000D01*
G75*
G02*
X124350000Y-75935000I50000J0D01*
G01*
X127850000Y-75935000D01*
G75*
G02*
X127900000Y-75985000I0J-50000D01*
G01*
X127900000Y-77685000D01*
G75*
G02*
X127850000Y-77735000I-50000J0D01*
G01*
X124350000Y-77735000D01*
G75*
G02*
X124300000Y-77685000I0J50000D01*
G01*
G37*
G36*
G01*
X124300000Y-75145000D02*
X124300000Y-73445000D01*
G75*
G02*
X124350000Y-73395000I50000J0D01*
G01*
X127850000Y-73395000D01*
G75*
G02*
X127900000Y-73445000I0J-50000D01*
G01*
X127900000Y-75145000D01*
G75*
G02*
X127850000Y-75195000I-50000J0D01*
G01*
X124350000Y-75195000D01*
G75*
G02*
X124300000Y-75145000I0J50000D01*
G01*
G37*
G36*
G01*
X124300000Y-72605000D02*
X124300000Y-70905000D01*
G75*
G02*
X124350000Y-70855000I50000J0D01*
G01*
X127850000Y-70855000D01*
G75*
G02*
X127900000Y-70905000I0J-50000D01*
G01*
X127900000Y-72605000D01*
G75*
G02*
X127850000Y-72655000I-50000J0D01*
G01*
X124350000Y-72655000D01*
G75*
G02*
X124300000Y-72605000I0J50000D01*
G01*
G37*
G36*
G01*
X124300000Y-70065000D02*
X124300000Y-68365000D01*
G75*
G02*
X124350000Y-68315000I50000J0D01*
G01*
X127850000Y-68315000D01*
G75*
G02*
X127900000Y-68365000I0J-50000D01*
G01*
X127900000Y-70065000D01*
G75*
G02*
X127850000Y-70115000I-50000J0D01*
G01*
X124350000Y-70115000D01*
G75*
G02*
X124300000Y-70065000I0J50000D01*
G01*
G37*
G36*
G01*
X124300000Y-67525000D02*
X124300000Y-65825000D01*
G75*
G02*
X124350000Y-65775000I50000J0D01*
G01*
X127850000Y-65775000D01*
G75*
G02*
X127900000Y-65825000I0J-50000D01*
G01*
X127900000Y-67525000D01*
G75*
G02*
X127850000Y-67575000I-50000J0D01*
G01*
X124350000Y-67575000D01*
G75*
G02*
X124300000Y-67525000I0J50000D01*
G01*
G37*
D10*
X144780000Y-66675000D03*
X144780000Y-69215000D03*
G36*
G01*
X143880000Y-72605000D02*
X143880000Y-70905000D01*
G75*
G02*
X143930000Y-70855000I50000J0D01*
G01*
X145630000Y-70855000D01*
G75*
G02*
X145680000Y-70905000I0J-50000D01*
G01*
X145680000Y-72605000D01*
G75*
G02*
X145630000Y-72655000I-50000J0D01*
G01*
X143930000Y-72655000D01*
G75*
G02*
X143880000Y-72605000I0J50000D01*
G01*
G37*
X144780000Y-74295000D03*
X144780000Y-76835000D03*
X144780000Y-79375000D03*
X144780000Y-81915000D03*
G36*
G01*
X143880000Y-85305000D02*
X143880000Y-83605000D01*
G75*
G02*
X143930000Y-83555000I50000J0D01*
G01*
X145630000Y-83555000D01*
G75*
G02*
X145680000Y-83605000I0J-50000D01*
G01*
X145680000Y-85305000D01*
G75*
G02*
X145630000Y-85355000I-50000J0D01*
G01*
X143930000Y-85355000D01*
G75*
G02*
X143880000Y-85305000I0J50000D01*
G01*
G37*
X144780000Y-86995000D03*
X144780000Y-89535000D03*
X144780000Y-92075000D03*
X144780000Y-94615000D03*
G36*
G01*
X143880000Y-98005000D02*
X143880000Y-96305000D01*
G75*
G02*
X143930000Y-96255000I50000J0D01*
G01*
X145630000Y-96255000D01*
G75*
G02*
X145680000Y-96305000I0J-50000D01*
G01*
X145680000Y-98005000D01*
G75*
G02*
X145630000Y-98055000I-50000J0D01*
G01*
X143930000Y-98055000D01*
G75*
G02*
X143880000Y-98005000I0J50000D01*
G01*
G37*
X144780000Y-99695000D03*
X144780000Y-102235000D03*
X144780000Y-104775000D03*
X144780000Y-107315000D03*
G36*
G01*
X143880000Y-110705000D02*
X143880000Y-109005000D01*
G75*
G02*
X143930000Y-108955000I50000J0D01*
G01*
X145630000Y-108955000D01*
G75*
G02*
X145680000Y-109005000I0J-50000D01*
G01*
X145680000Y-110705000D01*
G75*
G02*
X145630000Y-110755000I-50000J0D01*
G01*
X143930000Y-110755000D01*
G75*
G02*
X143880000Y-110705000I0J50000D01*
G01*
G37*
X144780000Y-112395000D03*
X144780000Y-114935000D03*
X127000000Y-114935000D03*
X127000000Y-112395000D03*
G36*
G01*
X126100000Y-110705000D02*
X126100000Y-109005000D01*
G75*
G02*
X126150000Y-108955000I50000J0D01*
G01*
X127850000Y-108955000D01*
G75*
G02*
X127900000Y-109005000I0J-50000D01*
G01*
X127900000Y-110705000D01*
G75*
G02*
X127850000Y-110755000I-50000J0D01*
G01*
X126150000Y-110755000D01*
G75*
G02*
X126100000Y-110705000I0J50000D01*
G01*
G37*
X127000000Y-107315000D03*
X127000000Y-104775000D03*
X127000000Y-102235000D03*
X127000000Y-99695000D03*
G36*
G01*
X126100000Y-98005000D02*
X126100000Y-96305000D01*
G75*
G02*
X126150000Y-96255000I50000J0D01*
G01*
X127850000Y-96255000D01*
G75*
G02*
X127900000Y-96305000I0J-50000D01*
G01*
X127900000Y-98005000D01*
G75*
G02*
X127850000Y-98055000I-50000J0D01*
G01*
X126150000Y-98055000D01*
G75*
G02*
X126100000Y-98005000I0J50000D01*
G01*
G37*
X127000000Y-94615000D03*
X127000000Y-92075000D03*
X127000000Y-89535000D03*
X127000000Y-86995000D03*
G36*
G01*
X126100000Y-85305000D02*
X126100000Y-83605000D01*
G75*
G02*
X126150000Y-83555000I50000J0D01*
G01*
X127850000Y-83555000D01*
G75*
G02*
X127900000Y-83605000I0J-50000D01*
G01*
X127900000Y-85305000D01*
G75*
G02*
X127850000Y-85355000I-50000J0D01*
G01*
X126150000Y-85355000D01*
G75*
G02*
X126100000Y-85305000I0J50000D01*
G01*
G37*
X127000000Y-81915000D03*
X127000000Y-79375000D03*
X127000000Y-76835000D03*
X127000000Y-74295000D03*
G36*
G01*
X126100000Y-72605000D02*
X126100000Y-70905000D01*
G75*
G02*
X126150000Y-70855000I50000J0D01*
G01*
X127850000Y-70855000D01*
G75*
G02*
X127900000Y-70905000I0J-50000D01*
G01*
X127900000Y-72605000D01*
G75*
G02*
X127850000Y-72655000I-50000J0D01*
G01*
X126150000Y-72655000D01*
G75*
G02*
X126100000Y-72605000I0J50000D01*
G01*
G37*
X127000000Y-69215000D03*
X127000000Y-66675000D03*
X168910000Y-114300000D03*
X166370000Y-114300000D03*
X168910000Y-111760000D03*
X166370000Y-111760000D03*
X168910000Y-109220000D03*
X166370000Y-109220000D03*
X168910000Y-106680000D03*
X166370000Y-106680000D03*
X168910000Y-104140000D03*
X166370000Y-104140000D03*
X168910000Y-101600000D03*
X166370000Y-101600000D03*
X168910000Y-99060000D03*
X166370000Y-99060000D03*
X168910000Y-96520000D03*
X166370000Y-96520000D03*
X168910000Y-93980000D03*
X166370000Y-93980000D03*
X168910000Y-91440000D03*
X166370000Y-91440000D03*
X168910000Y-88900000D03*
X166370000Y-88900000D03*
X168910000Y-86360000D03*
X166370000Y-86360000D03*
X168910000Y-83820000D03*
X166370000Y-83820000D03*
X168910000Y-81280000D03*
X166370000Y-81280000D03*
X168910000Y-78740000D03*
X166370000Y-78740000D03*
X168910000Y-76200000D03*
X166370000Y-76200000D03*
X168910000Y-73660000D03*
G36*
G01*
X165470000Y-74510000D02*
X165470000Y-72810000D01*
G75*
G02*
X165520000Y-72760000I50000J0D01*
G01*
X167220000Y-72760000D01*
G75*
G02*
X167270000Y-72810000I0J-50000D01*
G01*
X167270000Y-74510000D01*
G75*
G02*
X167220000Y-74560000I-50000J0D01*
G01*
X165520000Y-74560000D01*
G75*
G02*
X165470000Y-74510000I0J50000D01*
G01*
G37*
X120815100Y-112435640D03*
X120815100Y-109895640D03*
X120815100Y-107355640D03*
X120815100Y-104815640D03*
X120815100Y-102275640D03*
G36*
G01*
X119915100Y-100585640D02*
X119915100Y-98885640D01*
G75*
G02*
X119965100Y-98835640I50000J0D01*
G01*
X121665100Y-98835640D01*
G75*
G02*
X121715100Y-98885640I0J-50000D01*
G01*
X121715100Y-100585640D01*
G75*
G02*
X121665100Y-100635640I-50000J0D01*
G01*
X119965100Y-100635640D01*
G75*
G02*
X119915100Y-100585640I0J50000D01*
G01*
G37*
X118110000Y-90805000D03*
X115570000Y-90805000D03*
X118110000Y-88265000D03*
X115570000Y-88265000D03*
X118110000Y-85725000D03*
X115570000Y-85725000D03*
X118110000Y-83185000D03*
G36*
G01*
X114670000Y-84035000D02*
X114670000Y-82335000D01*
G75*
G02*
X114720000Y-82285000I50000J0D01*
G01*
X116420000Y-82285000D01*
G75*
G02*
X116470000Y-82335000I0J-50000D01*
G01*
X116470000Y-84035000D01*
G75*
G02*
X116420000Y-84085000I-50000J0D01*
G01*
X114720000Y-84085000D01*
G75*
G02*
X114670000Y-84035000I0J50000D01*
G01*
G37*
X118110000Y-76835000D03*
X115570000Y-76835000D03*
X118110000Y-74295000D03*
X115570000Y-74295000D03*
X118110000Y-71755000D03*
X115570000Y-71755000D03*
X118110000Y-69215000D03*
X115570000Y-69215000D03*
X118110000Y-66675000D03*
G36*
G01*
X114670000Y-67525000D02*
X114670000Y-65825000D01*
G75*
G02*
X114720000Y-65775000I50000J0D01*
G01*
X116420000Y-65775000D01*
G75*
G02*
X116470000Y-65825000I0J-50000D01*
G01*
X116470000Y-67525000D01*
G75*
G02*
X116420000Y-67575000I-50000J0D01*
G01*
X114720000Y-67575000D01*
G75*
G02*
X114670000Y-67525000I0J50000D01*
G01*
G37*
G36*
G01*
X153195000Y-68210000D02*
X153195000Y-66410000D01*
G75*
G02*
X153245000Y-66360000I50000J0D01*
G01*
X155745000Y-66360000D01*
G75*
G02*
X155795000Y-66410000I0J-50000D01*
G01*
X155795000Y-68210000D01*
G75*
G02*
X155745000Y-68260000I-50000J0D01*
G01*
X153245000Y-68260000D01*
G75*
G02*
X153195000Y-68210000I0J50000D01*
G01*
G37*
G36*
G01*
X149195000Y-68210000D02*
X149195000Y-66410000D01*
G75*
G02*
X149245000Y-66360000I50000J0D01*
G01*
X151745000Y-66360000D01*
G75*
G02*
X151795000Y-66410000I0J-50000D01*
G01*
X151795000Y-68210000D01*
G75*
G02*
X151745000Y-68260000I-50000J0D01*
G01*
X149245000Y-68260000D01*
G75*
G02*
X149195000Y-68210000I0J50000D01*
G01*
G37*
G36*
G01*
X154540000Y-73178750D02*
X154540000Y-74141250D01*
G75*
G02*
X154271250Y-74410000I-268750J0D01*
G01*
X153733750Y-74410000D01*
G75*
G02*
X153465000Y-74141250I0J268750D01*
G01*
X153465000Y-73178750D01*
G75*
G02*
X153733750Y-72910000I268750J0D01*
G01*
X154271250Y-72910000D01*
G75*
G02*
X154540000Y-73178750I0J-268750D01*
G01*
G37*
G36*
G01*
X156415000Y-73178750D02*
X156415000Y-74141250D01*
G75*
G02*
X156146250Y-74410000I-268750J0D01*
G01*
X155608750Y-74410000D01*
G75*
G02*
X155340000Y-74141250I0J268750D01*
G01*
X155340000Y-73178750D01*
G75*
G02*
X155608750Y-72910000I268750J0D01*
G01*
X156146250Y-72910000D01*
G75*
G02*
X156415000Y-73178750I0J-268750D01*
G01*
G37*
G36*
G01*
X156777500Y-78893750D02*
X156777500Y-79856250D01*
G75*
G02*
X156508750Y-80125000I-268750J0D01*
G01*
X155971250Y-80125000D01*
G75*
G02*
X155702500Y-79856250I0J268750D01*
G01*
X155702500Y-78893750D01*
G75*
G02*
X155971250Y-78625000I268750J0D01*
G01*
X156508750Y-78625000D01*
G75*
G02*
X156777500Y-78893750I0J-268750D01*
G01*
G37*
G36*
G01*
X158652500Y-78893750D02*
X158652500Y-79856250D01*
G75*
G02*
X158383750Y-80125000I-268750J0D01*
G01*
X157846250Y-80125000D01*
G75*
G02*
X157577500Y-79856250I0J268750D01*
G01*
X157577500Y-78893750D01*
G75*
G02*
X157846250Y-78625000I268750J0D01*
G01*
X158383750Y-78625000D01*
G75*
G02*
X158652500Y-78893750I0J-268750D01*
G01*
G37*
G36*
G01*
X154540000Y-92228750D02*
X154540000Y-93191250D01*
G75*
G02*
X154271250Y-93460000I-268750J0D01*
G01*
X153733750Y-93460000D01*
G75*
G02*
X153465000Y-93191250I0J268750D01*
G01*
X153465000Y-92228750D01*
G75*
G02*
X153733750Y-91960000I268750J0D01*
G01*
X154271250Y-91960000D01*
G75*
G02*
X154540000Y-92228750I0J-268750D01*
G01*
G37*
G36*
G01*
X156415000Y-92228750D02*
X156415000Y-93191250D01*
G75*
G02*
X156146250Y-93460000I-268750J0D01*
G01*
X155608750Y-93460000D01*
G75*
G02*
X155340000Y-93191250I0J268750D01*
G01*
X155340000Y-92228750D01*
G75*
G02*
X155608750Y-91960000I268750J0D01*
G01*
X156146250Y-91960000D01*
G75*
G02*
X156415000Y-92228750I0J-268750D01*
G01*
G37*
D13*
X160020000Y-111800000D03*
G36*
G01*
X160820000Y-115150000D02*
X159220000Y-115150000D01*
G75*
G02*
X159170000Y-115100000I0J50000D01*
G01*
X159170000Y-113500000D01*
G75*
G02*
X159220000Y-113450000I50000J0D01*
G01*
X160820000Y-113450000D01*
G75*
G02*
X160870000Y-113500000I0J-50000D01*
G01*
X160870000Y-115100000D01*
G75*
G02*
X160820000Y-115150000I-50000J0D01*
G01*
G37*
G36*
G01*
X158360000Y-75145000D02*
X158360000Y-73445000D01*
G75*
G02*
X158410000Y-73395000I50000J0D01*
G01*
X159710000Y-73395000D01*
G75*
G02*
X159760000Y-73445000I0J-50000D01*
G01*
X159760000Y-75145000D01*
G75*
G02*
X159710000Y-75195000I-50000J0D01*
G01*
X158410000Y-75195000D01*
G75*
G02*
X158360000Y-75145000I0J50000D01*
G01*
G37*
G36*
G01*
X161860000Y-75145000D02*
X161860000Y-73445000D01*
G75*
G02*
X161910000Y-73395000I50000J0D01*
G01*
X163210000Y-73395000D01*
G75*
G02*
X163260000Y-73445000I0J-50000D01*
G01*
X163260000Y-75145000D01*
G75*
G02*
X163210000Y-75195000I-50000J0D01*
G01*
X161910000Y-75195000D01*
G75*
G02*
X161860000Y-75145000I0J50000D01*
G01*
G37*
M02*
