G04 #@! TF.GenerationSoftware,KiCad,Pcbnew,(5.1.10)-1*
G04 #@! TF.CreationDate,2021-07-28T22:28:55+09:30*
G04 #@! TF.ProjectId,FilestoreE01-SSD,46696c65-7374-46f7-9265-4530312d5353,rev?*
G04 #@! TF.SameCoordinates,Original*
G04 #@! TF.FileFunction,Copper,L1,Top*
G04 #@! TF.FilePolarity,Positive*
%FSLAX46Y46*%
G04 Gerber Fmt 4.6, Leading zero omitted, Abs format (unit mm)*
G04 Created by KiCad (PCBNEW (5.1.10)-1) date 2021-07-28 22:28:55*
%MOMM*%
%LPD*%
G01*
G04 APERTURE LIST*
G04 #@! TA.AperFunction,SMDPad,CuDef*
%ADD10R,6.400000X5.800000*%
G04 #@! TD*
G04 #@! TA.AperFunction,SMDPad,CuDef*
%ADD11R,2.200000X1.200000*%
G04 #@! TD*
G04 #@! TA.AperFunction,SMDPad,CuDef*
%ADD12R,1.000000X0.400000*%
G04 #@! TD*
G04 #@! TA.AperFunction,ComponentPad*
%ADD13O,1.700000X1.700000*%
G04 #@! TD*
G04 #@! TA.AperFunction,SMDPad,CuDef*
%ADD14R,1.700000X3.500000*%
G04 #@! TD*
G04 #@! TA.AperFunction,ComponentPad*
%ADD15R,1.700000X1.700000*%
G04 #@! TD*
G04 #@! TA.AperFunction,SMDPad,CuDef*
%ADD16R,3.500000X1.700000*%
G04 #@! TD*
G04 #@! TA.AperFunction,SMDPad,CuDef*
%ADD17R,2.500000X1.800000*%
G04 #@! TD*
G04 #@! TA.AperFunction,ComponentPad*
%ADD18C,1.600000*%
G04 #@! TD*
G04 #@! TA.AperFunction,ComponentPad*
%ADD19R,1.600000X1.600000*%
G04 #@! TD*
G04 #@! TA.AperFunction,SMDPad,CuDef*
%ADD20R,1.300000X1.700000*%
G04 #@! TD*
G04 #@! TA.AperFunction,ViaPad*
%ADD21C,0.800000*%
G04 #@! TD*
G04 #@! TA.AperFunction,Conductor*
%ADD22C,0.254000*%
G04 #@! TD*
G04 #@! TA.AperFunction,Conductor*
%ADD23C,0.508000*%
G04 #@! TD*
G04 #@! TA.AperFunction,Conductor*
%ADD24C,0.250000*%
G04 #@! TD*
G04 #@! TA.AperFunction,Conductor*
%ADD25C,1.270000*%
G04 #@! TD*
G04 APERTURE END LIST*
D10*
X167410000Y-67565000D03*
D11*
X161110000Y-69845000D03*
X161110000Y-65285000D03*
D12*
X157840000Y-97405000D03*
X157840000Y-98055000D03*
X157840000Y-98705000D03*
X157840000Y-99355000D03*
X157840000Y-100005000D03*
X157840000Y-100655000D03*
X157840000Y-101305000D03*
X157840000Y-101955000D03*
X157840000Y-102605000D03*
X157840000Y-103255000D03*
X152040000Y-103255000D03*
X152040000Y-102605000D03*
X152040000Y-101955000D03*
X152040000Y-101305000D03*
X152040000Y-100655000D03*
X152040000Y-100005000D03*
X152040000Y-99355000D03*
X152040000Y-98705000D03*
X152040000Y-98055000D03*
X152040000Y-97405000D03*
X158475000Y-82165000D03*
X158475000Y-82815000D03*
X158475000Y-83465000D03*
X158475000Y-84115000D03*
X158475000Y-84765000D03*
X158475000Y-85415000D03*
X158475000Y-86065000D03*
X158475000Y-86715000D03*
X158475000Y-87365000D03*
X158475000Y-88015000D03*
X152675000Y-88015000D03*
X152675000Y-87365000D03*
X152675000Y-86715000D03*
X152675000Y-86065000D03*
X152675000Y-85415000D03*
X152675000Y-84765000D03*
X152675000Y-84115000D03*
X152675000Y-83465000D03*
X152675000Y-82815000D03*
X152675000Y-82165000D03*
D13*
X138430000Y-114705000D03*
D14*
X138430000Y-115605000D03*
D15*
X135890000Y-114705000D03*
D14*
X135890000Y-115605000D03*
D13*
X133350000Y-114705000D03*
D14*
X133350000Y-115605000D03*
D16*
X145680000Y-114935000D03*
X145680000Y-112395000D03*
X145680000Y-109855000D03*
X145680000Y-107315000D03*
X145680000Y-104775000D03*
X145680000Y-102235000D03*
X145680000Y-99695000D03*
X145680000Y-97155000D03*
X145680000Y-94615000D03*
X145680000Y-92075000D03*
X145680000Y-89535000D03*
X145680000Y-86995000D03*
X145680000Y-84455000D03*
X145680000Y-81915000D03*
X145680000Y-79375000D03*
X145680000Y-76835000D03*
X145680000Y-74295000D03*
X145680000Y-71755000D03*
X145680000Y-69215000D03*
X145680000Y-66675000D03*
X126100000Y-114935000D03*
X126100000Y-112395000D03*
X126100000Y-109855000D03*
X126100000Y-107315000D03*
X126100000Y-104775000D03*
X126100000Y-102235000D03*
X126100000Y-99695000D03*
X126100000Y-97155000D03*
X126100000Y-94615000D03*
X126100000Y-92075000D03*
X126100000Y-89535000D03*
X126100000Y-86995000D03*
X126100000Y-84455000D03*
X126100000Y-81915000D03*
X126100000Y-79375000D03*
X126100000Y-76835000D03*
X126100000Y-74295000D03*
X126100000Y-71755000D03*
X126100000Y-69215000D03*
X126100000Y-66675000D03*
D13*
X144780000Y-66675000D03*
X144780000Y-69215000D03*
D15*
X144780000Y-71755000D03*
D13*
X144780000Y-74295000D03*
X144780000Y-76835000D03*
X144780000Y-79375000D03*
X144780000Y-81915000D03*
D15*
X144780000Y-84455000D03*
D13*
X144780000Y-86995000D03*
X144780000Y-89535000D03*
X144780000Y-92075000D03*
X144780000Y-94615000D03*
D15*
X144780000Y-97155000D03*
D13*
X144780000Y-99695000D03*
X144780000Y-102235000D03*
X144780000Y-104775000D03*
X144780000Y-107315000D03*
D15*
X144780000Y-109855000D03*
D13*
X144780000Y-112395000D03*
X144780000Y-114935000D03*
X127000000Y-114935000D03*
X127000000Y-112395000D03*
D15*
X127000000Y-109855000D03*
D13*
X127000000Y-107315000D03*
X127000000Y-104775000D03*
X127000000Y-102235000D03*
X127000000Y-99695000D03*
D15*
X127000000Y-97155000D03*
D13*
X127000000Y-94615000D03*
X127000000Y-92075000D03*
X127000000Y-89535000D03*
X127000000Y-86995000D03*
D15*
X127000000Y-84455000D03*
D13*
X127000000Y-81915000D03*
X127000000Y-79375000D03*
X127000000Y-76835000D03*
X127000000Y-74295000D03*
D15*
X127000000Y-71755000D03*
D13*
X127000000Y-69215000D03*
X127000000Y-66675000D03*
X168910000Y-114300000D03*
X166370000Y-114300000D03*
X168910000Y-111760000D03*
X166370000Y-111760000D03*
X168910000Y-109220000D03*
X166370000Y-109220000D03*
X168910000Y-106680000D03*
X166370000Y-106680000D03*
X168910000Y-104140000D03*
X166370000Y-104140000D03*
X168910000Y-101600000D03*
X166370000Y-101600000D03*
X168910000Y-99060000D03*
X166370000Y-99060000D03*
X168910000Y-96520000D03*
X166370000Y-96520000D03*
X168910000Y-93980000D03*
X166370000Y-93980000D03*
X168910000Y-91440000D03*
X166370000Y-91440000D03*
X168910000Y-88900000D03*
X166370000Y-88900000D03*
X168910000Y-86360000D03*
X166370000Y-86360000D03*
X168910000Y-83820000D03*
X166370000Y-83820000D03*
X168910000Y-81280000D03*
X166370000Y-81280000D03*
X168910000Y-78740000D03*
X166370000Y-78740000D03*
X168910000Y-76200000D03*
X166370000Y-76200000D03*
X168910000Y-73660000D03*
D15*
X166370000Y-73660000D03*
D13*
X120815100Y-112435640D03*
X120815100Y-109895640D03*
X120815100Y-107355640D03*
X120815100Y-104815640D03*
X120815100Y-102275640D03*
D15*
X120815100Y-99735640D03*
D13*
X118110000Y-90805000D03*
X115570000Y-90805000D03*
X118110000Y-88265000D03*
X115570000Y-88265000D03*
X118110000Y-85725000D03*
X115570000Y-85725000D03*
X118110000Y-83185000D03*
D15*
X115570000Y-83185000D03*
D13*
X118110000Y-76835000D03*
X115570000Y-76835000D03*
X118110000Y-74295000D03*
X115570000Y-74295000D03*
X118110000Y-71755000D03*
X115570000Y-71755000D03*
X118110000Y-69215000D03*
X115570000Y-69215000D03*
X118110000Y-66675000D03*
D15*
X115570000Y-66675000D03*
D17*
X154495000Y-67310000D03*
X150495000Y-67310000D03*
G04 #@! TA.AperFunction,SMDPad,CuDef*
G36*
G01*
X154490000Y-73203750D02*
X154490000Y-74116250D01*
G75*
G02*
X154246250Y-74360000I-243750J0D01*
G01*
X153758750Y-74360000D01*
G75*
G02*
X153515000Y-74116250I0J243750D01*
G01*
X153515000Y-73203750D01*
G75*
G02*
X153758750Y-72960000I243750J0D01*
G01*
X154246250Y-72960000D01*
G75*
G02*
X154490000Y-73203750I0J-243750D01*
G01*
G37*
G04 #@! TD.AperFunction*
G04 #@! TA.AperFunction,SMDPad,CuDef*
G36*
G01*
X156365000Y-73203750D02*
X156365000Y-74116250D01*
G75*
G02*
X156121250Y-74360000I-243750J0D01*
G01*
X155633750Y-74360000D01*
G75*
G02*
X155390000Y-74116250I0J243750D01*
G01*
X155390000Y-73203750D01*
G75*
G02*
X155633750Y-72960000I243750J0D01*
G01*
X156121250Y-72960000D01*
G75*
G02*
X156365000Y-73203750I0J-243750D01*
G01*
G37*
G04 #@! TD.AperFunction*
G04 #@! TA.AperFunction,SMDPad,CuDef*
G36*
G01*
X156727500Y-78918750D02*
X156727500Y-79831250D01*
G75*
G02*
X156483750Y-80075000I-243750J0D01*
G01*
X155996250Y-80075000D01*
G75*
G02*
X155752500Y-79831250I0J243750D01*
G01*
X155752500Y-78918750D01*
G75*
G02*
X155996250Y-78675000I243750J0D01*
G01*
X156483750Y-78675000D01*
G75*
G02*
X156727500Y-78918750I0J-243750D01*
G01*
G37*
G04 #@! TD.AperFunction*
G04 #@! TA.AperFunction,SMDPad,CuDef*
G36*
G01*
X158602500Y-78918750D02*
X158602500Y-79831250D01*
G75*
G02*
X158358750Y-80075000I-243750J0D01*
G01*
X157871250Y-80075000D01*
G75*
G02*
X157627500Y-79831250I0J243750D01*
G01*
X157627500Y-78918750D01*
G75*
G02*
X157871250Y-78675000I243750J0D01*
G01*
X158358750Y-78675000D01*
G75*
G02*
X158602500Y-78918750I0J-243750D01*
G01*
G37*
G04 #@! TD.AperFunction*
G04 #@! TA.AperFunction,SMDPad,CuDef*
G36*
G01*
X154490000Y-92253750D02*
X154490000Y-93166250D01*
G75*
G02*
X154246250Y-93410000I-243750J0D01*
G01*
X153758750Y-93410000D01*
G75*
G02*
X153515000Y-93166250I0J243750D01*
G01*
X153515000Y-92253750D01*
G75*
G02*
X153758750Y-92010000I243750J0D01*
G01*
X154246250Y-92010000D01*
G75*
G02*
X154490000Y-92253750I0J-243750D01*
G01*
G37*
G04 #@! TD.AperFunction*
G04 #@! TA.AperFunction,SMDPad,CuDef*
G36*
G01*
X156365000Y-92253750D02*
X156365000Y-93166250D01*
G75*
G02*
X156121250Y-93410000I-243750J0D01*
G01*
X155633750Y-93410000D01*
G75*
G02*
X155390000Y-93166250I0J243750D01*
G01*
X155390000Y-92253750D01*
G75*
G02*
X155633750Y-92010000I243750J0D01*
G01*
X156121250Y-92010000D01*
G75*
G02*
X156365000Y-92253750I0J-243750D01*
G01*
G37*
G04 #@! TD.AperFunction*
D18*
X160020000Y-111800000D03*
D19*
X160020000Y-114300000D03*
D20*
X159060000Y-74295000D03*
X162560000Y-74295000D03*
D21*
X152400000Y-73660000D03*
X152675000Y-81005000D03*
X153670000Y-88265000D03*
X152040000Y-104500000D03*
X159385000Y-80645000D03*
X158750000Y-65405000D03*
X156117990Y-77500000D03*
X152853426Y-93133426D03*
X158750000Y-88900000D03*
X154940000Y-69850000D03*
X160655000Y-71119866D03*
X113665000Y-80010000D03*
X150495000Y-85090000D03*
X150495000Y-83092990D03*
X149225000Y-81915000D03*
X149225000Y-85725000D03*
X151130000Y-88265000D03*
X157480000Y-74295000D03*
X157480000Y-90170000D03*
X147955000Y-99695000D03*
D22*
X152675000Y-82165000D02*
X152675000Y-81005000D01*
D23*
X154002500Y-73660000D02*
X152400000Y-73660000D01*
D22*
X156239988Y-79375012D02*
X156240000Y-79375000D01*
X152675000Y-88015000D02*
X153420000Y-88015000D01*
X153420000Y-88015000D02*
X153670000Y-88265000D01*
D23*
X152040000Y-104500000D02*
X152040000Y-103259001D01*
D22*
X159385000Y-80645000D02*
X159385000Y-81915000D01*
X158480999Y-82819001D02*
X159109601Y-82819001D01*
X158475000Y-82815000D02*
X158485000Y-82815000D01*
X159109601Y-82819001D02*
X159385000Y-82543602D01*
X158485000Y-82815000D02*
X158480999Y-82819001D01*
X159385000Y-82543602D02*
X159385000Y-80645000D01*
D23*
X160990000Y-65405000D02*
X161110000Y-65285000D01*
X158750000Y-65405000D02*
X160990000Y-65405000D01*
D22*
X156240000Y-79375000D02*
X156240000Y-77622010D01*
X156240000Y-77622010D02*
X156117990Y-77500000D01*
D23*
X154002500Y-92710000D02*
X153276852Y-92710000D01*
X153276852Y-92710000D02*
X152853426Y-93133426D01*
D22*
X152853426Y-96084426D02*
X152853426Y-93133426D01*
X157840000Y-98055000D02*
X154824000Y-98055000D01*
X154824000Y-98055000D02*
X152853426Y-96084426D01*
D24*
X158475000Y-88015000D02*
X158475000Y-88625000D01*
X158475000Y-88625000D02*
X158750000Y-88900000D01*
X158750000Y-88900000D02*
X158750000Y-88900000D01*
D25*
X154495000Y-67310000D02*
X154495000Y-69405000D01*
X154495000Y-69405000D02*
X154940000Y-69850000D01*
X160655000Y-70300000D02*
X161110000Y-69845000D01*
X160655000Y-71119866D02*
X160655000Y-70300000D01*
X113665000Y-75565000D02*
X114935000Y-76835000D01*
X114935000Y-76835000D02*
X115570000Y-76835000D01*
X167410000Y-67565000D02*
X160213002Y-67565000D01*
X113665000Y-75565000D02*
X113665000Y-80010000D01*
X154917490Y-83058401D02*
X155877500Y-84018411D01*
X155877500Y-84018411D02*
X155877500Y-92710000D01*
X154917490Y-81302510D02*
X154917490Y-83058401D01*
X113665000Y-65376998D02*
X113665000Y-75565000D01*
X114271998Y-64770000D02*
X113665000Y-65376998D01*
X160213002Y-67565000D02*
X158370000Y-67565000D01*
X155575000Y-64770000D02*
X114271998Y-64770000D01*
X158370000Y-67565000D02*
X155575000Y-64770000D01*
X155877500Y-71900502D02*
X155877500Y-73660000D01*
X158370000Y-67565000D02*
X158370000Y-69408002D01*
X158370000Y-69408002D02*
X155877500Y-71900502D01*
D23*
X158420991Y-82110991D02*
X158475000Y-82110991D01*
X154917490Y-81302510D02*
X157612510Y-81302510D01*
X158115000Y-81805000D02*
X158170000Y-81860000D01*
X158115000Y-79375000D02*
X158115000Y-81805000D01*
X157612510Y-81302510D02*
X158170000Y-81860000D01*
X158170000Y-81860000D02*
X158420991Y-82110991D01*
X157840000Y-94672500D02*
X157840000Y-97400999D01*
X155877500Y-92710000D02*
X157840000Y-94672500D01*
D25*
X155877500Y-73660000D02*
X155877500Y-75912686D01*
X154882988Y-76907198D02*
X154882988Y-81268008D01*
X154882988Y-81268008D02*
X154917490Y-81302510D01*
X155877500Y-75912686D02*
X154882988Y-76907198D01*
X113665000Y-92158820D02*
X113665000Y-80010000D01*
X115834160Y-94327980D02*
X113665000Y-92158820D01*
X119435880Y-94327980D02*
X115834160Y-94327980D01*
X120815100Y-95707200D02*
X119435880Y-94327980D01*
X120815100Y-99735640D02*
X120815100Y-95707200D01*
D23*
X148590000Y-69215000D02*
X150495000Y-67310000D01*
X144780000Y-69215000D02*
X148590000Y-69215000D01*
D22*
X122555000Y-74295000D02*
X127000000Y-74295000D01*
X118110000Y-71755000D02*
X120015000Y-71755000D01*
X120015000Y-71755000D02*
X122555000Y-74295000D01*
X116747001Y-72932001D02*
X115570000Y-71755000D01*
X119922001Y-72932001D02*
X116747001Y-72932001D01*
X127000000Y-76835000D02*
X123825000Y-76835000D01*
X123825000Y-76835000D02*
X119922001Y-72932001D01*
X118110000Y-69215000D02*
X120015000Y-69215000D01*
X122555000Y-66675000D02*
X127000000Y-66675000D01*
X120015000Y-69215000D02*
X122555000Y-66675000D01*
X129540000Y-67310000D02*
X128905000Y-66675000D01*
X128905000Y-66675000D02*
X127000000Y-66675000D01*
X128362999Y-78012001D02*
X129540000Y-76835000D01*
X115570000Y-81915000D02*
X118110000Y-79375000D01*
X129540000Y-76835000D02*
X129540000Y-67310000D01*
X120742999Y-78012001D02*
X128362999Y-78012001D01*
X115570000Y-83185000D02*
X115570000Y-81915000D01*
X119380000Y-79375000D02*
X120742999Y-78012001D01*
X118110000Y-79375000D02*
X119380000Y-79375000D01*
X120650000Y-88265000D02*
X118110000Y-88265000D01*
X121920000Y-86995000D02*
X120650000Y-88265000D01*
X121920000Y-82906398D02*
X121920000Y-86995000D01*
X144770491Y-81905491D02*
X135278191Y-81905491D01*
X134110699Y-80737999D02*
X124088399Y-80737999D01*
X135278191Y-81905491D02*
X134110699Y-80737999D01*
X144780000Y-81915000D02*
X144770491Y-81905491D01*
X124088399Y-80737999D02*
X121920000Y-82906398D01*
X123017280Y-112097820D02*
X120815100Y-109895640D01*
X123017280Y-116210080D02*
X123017280Y-112097820D01*
X123347480Y-116540280D02*
X123017280Y-116210080D01*
X129148840Y-116540280D02*
X123347480Y-116540280D01*
X140149580Y-113223040D02*
X132466080Y-113223040D01*
X141861540Y-114935000D02*
X140149580Y-113223040D01*
X132466080Y-113223040D02*
X129148840Y-116540280D01*
X144780000Y-114935000D02*
X141861540Y-114935000D01*
X122100340Y-106070400D02*
X120815100Y-107355640D01*
X143535400Y-106070400D02*
X122100340Y-106070400D01*
X144780000Y-107315000D02*
X143535400Y-106070400D01*
X122118120Y-103512620D02*
X120815100Y-104815640D01*
X122143520Y-103487220D02*
X122118120Y-103512620D01*
X128511300Y-103487220D02*
X122143520Y-103487220D01*
X130192780Y-103487220D02*
X128291301Y-103487220D01*
X131437380Y-102242620D02*
X130192780Y-103487220D01*
X144772380Y-102242620D02*
X131437380Y-102242620D01*
X144780000Y-102235000D02*
X144772380Y-102242620D01*
X119682260Y-102275640D02*
X120815100Y-102275640D01*
X144762220Y-112412780D02*
X142875000Y-112412780D01*
X131650740Y-111439960D02*
X129405380Y-113685320D01*
X124104400Y-113685320D02*
X123634500Y-113215420D01*
X129405380Y-113685320D02*
X124104400Y-113685320D01*
X123634500Y-113215420D02*
X123634500Y-110002320D01*
X142875000Y-112412780D02*
X141902180Y-111439960D01*
X119057420Y-107988100D02*
X119057420Y-102900480D01*
X144780000Y-112395000D02*
X144762220Y-112412780D01*
X141902180Y-111439960D02*
X131650740Y-111439960D01*
X123634500Y-110002320D02*
X122242580Y-108610400D01*
X122242580Y-108610400D02*
X119679720Y-108610400D01*
X119679720Y-108610400D02*
X119057420Y-107988100D01*
X119057420Y-102900480D02*
X119682260Y-102275640D01*
X159484500Y-86715000D02*
X165572499Y-92802999D01*
X170180000Y-105410000D02*
X168910000Y-106680000D01*
X158475000Y-86715000D02*
X159484500Y-86715000D01*
X165572499Y-92802999D02*
X169474961Y-92802999D01*
X169474961Y-92802999D02*
X170180000Y-93508038D01*
X170180000Y-93508038D02*
X170180000Y-105410000D01*
X170815000Y-106680000D02*
X169637999Y-107857001D01*
X169637999Y-107857001D02*
X167547001Y-107857001D01*
X165192999Y-90262999D02*
X169474961Y-90262999D01*
X158475000Y-86065000D02*
X160995000Y-86065000D01*
X167547001Y-107857001D02*
X166370000Y-106680000D01*
X160995000Y-86065000D02*
X165192999Y-90262999D01*
X169474961Y-90262999D02*
X170815000Y-91603038D01*
X170815000Y-91603038D02*
X170815000Y-106680000D01*
D24*
X157840000Y-103255000D02*
X161040000Y-103255000D01*
X161925000Y-104140000D02*
X166370000Y-104140000D01*
X161040000Y-103255000D02*
X161925000Y-104140000D01*
X157840000Y-102605000D02*
X161660000Y-102605000D01*
X161660000Y-102605000D02*
X161925000Y-102870000D01*
X167640000Y-102870000D02*
X168910000Y-101600000D01*
X161925000Y-102870000D02*
X167640000Y-102870000D01*
X157840000Y-101955000D02*
X161570000Y-101955000D01*
X161925000Y-101600000D02*
X166370000Y-101600000D01*
X161570000Y-101955000D02*
X161925000Y-101600000D01*
X167640000Y-100330000D02*
X168910000Y-99060000D01*
X162015000Y-100330000D02*
X167640000Y-100330000D01*
X157840000Y-101305000D02*
X161040000Y-101305000D01*
X161040000Y-101305000D02*
X162015000Y-100330000D01*
X162148520Y-99060000D02*
X166370000Y-99060000D01*
X160553520Y-100655000D02*
X162148520Y-99060000D01*
X157840000Y-100655000D02*
X160553520Y-100655000D01*
X167665400Y-97764600D02*
X168910000Y-96520000D01*
X162351720Y-97764600D02*
X167665400Y-97764600D01*
X160111320Y-100005000D02*
X162351720Y-97764600D01*
X157840000Y-100005000D02*
X160111320Y-100005000D01*
X162488880Y-96520000D02*
X166370000Y-96520000D01*
X159653880Y-99355000D02*
X162488880Y-96520000D01*
X157840000Y-99355000D02*
X159653880Y-99355000D01*
X167652700Y-95237300D02*
X168910000Y-93980000D01*
X162585400Y-95237300D02*
X167652700Y-95237300D01*
X159117700Y-98705000D02*
X162585400Y-95237300D01*
X157840000Y-98705000D02*
X159117700Y-98705000D01*
D22*
X158475000Y-85415000D02*
X162250000Y-85415000D01*
X162250000Y-85415000D02*
X164465000Y-87630000D01*
X167640000Y-87630000D02*
X168910000Y-88900000D01*
X164465000Y-87630000D02*
X167640000Y-87630000D01*
D24*
X158475000Y-84765000D02*
X163505000Y-84765000D01*
X167734999Y-84995001D02*
X168910000Y-83820000D01*
X163735001Y-84995001D02*
X167734999Y-84995001D01*
X163505000Y-84765000D02*
X163735001Y-84995001D01*
X167670480Y-77439520D02*
X168910000Y-76200000D01*
X165213479Y-77439520D02*
X167670480Y-77439520D01*
X164547999Y-78105000D02*
X165213479Y-77439520D01*
X164547999Y-79927001D02*
X164547999Y-78105000D01*
X160360000Y-84115000D02*
X164547999Y-79927001D01*
X158475000Y-84115000D02*
X160360000Y-84115000D01*
X165066980Y-74963020D02*
X167606980Y-74963020D01*
X167606980Y-74963020D02*
X168910000Y-73660000D01*
X163830000Y-76200000D02*
X165066980Y-74963020D01*
X163830000Y-79377501D02*
X163830000Y-76200000D01*
X159617502Y-83589999D02*
X163830000Y-79377501D01*
X158519999Y-83589999D02*
X159617502Y-83589999D01*
X158475000Y-83545000D02*
X158519999Y-83589999D01*
X158475000Y-83465000D02*
X158475000Y-83545000D01*
D22*
X144780000Y-89535000D02*
X147955000Y-89535000D01*
X151425000Y-86065000D02*
X152675000Y-86065000D01*
X147955000Y-89535000D02*
X151425000Y-86065000D01*
X151432933Y-85415000D02*
X152675000Y-85415000D01*
X144780000Y-86995000D02*
X149852933Y-86995000D01*
X149852933Y-86995000D02*
X151432933Y-85415000D01*
X147691601Y-113572001D02*
X150368000Y-110895602D01*
X127000000Y-114935000D02*
X129540000Y-114935000D01*
X150368000Y-103447898D02*
X151210898Y-102605000D01*
X129540000Y-114935000D02*
X132143500Y-112331500D01*
X151210898Y-102605000D02*
X152040000Y-102605000D01*
X150368000Y-110895602D02*
X150368000Y-103447898D01*
X140906500Y-112331500D02*
X142147001Y-113572001D01*
X142147001Y-113572001D02*
X147691601Y-113572001D01*
X132143500Y-112331500D02*
X140906500Y-112331500D01*
D24*
X151290000Y-101955000D02*
X152040000Y-101955000D01*
X149669500Y-109474000D02*
X149669500Y-103378000D01*
X148018500Y-111125000D02*
X149669500Y-109474000D01*
X143197580Y-111125000D02*
X148018500Y-111125000D01*
X149669500Y-103378000D02*
X151092500Y-101955000D01*
X142689580Y-110617000D02*
X143197580Y-111125000D01*
X131064000Y-110617000D02*
X142689580Y-110617000D01*
X151092500Y-101955000D02*
X151290000Y-101955000D01*
X129286000Y-112395000D02*
X131064000Y-110617000D01*
X127000000Y-112395000D02*
X129286000Y-112395000D01*
D22*
X140335000Y-107315000D02*
X141605000Y-108585000D01*
X127000000Y-107315000D02*
X140335000Y-107315000D01*
X149015480Y-103317851D02*
X151028331Y-101305000D01*
X149015480Y-107168122D02*
X149015480Y-103317851D01*
X151028331Y-101305000D02*
X152040000Y-101305000D01*
X141605000Y-108585000D02*
X147598602Y-108585000D01*
X147598602Y-108585000D02*
X149015480Y-107168122D01*
X148088764Y-103412001D02*
X150845765Y-100655000D01*
X150845765Y-100655000D02*
X152040000Y-100655000D01*
X132172999Y-103412001D02*
X148088764Y-103412001D01*
X127000000Y-104775000D02*
X130810000Y-104775000D01*
X130810000Y-104775000D02*
X132172999Y-103412001D01*
D24*
X149796198Y-100872001D02*
X150659198Y-100009001D01*
X150663199Y-100005000D02*
X150659198Y-100009001D01*
X152040000Y-100005000D02*
X150663199Y-100005000D01*
D22*
X129540000Y-102235000D02*
X130902999Y-100872001D01*
X130902999Y-100872001D02*
X149796198Y-100872001D01*
X129540000Y-102235000D02*
X127000000Y-102235000D01*
X152040000Y-99355000D02*
X149133574Y-99355000D01*
D24*
X128651000Y-99695000D02*
X128778000Y-99568000D01*
X128651000Y-99695000D02*
X127000000Y-99695000D01*
D22*
X129828001Y-98517999D02*
X148296573Y-98517999D01*
X128778000Y-99568000D02*
X129828001Y-98517999D01*
X148296573Y-98517999D02*
X149133574Y-99355000D01*
X150418602Y-98705000D02*
X152040000Y-98705000D01*
X147691601Y-95977999D02*
X150418602Y-98705000D01*
X132807999Y-95977999D02*
X147691601Y-95977999D01*
X131445000Y-94615000D02*
X132807999Y-95977999D01*
X127000000Y-94615000D02*
X131445000Y-94615000D01*
X150760000Y-98055000D02*
X152040000Y-98055000D01*
X150495000Y-97790000D02*
X150760000Y-98055000D01*
X150495000Y-96241398D02*
X150495000Y-97790000D01*
X147691601Y-93437999D02*
X150495000Y-96241398D01*
X128362999Y-93437999D02*
X147691601Y-93437999D01*
X127000000Y-92075000D02*
X128362999Y-93437999D01*
X128362999Y-90897999D02*
X147691601Y-90897999D01*
X127000000Y-89535000D02*
X128362999Y-90897999D01*
X154397001Y-88613961D02*
X152112963Y-90897999D01*
X154397001Y-83898399D02*
X154397001Y-88613961D01*
X153313602Y-82815000D02*
X154397001Y-83898399D01*
X152675000Y-82815000D02*
X153313602Y-82815000D01*
X152040000Y-91080000D02*
X151857999Y-90897999D01*
X152112963Y-90897999D02*
X151857999Y-90897999D01*
X152040000Y-97405000D02*
X152040000Y-91080000D01*
X151857999Y-90897999D02*
X147691601Y-90897999D01*
X135890000Y-86995000D02*
X127000000Y-86995000D01*
X152675000Y-83465000D02*
X151485000Y-83465000D01*
X151485000Y-83465000D02*
X151130000Y-83820000D01*
X147505603Y-85817999D02*
X137067001Y-85817999D01*
X151130000Y-83820000D02*
X149503602Y-83820000D01*
X149503602Y-83820000D02*
X147505603Y-85817999D01*
X137067001Y-85817999D02*
X135890000Y-86995000D01*
X152675000Y-84765000D02*
X150820000Y-84765000D01*
X150820000Y-84765000D02*
X150495000Y-85090000D01*
X149929315Y-83092990D02*
X150495000Y-83092990D01*
X127000000Y-81915000D02*
X133534020Y-81915000D01*
X134712010Y-83092990D02*
X149929315Y-83092990D01*
X133534020Y-81915000D02*
X134712010Y-83092990D01*
X151725010Y-84310990D02*
X150004010Y-84310990D01*
X152675000Y-84115000D02*
X151921000Y-84115000D01*
X151921000Y-84115000D02*
X151725010Y-84310990D01*
X149225000Y-85090000D02*
X149225000Y-85725000D01*
X150004010Y-84310990D02*
X149225000Y-85090000D01*
X148047999Y-80737999D02*
X149225000Y-81915000D01*
X135347999Y-80737999D02*
X148047999Y-80737999D01*
X127000000Y-79375000D02*
X133985000Y-79375000D01*
X133985000Y-79375000D02*
X135347999Y-80737999D01*
X151921000Y-86715000D02*
X151130000Y-87506000D01*
X152675000Y-86715000D02*
X151921000Y-86715000D01*
X151130000Y-87506000D02*
X151130000Y-88265000D01*
X159060000Y-74295000D02*
X157480000Y-74295000D01*
X170087001Y-73095039D02*
X170087001Y-80102999D01*
X169474961Y-72482999D02*
X170087001Y-73095039D01*
X165276001Y-72482999D02*
X169474961Y-72482999D01*
X163464000Y-74295000D02*
X165276001Y-72482999D01*
X170087001Y-80102999D02*
X168910000Y-81280000D01*
X162560000Y-74295000D02*
X163464000Y-74295000D01*
X157836398Y-87365000D02*
X157480000Y-87721398D01*
X158475000Y-87365000D02*
X157836398Y-87365000D01*
X157480000Y-87721398D02*
X157480000Y-90170000D01*
X144780000Y-99695000D02*
X147955000Y-99695000D01*
M02*
