%FSLAX45Y45*%
G04 Gerber Fmt 4.5, Leading zero omitted, Abs format (unit mm)*
G04 Created by KiCad (PCBNEW (5.1.10)-1) date 2021-07-28 22:30:25*
%MOMM*%
%LPD*%
G01*
G04 APERTURE LIST*
%TA.AperFunction,Profile*%
%ADD10C,0.050000*%
%TD*%
%ADD11C,0.200000*%
%ADD12C,0.300000*%
G04 APERTURE END LIST*
D10*
X17145000Y-11811000D02*
X11239500Y-11811000D01*
X11239500Y-6350000D02*
X17145000Y-6350000D01*
X11239500Y-6350000D02*
X11239500Y-11811000D01*
X17145000Y-11811000D02*
X17145000Y-6350000D01*
D11*
X13271500Y-6908500D02*
X13421500Y-7058500D01*
X13421500Y-6908500D02*
X13271500Y-7058500D01*
X13756500Y-6908500D02*
X13906500Y-7058500D01*
X13906500Y-6908500D02*
X13756500Y-7058500D01*
X13406500Y-6680500D02*
G75*
G03*
X13406500Y-6680500I-90000J0D01*
G01*
X13951500Y-6680500D02*
G75*
G03*
X13951500Y-6680500I-90000J0D01*
G01*
D12*
X11523428Y-12279214D02*
X11523428Y-11979214D01*
X11594857Y-11979214D01*
X11637714Y-11993500D01*
X11666286Y-12022071D01*
X11680571Y-12050643D01*
X11694857Y-12107786D01*
X11694857Y-12150643D01*
X11680571Y-12207786D01*
X11666286Y-12236357D01*
X11637714Y-12264929D01*
X11594857Y-12279214D01*
X11523428Y-12279214D01*
X11823428Y-12279214D02*
X11823428Y-12079214D01*
X11823428Y-12136357D02*
X11837714Y-12107786D01*
X11852000Y-12093500D01*
X11880571Y-12079214D01*
X11909143Y-12079214D01*
X12009143Y-12279214D02*
X12009143Y-12079214D01*
X12009143Y-11979214D02*
X11994857Y-11993500D01*
X12009143Y-12007786D01*
X12023428Y-11993500D01*
X12009143Y-11979214D01*
X12009143Y-12007786D01*
X12194857Y-12279214D02*
X12166286Y-12264929D01*
X12152000Y-12236357D01*
X12152000Y-11979214D01*
X12352000Y-12279214D02*
X12323428Y-12264929D01*
X12309143Y-12236357D01*
X12309143Y-11979214D01*
X12694857Y-12279214D02*
X12694857Y-11979214D01*
X12794857Y-12193500D01*
X12894857Y-11979214D01*
X12894857Y-12279214D01*
X13166286Y-12279214D02*
X13166286Y-12122071D01*
X13152000Y-12093500D01*
X13123428Y-12079214D01*
X13066286Y-12079214D01*
X13037714Y-12093500D01*
X13166286Y-12264929D02*
X13137714Y-12279214D01*
X13066286Y-12279214D01*
X13037714Y-12264929D01*
X13023428Y-12236357D01*
X13023428Y-12207786D01*
X13037714Y-12179214D01*
X13066286Y-12164929D01*
X13137714Y-12164929D01*
X13166286Y-12150643D01*
X13309143Y-12079214D02*
X13309143Y-12379214D01*
X13309143Y-12093500D02*
X13337714Y-12079214D01*
X13394857Y-12079214D01*
X13423428Y-12093500D01*
X13437714Y-12107786D01*
X13452000Y-12136357D01*
X13452000Y-12222071D01*
X13437714Y-12250643D01*
X13423428Y-12264929D01*
X13394857Y-12279214D01*
X13337714Y-12279214D01*
X13309143Y-12264929D01*
X13580571Y-12250643D02*
X13594857Y-12264929D01*
X13580571Y-12279214D01*
X13566286Y-12264929D01*
X13580571Y-12250643D01*
X13580571Y-12279214D01*
X13580571Y-12093500D02*
X13594857Y-12107786D01*
X13580571Y-12122071D01*
X13566286Y-12107786D01*
X13580571Y-12093500D01*
X13580571Y-12122071D01*
X11087000Y-12698500D02*
X11237000Y-12848500D01*
X11237000Y-12698500D02*
X11087000Y-12848500D01*
X11680571Y-12909214D02*
X11509143Y-12909214D01*
X11594857Y-12909214D02*
X11594857Y-12609214D01*
X11566286Y-12652071D01*
X11537714Y-12680643D01*
X11509143Y-12694929D01*
X11809143Y-12880643D02*
X11823428Y-12894929D01*
X11809143Y-12909214D01*
X11794857Y-12894929D01*
X11809143Y-12880643D01*
X11809143Y-12909214D01*
X12094857Y-12609214D02*
X11952000Y-12609214D01*
X11937714Y-12752071D01*
X11952000Y-12737786D01*
X11980571Y-12723500D01*
X12052000Y-12723500D01*
X12080571Y-12737786D01*
X12094857Y-12752071D01*
X12109143Y-12780643D01*
X12109143Y-12852071D01*
X12094857Y-12880643D01*
X12080571Y-12894929D01*
X12052000Y-12909214D01*
X11980571Y-12909214D01*
X11952000Y-12894929D01*
X11937714Y-12880643D01*
X12294857Y-12609214D02*
X12323428Y-12609214D01*
X12352000Y-12623500D01*
X12366286Y-12637786D01*
X12380571Y-12666357D01*
X12394857Y-12723500D01*
X12394857Y-12794929D01*
X12380571Y-12852071D01*
X12366286Y-12880643D01*
X12352000Y-12894929D01*
X12323428Y-12909214D01*
X12294857Y-12909214D01*
X12266286Y-12894929D01*
X12252000Y-12880643D01*
X12237714Y-12852071D01*
X12223428Y-12794929D01*
X12223428Y-12723500D01*
X12237714Y-12666357D01*
X12252000Y-12637786D01*
X12266286Y-12623500D01*
X12294857Y-12609214D01*
X12580571Y-12609214D02*
X12609143Y-12609214D01*
X12637714Y-12623500D01*
X12652000Y-12637786D01*
X12666286Y-12666357D01*
X12680571Y-12723500D01*
X12680571Y-12794929D01*
X12666286Y-12852071D01*
X12652000Y-12880643D01*
X12637714Y-12894929D01*
X12609143Y-12909214D01*
X12580571Y-12909214D01*
X12552000Y-12894929D01*
X12537714Y-12880643D01*
X12523428Y-12852071D01*
X12509143Y-12794929D01*
X12509143Y-12723500D01*
X12523428Y-12666357D01*
X12537714Y-12637786D01*
X12552000Y-12623500D01*
X12580571Y-12609214D01*
X12809143Y-12909214D02*
X12809143Y-12709214D01*
X12809143Y-12737786D02*
X12823428Y-12723500D01*
X12852000Y-12709214D01*
X12894857Y-12709214D01*
X12923428Y-12723500D01*
X12937714Y-12752071D01*
X12937714Y-12909214D01*
X12937714Y-12752071D02*
X12952000Y-12723500D01*
X12980571Y-12709214D01*
X13023428Y-12709214D01*
X13052000Y-12723500D01*
X13066286Y-12752071D01*
X13066286Y-12909214D01*
X13209143Y-12909214D02*
X13209143Y-12709214D01*
X13209143Y-12737786D02*
X13223428Y-12723500D01*
X13252000Y-12709214D01*
X13294857Y-12709214D01*
X13323428Y-12723500D01*
X13337714Y-12752071D01*
X13337714Y-12909214D01*
X13337714Y-12752071D02*
X13352000Y-12723500D01*
X13380571Y-12709214D01*
X13423428Y-12709214D01*
X13452000Y-12723500D01*
X13466286Y-12752071D01*
X13466286Y-12909214D01*
X14052000Y-12594929D02*
X13794857Y-12980643D01*
X14437714Y-12609214D02*
X14466286Y-12609214D01*
X14494857Y-12623500D01*
X14509143Y-12637786D01*
X14523428Y-12666357D01*
X14537714Y-12723500D01*
X14537714Y-12794929D01*
X14523428Y-12852071D01*
X14509143Y-12880643D01*
X14494857Y-12894929D01*
X14466286Y-12909214D01*
X14437714Y-12909214D01*
X14409143Y-12894929D01*
X14394857Y-12880643D01*
X14380571Y-12852071D01*
X14366286Y-12794929D01*
X14366286Y-12723500D01*
X14380571Y-12666357D01*
X14394857Y-12637786D01*
X14409143Y-12623500D01*
X14437714Y-12609214D01*
X14666286Y-12880643D02*
X14680571Y-12894929D01*
X14666286Y-12909214D01*
X14652000Y-12894929D01*
X14666286Y-12880643D01*
X14666286Y-12909214D01*
X14866286Y-12609214D02*
X14894857Y-12609214D01*
X14923428Y-12623500D01*
X14937714Y-12637786D01*
X14952000Y-12666357D01*
X14966286Y-12723500D01*
X14966286Y-12794929D01*
X14952000Y-12852071D01*
X14937714Y-12880643D01*
X14923428Y-12894929D01*
X14894857Y-12909214D01*
X14866286Y-12909214D01*
X14837714Y-12894929D01*
X14823428Y-12880643D01*
X14809143Y-12852071D01*
X14794857Y-12794929D01*
X14794857Y-12723500D01*
X14809143Y-12666357D01*
X14823428Y-12637786D01*
X14837714Y-12623500D01*
X14866286Y-12609214D01*
X15237714Y-12609214D02*
X15094857Y-12609214D01*
X15080571Y-12752071D01*
X15094857Y-12737786D01*
X15123428Y-12723500D01*
X15194857Y-12723500D01*
X15223428Y-12737786D01*
X15237714Y-12752071D01*
X15252000Y-12780643D01*
X15252000Y-12852071D01*
X15237714Y-12880643D01*
X15223428Y-12894929D01*
X15194857Y-12909214D01*
X15123428Y-12909214D01*
X15094857Y-12894929D01*
X15080571Y-12880643D01*
X15394857Y-12909214D02*
X15452000Y-12909214D01*
X15480571Y-12894929D01*
X15494857Y-12880643D01*
X15523428Y-12837786D01*
X15537714Y-12780643D01*
X15537714Y-12666357D01*
X15523428Y-12637786D01*
X15509143Y-12623500D01*
X15480571Y-12609214D01*
X15423428Y-12609214D01*
X15394857Y-12623500D01*
X15380571Y-12637786D01*
X15366286Y-12666357D01*
X15366286Y-12737786D01*
X15380571Y-12766357D01*
X15394857Y-12780643D01*
X15423428Y-12794929D01*
X15480571Y-12794929D01*
X15509143Y-12780643D01*
X15523428Y-12766357D01*
X15537714Y-12737786D01*
X15823428Y-12909214D02*
X15652000Y-12909214D01*
X15737714Y-12909214D02*
X15737714Y-12609214D01*
X15709143Y-12652071D01*
X15680571Y-12680643D01*
X15652000Y-12694929D01*
X15937714Y-12609214D02*
X15937714Y-12666357D01*
X16052000Y-12609214D02*
X16052000Y-12666357D01*
X16494857Y-13023500D02*
X16480571Y-13009214D01*
X16452000Y-12966357D01*
X16437714Y-12937786D01*
X16423428Y-12894929D01*
X16409143Y-12823500D01*
X16409143Y-12766357D01*
X16423428Y-12694929D01*
X16437714Y-12652071D01*
X16452000Y-12623500D01*
X16480571Y-12580643D01*
X16494857Y-12566357D01*
X16594857Y-12637786D02*
X16609143Y-12623500D01*
X16637714Y-12609214D01*
X16709143Y-12609214D01*
X16737714Y-12623500D01*
X16752000Y-12637786D01*
X16766286Y-12666357D01*
X16766286Y-12694929D01*
X16752000Y-12737786D01*
X16580571Y-12909214D01*
X16766286Y-12909214D01*
X17123428Y-12909214D02*
X17123428Y-12609214D01*
X17252000Y-12909214D02*
X17252000Y-12752071D01*
X17237714Y-12723500D01*
X17209143Y-12709214D01*
X17166286Y-12709214D01*
X17137714Y-12723500D01*
X17123428Y-12737786D01*
X17437714Y-12909214D02*
X17409143Y-12894929D01*
X17394857Y-12880643D01*
X17380571Y-12852071D01*
X17380571Y-12766357D01*
X17394857Y-12737786D01*
X17409143Y-12723500D01*
X17437714Y-12709214D01*
X17480571Y-12709214D01*
X17509143Y-12723500D01*
X17523428Y-12737786D01*
X17537714Y-12766357D01*
X17537714Y-12852071D01*
X17523428Y-12880643D01*
X17509143Y-12894929D01*
X17480571Y-12909214D01*
X17437714Y-12909214D01*
X17709143Y-12909214D02*
X17680571Y-12894929D01*
X17666286Y-12866357D01*
X17666286Y-12609214D01*
X17937714Y-12894929D02*
X17909143Y-12909214D01*
X17852000Y-12909214D01*
X17823428Y-12894929D01*
X17809143Y-12866357D01*
X17809143Y-12752071D01*
X17823428Y-12723500D01*
X17852000Y-12709214D01*
X17909143Y-12709214D01*
X17937714Y-12723500D01*
X17952000Y-12752071D01*
X17952000Y-12780643D01*
X17809143Y-12809214D01*
X18066286Y-12894929D02*
X18094857Y-12909214D01*
X18152000Y-12909214D01*
X18180571Y-12894929D01*
X18194857Y-12866357D01*
X18194857Y-12852071D01*
X18180571Y-12823500D01*
X18152000Y-12809214D01*
X18109143Y-12809214D01*
X18080571Y-12794929D01*
X18066286Y-12766357D01*
X18066286Y-12752071D01*
X18080571Y-12723500D01*
X18109143Y-12709214D01*
X18152000Y-12709214D01*
X18180571Y-12723500D01*
X18294857Y-13023500D02*
X18309143Y-13009214D01*
X18337714Y-12966357D01*
X18352000Y-12937786D01*
X18366286Y-12894929D01*
X18380571Y-12823500D01*
X18380571Y-12766357D01*
X18366286Y-12694929D01*
X18352000Y-12652071D01*
X18337714Y-12623500D01*
X18309143Y-12580643D01*
X18294857Y-12566357D01*
X18837714Y-13023500D02*
X18823428Y-13009214D01*
X18794857Y-12966357D01*
X18780571Y-12937786D01*
X18766286Y-12894929D01*
X18752000Y-12823500D01*
X18752000Y-12766357D01*
X18766286Y-12694929D01*
X18780571Y-12652071D01*
X18794857Y-12623500D01*
X18823428Y-12580643D01*
X18837714Y-12566357D01*
X18952000Y-12709214D02*
X18952000Y-12909214D01*
X18952000Y-12737786D02*
X18966286Y-12723500D01*
X18994857Y-12709214D01*
X19037714Y-12709214D01*
X19066286Y-12723500D01*
X19080571Y-12752071D01*
X19080571Y-12909214D01*
X19266286Y-12909214D02*
X19237714Y-12894929D01*
X19223428Y-12880643D01*
X19209143Y-12852071D01*
X19209143Y-12766357D01*
X19223428Y-12737786D01*
X19237714Y-12723500D01*
X19266286Y-12709214D01*
X19309143Y-12709214D01*
X19337714Y-12723500D01*
X19352000Y-12737786D01*
X19366286Y-12766357D01*
X19366286Y-12852071D01*
X19352000Y-12880643D01*
X19337714Y-12894929D01*
X19309143Y-12909214D01*
X19266286Y-12909214D01*
X19452000Y-12709214D02*
X19566286Y-12709214D01*
X19494857Y-12609214D02*
X19494857Y-12866357D01*
X19509143Y-12894929D01*
X19537714Y-12909214D01*
X19566286Y-12909214D01*
X19894857Y-12709214D02*
X19894857Y-13009214D01*
X19894857Y-12723500D02*
X19923428Y-12709214D01*
X19980571Y-12709214D01*
X20009143Y-12723500D01*
X20023428Y-12737786D01*
X20037714Y-12766357D01*
X20037714Y-12852071D01*
X20023428Y-12880643D01*
X20009143Y-12894929D01*
X19980571Y-12909214D01*
X19923428Y-12909214D01*
X19894857Y-12894929D01*
X20209143Y-12909214D02*
X20180571Y-12894929D01*
X20166286Y-12866357D01*
X20166286Y-12609214D01*
X20452000Y-12909214D02*
X20452000Y-12752071D01*
X20437714Y-12723500D01*
X20409143Y-12709214D01*
X20352000Y-12709214D01*
X20323428Y-12723500D01*
X20452000Y-12894929D02*
X20423428Y-12909214D01*
X20352000Y-12909214D01*
X20323428Y-12894929D01*
X20309143Y-12866357D01*
X20309143Y-12837786D01*
X20323428Y-12809214D01*
X20352000Y-12794929D01*
X20423428Y-12794929D01*
X20452000Y-12780643D01*
X20552000Y-12709214D02*
X20666286Y-12709214D01*
X20594857Y-12609214D02*
X20594857Y-12866357D01*
X20609143Y-12894929D01*
X20637714Y-12909214D01*
X20666286Y-12909214D01*
X20880571Y-12894929D02*
X20852000Y-12909214D01*
X20794857Y-12909214D01*
X20766286Y-12894929D01*
X20752000Y-12866357D01*
X20752000Y-12752071D01*
X20766286Y-12723500D01*
X20794857Y-12709214D01*
X20852000Y-12709214D01*
X20880571Y-12723500D01*
X20894857Y-12752071D01*
X20894857Y-12780643D01*
X20752000Y-12809214D01*
X21152000Y-12909214D02*
X21152000Y-12609214D01*
X21152000Y-12894929D02*
X21123428Y-12909214D01*
X21066286Y-12909214D01*
X21037714Y-12894929D01*
X21023428Y-12880643D01*
X21009143Y-12852071D01*
X21009143Y-12766357D01*
X21023428Y-12737786D01*
X21037714Y-12723500D01*
X21066286Y-12709214D01*
X21123428Y-12709214D01*
X21152000Y-12723500D01*
X21266286Y-13023500D02*
X21280571Y-13009214D01*
X21309143Y-12966357D01*
X21323428Y-12937786D01*
X21337714Y-12894929D01*
X21352000Y-12823500D01*
X21352000Y-12766357D01*
X21337714Y-12694929D01*
X21323428Y-12652071D01*
X21309143Y-12623500D01*
X21280571Y-12580643D01*
X21266286Y-12566357D01*
X11237000Y-13169500D02*
G75*
G03*
X11237000Y-13169500I-90000J0D01*
G01*
X11680571Y-13305214D02*
X11509143Y-13305214D01*
X11594857Y-13305214D02*
X11594857Y-13005214D01*
X11566286Y-13048071D01*
X11537714Y-13076643D01*
X11509143Y-13090929D01*
X11809143Y-13276643D02*
X11823428Y-13290929D01*
X11809143Y-13305214D01*
X11794857Y-13290929D01*
X11809143Y-13276643D01*
X11809143Y-13305214D01*
X11994857Y-13133786D02*
X11966286Y-13119500D01*
X11952000Y-13105214D01*
X11937714Y-13076643D01*
X11937714Y-13062357D01*
X11952000Y-13033786D01*
X11966286Y-13019500D01*
X11994857Y-13005214D01*
X12052000Y-13005214D01*
X12080571Y-13019500D01*
X12094857Y-13033786D01*
X12109143Y-13062357D01*
X12109143Y-13076643D01*
X12094857Y-13105214D01*
X12080571Y-13119500D01*
X12052000Y-13133786D01*
X11994857Y-13133786D01*
X11966286Y-13148071D01*
X11952000Y-13162357D01*
X11937714Y-13190929D01*
X11937714Y-13248071D01*
X11952000Y-13276643D01*
X11966286Y-13290929D01*
X11994857Y-13305214D01*
X12052000Y-13305214D01*
X12080571Y-13290929D01*
X12094857Y-13276643D01*
X12109143Y-13248071D01*
X12109143Y-13190929D01*
X12094857Y-13162357D01*
X12080571Y-13148071D01*
X12052000Y-13133786D01*
X12294857Y-13005214D02*
X12323428Y-13005214D01*
X12352000Y-13019500D01*
X12366286Y-13033786D01*
X12380571Y-13062357D01*
X12394857Y-13119500D01*
X12394857Y-13190929D01*
X12380571Y-13248071D01*
X12366286Y-13276643D01*
X12352000Y-13290929D01*
X12323428Y-13305214D01*
X12294857Y-13305214D01*
X12266286Y-13290929D01*
X12252000Y-13276643D01*
X12237714Y-13248071D01*
X12223428Y-13190929D01*
X12223428Y-13119500D01*
X12237714Y-13062357D01*
X12252000Y-13033786D01*
X12266286Y-13019500D01*
X12294857Y-13005214D01*
X12580571Y-13005214D02*
X12609143Y-13005214D01*
X12637714Y-13019500D01*
X12652000Y-13033786D01*
X12666286Y-13062357D01*
X12680571Y-13119500D01*
X12680571Y-13190929D01*
X12666286Y-13248071D01*
X12652000Y-13276643D01*
X12637714Y-13290929D01*
X12609143Y-13305214D01*
X12580571Y-13305214D01*
X12552000Y-13290929D01*
X12537714Y-13276643D01*
X12523428Y-13248071D01*
X12509143Y-13190929D01*
X12509143Y-13119500D01*
X12523428Y-13062357D01*
X12537714Y-13033786D01*
X12552000Y-13019500D01*
X12580571Y-13005214D01*
X12809143Y-13305214D02*
X12809143Y-13105214D01*
X12809143Y-13133786D02*
X12823428Y-13119500D01*
X12852000Y-13105214D01*
X12894857Y-13105214D01*
X12923428Y-13119500D01*
X12937714Y-13148071D01*
X12937714Y-13305214D01*
X12937714Y-13148071D02*
X12952000Y-13119500D01*
X12980571Y-13105214D01*
X13023428Y-13105214D01*
X13052000Y-13119500D01*
X13066286Y-13148071D01*
X13066286Y-13305214D01*
X13209143Y-13305214D02*
X13209143Y-13105214D01*
X13209143Y-13133786D02*
X13223428Y-13119500D01*
X13252000Y-13105214D01*
X13294857Y-13105214D01*
X13323428Y-13119500D01*
X13337714Y-13148071D01*
X13337714Y-13305214D01*
X13337714Y-13148071D02*
X13352000Y-13119500D01*
X13380571Y-13105214D01*
X13423428Y-13105214D01*
X13452000Y-13119500D01*
X13466286Y-13148071D01*
X13466286Y-13305214D01*
X14052000Y-12990929D02*
X13794857Y-13376643D01*
X14437714Y-13005214D02*
X14466286Y-13005214D01*
X14494857Y-13019500D01*
X14509143Y-13033786D01*
X14523428Y-13062357D01*
X14537714Y-13119500D01*
X14537714Y-13190929D01*
X14523428Y-13248071D01*
X14509143Y-13276643D01*
X14494857Y-13290929D01*
X14466286Y-13305214D01*
X14437714Y-13305214D01*
X14409143Y-13290929D01*
X14394857Y-13276643D01*
X14380571Y-13248071D01*
X14366286Y-13190929D01*
X14366286Y-13119500D01*
X14380571Y-13062357D01*
X14394857Y-13033786D01*
X14409143Y-13019500D01*
X14437714Y-13005214D01*
X14666286Y-13276643D02*
X14680571Y-13290929D01*
X14666286Y-13305214D01*
X14652000Y-13290929D01*
X14666286Y-13276643D01*
X14666286Y-13305214D01*
X14866286Y-13005214D02*
X14894857Y-13005214D01*
X14923428Y-13019500D01*
X14937714Y-13033786D01*
X14952000Y-13062357D01*
X14966286Y-13119500D01*
X14966286Y-13190929D01*
X14952000Y-13248071D01*
X14937714Y-13276643D01*
X14923428Y-13290929D01*
X14894857Y-13305214D01*
X14866286Y-13305214D01*
X14837714Y-13290929D01*
X14823428Y-13276643D01*
X14809143Y-13248071D01*
X14794857Y-13190929D01*
X14794857Y-13119500D01*
X14809143Y-13062357D01*
X14823428Y-13033786D01*
X14837714Y-13019500D01*
X14866286Y-13005214D01*
X15066286Y-13005214D02*
X15266286Y-13005214D01*
X15137714Y-13305214D01*
X15437714Y-13005214D02*
X15466286Y-13005214D01*
X15494857Y-13019500D01*
X15509143Y-13033786D01*
X15523428Y-13062357D01*
X15537714Y-13119500D01*
X15537714Y-13190929D01*
X15523428Y-13248071D01*
X15509143Y-13276643D01*
X15494857Y-13290929D01*
X15466286Y-13305214D01*
X15437714Y-13305214D01*
X15409143Y-13290929D01*
X15394857Y-13276643D01*
X15380571Y-13248071D01*
X15366286Y-13190929D01*
X15366286Y-13119500D01*
X15380571Y-13062357D01*
X15394857Y-13033786D01*
X15409143Y-13019500D01*
X15437714Y-13005214D01*
X15680571Y-13305214D02*
X15737714Y-13305214D01*
X15766286Y-13290929D01*
X15780571Y-13276643D01*
X15809143Y-13233786D01*
X15823428Y-13176643D01*
X15823428Y-13062357D01*
X15809143Y-13033786D01*
X15794857Y-13019500D01*
X15766286Y-13005214D01*
X15709143Y-13005214D01*
X15680571Y-13019500D01*
X15666286Y-13033786D01*
X15652000Y-13062357D01*
X15652000Y-13133786D01*
X15666286Y-13162357D01*
X15680571Y-13176643D01*
X15709143Y-13190929D01*
X15766286Y-13190929D01*
X15794857Y-13176643D01*
X15809143Y-13162357D01*
X15823428Y-13133786D01*
X15937714Y-13005214D02*
X15937714Y-13062357D01*
X16052000Y-13005214D02*
X16052000Y-13062357D01*
X16494857Y-13419500D02*
X16480571Y-13405214D01*
X16452000Y-13362357D01*
X16437714Y-13333786D01*
X16423428Y-13290929D01*
X16409143Y-13219500D01*
X16409143Y-13162357D01*
X16423428Y-13090929D01*
X16437714Y-13048071D01*
X16452000Y-13019500D01*
X16480571Y-12976643D01*
X16494857Y-12962357D01*
X16594857Y-13033786D02*
X16609143Y-13019500D01*
X16637714Y-13005214D01*
X16709143Y-13005214D01*
X16737714Y-13019500D01*
X16752000Y-13033786D01*
X16766286Y-13062357D01*
X16766286Y-13090929D01*
X16752000Y-13133786D01*
X16580571Y-13305214D01*
X16766286Y-13305214D01*
X17123428Y-13305214D02*
X17123428Y-13005214D01*
X17252000Y-13305214D02*
X17252000Y-13148071D01*
X17237714Y-13119500D01*
X17209143Y-13105214D01*
X17166286Y-13105214D01*
X17137714Y-13119500D01*
X17123428Y-13133786D01*
X17437714Y-13305214D02*
X17409143Y-13290929D01*
X17394857Y-13276643D01*
X17380571Y-13248071D01*
X17380571Y-13162357D01*
X17394857Y-13133786D01*
X17409143Y-13119500D01*
X17437714Y-13105214D01*
X17480571Y-13105214D01*
X17509143Y-13119500D01*
X17523428Y-13133786D01*
X17537714Y-13162357D01*
X17537714Y-13248071D01*
X17523428Y-13276643D01*
X17509143Y-13290929D01*
X17480571Y-13305214D01*
X17437714Y-13305214D01*
X17709143Y-13305214D02*
X17680571Y-13290929D01*
X17666286Y-13262357D01*
X17666286Y-13005214D01*
X17937714Y-13290929D02*
X17909143Y-13305214D01*
X17852000Y-13305214D01*
X17823428Y-13290929D01*
X17809143Y-13262357D01*
X17809143Y-13148071D01*
X17823428Y-13119500D01*
X17852000Y-13105214D01*
X17909143Y-13105214D01*
X17937714Y-13119500D01*
X17952000Y-13148071D01*
X17952000Y-13176643D01*
X17809143Y-13205214D01*
X18066286Y-13290929D02*
X18094857Y-13305214D01*
X18152000Y-13305214D01*
X18180571Y-13290929D01*
X18194857Y-13262357D01*
X18194857Y-13248071D01*
X18180571Y-13219500D01*
X18152000Y-13205214D01*
X18109143Y-13205214D01*
X18080571Y-13190929D01*
X18066286Y-13162357D01*
X18066286Y-13148071D01*
X18080571Y-13119500D01*
X18109143Y-13105214D01*
X18152000Y-13105214D01*
X18180571Y-13119500D01*
X18294857Y-13419500D02*
X18309143Y-13405214D01*
X18337714Y-13362357D01*
X18352000Y-13333786D01*
X18366286Y-13290929D01*
X18380571Y-13219500D01*
X18380571Y-13162357D01*
X18366286Y-13090929D01*
X18352000Y-13048071D01*
X18337714Y-13019500D01*
X18309143Y-12976643D01*
X18294857Y-12962357D01*
X18837714Y-13419500D02*
X18823428Y-13405214D01*
X18794857Y-13362357D01*
X18780571Y-13333786D01*
X18766286Y-13290929D01*
X18752000Y-13219500D01*
X18752000Y-13162357D01*
X18766286Y-13090929D01*
X18780571Y-13048071D01*
X18794857Y-13019500D01*
X18823428Y-12976643D01*
X18837714Y-12962357D01*
X18952000Y-13105214D02*
X18952000Y-13305214D01*
X18952000Y-13133786D02*
X18966286Y-13119500D01*
X18994857Y-13105214D01*
X19037714Y-13105214D01*
X19066286Y-13119500D01*
X19080571Y-13148071D01*
X19080571Y-13305214D01*
X19266286Y-13305214D02*
X19237714Y-13290929D01*
X19223428Y-13276643D01*
X19209143Y-13248071D01*
X19209143Y-13162357D01*
X19223428Y-13133786D01*
X19237714Y-13119500D01*
X19266286Y-13105214D01*
X19309143Y-13105214D01*
X19337714Y-13119500D01*
X19352000Y-13133786D01*
X19366286Y-13162357D01*
X19366286Y-13248071D01*
X19352000Y-13276643D01*
X19337714Y-13290929D01*
X19309143Y-13305214D01*
X19266286Y-13305214D01*
X19452000Y-13105214D02*
X19566286Y-13105214D01*
X19494857Y-13005214D02*
X19494857Y-13262357D01*
X19509143Y-13290929D01*
X19537714Y-13305214D01*
X19566286Y-13305214D01*
X19894857Y-13105214D02*
X19894857Y-13405214D01*
X19894857Y-13119500D02*
X19923428Y-13105214D01*
X19980571Y-13105214D01*
X20009143Y-13119500D01*
X20023428Y-13133786D01*
X20037714Y-13162357D01*
X20037714Y-13248071D01*
X20023428Y-13276643D01*
X20009143Y-13290929D01*
X19980571Y-13305214D01*
X19923428Y-13305214D01*
X19894857Y-13290929D01*
X20209143Y-13305214D02*
X20180571Y-13290929D01*
X20166286Y-13262357D01*
X20166286Y-13005214D01*
X20452000Y-13305214D02*
X20452000Y-13148071D01*
X20437714Y-13119500D01*
X20409143Y-13105214D01*
X20352000Y-13105214D01*
X20323428Y-13119500D01*
X20452000Y-13290929D02*
X20423428Y-13305214D01*
X20352000Y-13305214D01*
X20323428Y-13290929D01*
X20309143Y-13262357D01*
X20309143Y-13233786D01*
X20323428Y-13205214D01*
X20352000Y-13190929D01*
X20423428Y-13190929D01*
X20452000Y-13176643D01*
X20552000Y-13105214D02*
X20666286Y-13105214D01*
X20594857Y-13005214D02*
X20594857Y-13262357D01*
X20609143Y-13290929D01*
X20637714Y-13305214D01*
X20666286Y-13305214D01*
X20880571Y-13290929D02*
X20852000Y-13305214D01*
X20794857Y-13305214D01*
X20766286Y-13290929D01*
X20752000Y-13262357D01*
X20752000Y-13148071D01*
X20766286Y-13119500D01*
X20794857Y-13105214D01*
X20852000Y-13105214D01*
X20880571Y-13119500D01*
X20894857Y-13148071D01*
X20894857Y-13176643D01*
X20752000Y-13205214D01*
X21152000Y-13305214D02*
X21152000Y-13005214D01*
X21152000Y-13290929D02*
X21123428Y-13305214D01*
X21066286Y-13305214D01*
X21037714Y-13290929D01*
X21023428Y-13276643D01*
X21009143Y-13248071D01*
X21009143Y-13162357D01*
X21023428Y-13133786D01*
X21037714Y-13119500D01*
X21066286Y-13105214D01*
X21123428Y-13105214D01*
X21152000Y-13119500D01*
X21266286Y-13419500D02*
X21280571Y-13405214D01*
X21309143Y-13362357D01*
X21323428Y-13333786D01*
X21337714Y-13290929D01*
X21352000Y-13219500D01*
X21352000Y-13162357D01*
X21337714Y-13090929D01*
X21323428Y-13048071D01*
X21309143Y-13019500D01*
X21280571Y-12976643D01*
X21266286Y-12962357D01*
M02*
