G04 #@! TF.GenerationSoftware,KiCad,Pcbnew,(5.1.10)-1*
G04 #@! TF.CreationDate,2021-07-28T22:28:55+09:30*
G04 #@! TF.ProjectId,FilestoreE01-SSD,46696c65-7374-46f7-9265-4530312d5353,rev?*
G04 #@! TF.SameCoordinates,Original*
G04 #@! TF.FileFunction,Legend,Top*
G04 #@! TF.FilePolarity,Positive*
%FSLAX46Y46*%
G04 Gerber Fmt 4.6, Leading zero omitted, Abs format (unit mm)*
G04 Created by KiCad (PCBNEW (5.1.10)-1) date 2021-07-28 22:28:55*
%MOMM*%
%LPD*%
G01*
G04 APERTURE LIST*
%ADD10C,0.150000*%
%ADD11C,0.120000*%
%ADD12O,1.800000X1.800000*%
%ADD13O,1.600000X1.600000*%
%ADD14O,1.900000X1.900000*%
%ADD15C,1.700000*%
G04 APERTURE END LIST*
D10*
X162742619Y-109441666D02*
X162695000Y-109394047D01*
X162647380Y-109298809D01*
X162647380Y-109060714D01*
X162695000Y-108965476D01*
X162742619Y-108917857D01*
X162837857Y-108870238D01*
X162933095Y-108870238D01*
X163075952Y-108917857D01*
X163647380Y-109489285D01*
X163647380Y-108870238D01*
X162742619Y-108489285D02*
X162695000Y-108441666D01*
X162647380Y-108346428D01*
X162647380Y-108108333D01*
X162695000Y-108013095D01*
X162742619Y-107965476D01*
X162837857Y-107917857D01*
X162933095Y-107917857D01*
X163075952Y-107965476D01*
X163647380Y-108536904D01*
X163647380Y-107917857D01*
X162599761Y-106775000D02*
X163885476Y-107632142D01*
X162647380Y-106251190D02*
X162647380Y-106155952D01*
X162695000Y-106060714D01*
X162742619Y-106013095D01*
X162837857Y-105965476D01*
X163028333Y-105917857D01*
X163266428Y-105917857D01*
X163456904Y-105965476D01*
X163552142Y-106013095D01*
X163599761Y-106060714D01*
X163647380Y-106155952D01*
X163647380Y-106251190D01*
X163599761Y-106346428D01*
X163552142Y-106394047D01*
X163456904Y-106441666D01*
X163266428Y-106489285D01*
X163028333Y-106489285D01*
X162837857Y-106441666D01*
X162742619Y-106394047D01*
X162695000Y-106346428D01*
X162647380Y-106251190D01*
X162647380Y-105013095D02*
X162647380Y-105489285D01*
X163123571Y-105536904D01*
X163075952Y-105489285D01*
X163028333Y-105394047D01*
X163028333Y-105155952D01*
X163075952Y-105060714D01*
X163123571Y-105013095D01*
X163218809Y-104965476D01*
X163456904Y-104965476D01*
X163552142Y-105013095D01*
X163599761Y-105060714D01*
X163647380Y-105155952D01*
X163647380Y-105394047D01*
X163599761Y-105489285D01*
X163552142Y-105536904D01*
X162599761Y-103822619D02*
X163885476Y-104679761D01*
X162742619Y-103536904D02*
X162695000Y-103489285D01*
X162647380Y-103394047D01*
X162647380Y-103155952D01*
X162695000Y-103060714D01*
X162742619Y-103013095D01*
X162837857Y-102965476D01*
X162933095Y-102965476D01*
X163075952Y-103013095D01*
X163647380Y-103584523D01*
X163647380Y-102965476D01*
X162647380Y-102346428D02*
X162647380Y-102251190D01*
X162695000Y-102155952D01*
X162742619Y-102108333D01*
X162837857Y-102060714D01*
X163028333Y-102013095D01*
X163266428Y-102013095D01*
X163456904Y-102060714D01*
X163552142Y-102108333D01*
X163599761Y-102155952D01*
X163647380Y-102251190D01*
X163647380Y-102346428D01*
X163599761Y-102441666D01*
X163552142Y-102489285D01*
X163456904Y-102536904D01*
X163266428Y-102584523D01*
X163028333Y-102584523D01*
X162837857Y-102536904D01*
X162742619Y-102489285D01*
X162695000Y-102441666D01*
X162647380Y-102346428D01*
X162742619Y-101632142D02*
X162695000Y-101584523D01*
X162647380Y-101489285D01*
X162647380Y-101251190D01*
X162695000Y-101155952D01*
X162742619Y-101108333D01*
X162837857Y-101060714D01*
X162933095Y-101060714D01*
X163075952Y-101108333D01*
X163647380Y-101679761D01*
X163647380Y-101060714D01*
X163647380Y-100108333D02*
X163647380Y-100679761D01*
X163647380Y-100394047D02*
X162647380Y-100394047D01*
X162790238Y-100489285D01*
X162885476Y-100584523D01*
X162933095Y-100679761D01*
X156932380Y-108838809D02*
X157932380Y-108505476D01*
X156932380Y-108172142D01*
X157932380Y-107315000D02*
X157932380Y-107886428D01*
X157932380Y-107600714D02*
X156932380Y-107600714D01*
X157075238Y-107695952D01*
X157170476Y-107791190D01*
X157218095Y-107886428D01*
X157837142Y-106886428D02*
X157884761Y-106838809D01*
X157932380Y-106886428D01*
X157884761Y-106934047D01*
X157837142Y-106886428D01*
X157932380Y-106886428D01*
X156932380Y-106219761D02*
X156932380Y-106124523D01*
X156980000Y-106029285D01*
X157027619Y-105981666D01*
X157122857Y-105934047D01*
X157313333Y-105886428D01*
X157551428Y-105886428D01*
X157741904Y-105934047D01*
X157837142Y-105981666D01*
X157884761Y-106029285D01*
X157932380Y-106124523D01*
X157932380Y-106219761D01*
X157884761Y-106315000D01*
X157837142Y-106362619D01*
X157741904Y-106410238D01*
X157551428Y-106457857D01*
X157313333Y-106457857D01*
X157122857Y-106410238D01*
X157027619Y-106362619D01*
X156980000Y-106315000D01*
X156932380Y-106219761D01*
X151948571Y-116029761D02*
X151948571Y-116363095D01*
X152472380Y-116363095D02*
X151472380Y-116363095D01*
X151472380Y-115886904D01*
X152472380Y-115505952D02*
X151805714Y-115505952D01*
X151472380Y-115505952D02*
X151520000Y-115553571D01*
X151567619Y-115505952D01*
X151520000Y-115458333D01*
X151472380Y-115505952D01*
X151567619Y-115505952D01*
X152472380Y-114886904D02*
X152424761Y-114982142D01*
X152329523Y-115029761D01*
X151472380Y-115029761D01*
X152424761Y-114125000D02*
X152472380Y-114220238D01*
X152472380Y-114410714D01*
X152424761Y-114505952D01*
X152329523Y-114553571D01*
X151948571Y-114553571D01*
X151853333Y-114505952D01*
X151805714Y-114410714D01*
X151805714Y-114220238D01*
X151853333Y-114125000D01*
X151948571Y-114077380D01*
X152043809Y-114077380D01*
X152139047Y-114553571D01*
X152424761Y-113696428D02*
X152472380Y-113601190D01*
X152472380Y-113410714D01*
X152424761Y-113315476D01*
X152329523Y-113267857D01*
X152281904Y-113267857D01*
X152186666Y-113315476D01*
X152139047Y-113410714D01*
X152139047Y-113553571D01*
X152091428Y-113648809D01*
X151996190Y-113696428D01*
X151948571Y-113696428D01*
X151853333Y-113648809D01*
X151805714Y-113553571D01*
X151805714Y-113410714D01*
X151853333Y-113315476D01*
X152424761Y-112886904D02*
X152472380Y-112791666D01*
X152472380Y-112601190D01*
X152424761Y-112505952D01*
X152329523Y-112458333D01*
X152281904Y-112458333D01*
X152186666Y-112505952D01*
X152139047Y-112601190D01*
X152139047Y-112744047D01*
X152091428Y-112839285D01*
X151996190Y-112886904D01*
X151948571Y-112886904D01*
X151853333Y-112839285D01*
X151805714Y-112744047D01*
X151805714Y-112601190D01*
X151853333Y-112505952D01*
X151805714Y-112172619D02*
X151805714Y-111791666D01*
X151472380Y-112029761D02*
X152329523Y-112029761D01*
X152424761Y-111982142D01*
X152472380Y-111886904D01*
X152472380Y-111791666D01*
X152472380Y-111315476D02*
X152424761Y-111410714D01*
X152377142Y-111458333D01*
X152281904Y-111505952D01*
X151996190Y-111505952D01*
X151900952Y-111458333D01*
X151853333Y-111410714D01*
X151805714Y-111315476D01*
X151805714Y-111172619D01*
X151853333Y-111077380D01*
X151900952Y-111029761D01*
X151996190Y-110982142D01*
X152281904Y-110982142D01*
X152377142Y-111029761D01*
X152424761Y-111077380D01*
X152472380Y-111172619D01*
X152472380Y-111315476D01*
X152472380Y-110553571D02*
X151805714Y-110553571D01*
X151996190Y-110553571D02*
X151900952Y-110505952D01*
X151853333Y-110458333D01*
X151805714Y-110363095D01*
X151805714Y-110267857D01*
X152424761Y-109553571D02*
X152472380Y-109648809D01*
X152472380Y-109839285D01*
X152424761Y-109934523D01*
X152329523Y-109982142D01*
X151948571Y-109982142D01*
X151853333Y-109934523D01*
X151805714Y-109839285D01*
X151805714Y-109648809D01*
X151853333Y-109553571D01*
X151948571Y-109505952D01*
X152043809Y-109505952D01*
X152139047Y-109982142D01*
X152424761Y-108363095D02*
X152472380Y-108220238D01*
X152472380Y-107982142D01*
X152424761Y-107886904D01*
X152377142Y-107839285D01*
X152281904Y-107791666D01*
X152186666Y-107791666D01*
X152091428Y-107839285D01*
X152043809Y-107886904D01*
X151996190Y-107982142D01*
X151948571Y-108172619D01*
X151900952Y-108267857D01*
X151853333Y-108315476D01*
X151758095Y-108363095D01*
X151662857Y-108363095D01*
X151567619Y-108315476D01*
X151520000Y-108267857D01*
X151472380Y-108172619D01*
X151472380Y-107934523D01*
X151520000Y-107791666D01*
X152424761Y-107410714D02*
X152472380Y-107267857D01*
X152472380Y-107029761D01*
X152424761Y-106934523D01*
X152377142Y-106886904D01*
X152281904Y-106839285D01*
X152186666Y-106839285D01*
X152091428Y-106886904D01*
X152043809Y-106934523D01*
X151996190Y-107029761D01*
X151948571Y-107220238D01*
X151900952Y-107315476D01*
X151853333Y-107363095D01*
X151758095Y-107410714D01*
X151662857Y-107410714D01*
X151567619Y-107363095D01*
X151520000Y-107315476D01*
X151472380Y-107220238D01*
X151472380Y-106982142D01*
X151520000Y-106839285D01*
X152472380Y-106410714D02*
X151472380Y-106410714D01*
X151472380Y-106172619D01*
X151520000Y-106029761D01*
X151615238Y-105934523D01*
X151710476Y-105886904D01*
X151900952Y-105839285D01*
X152043809Y-105839285D01*
X152234285Y-105886904D01*
X152329523Y-105934523D01*
X152424761Y-106029761D01*
X152472380Y-106172619D01*
X152472380Y-106410714D01*
X154122380Y-116005952D02*
X153122380Y-116005952D01*
X153598571Y-116005952D02*
X153598571Y-115434523D01*
X154122380Y-115434523D02*
X153122380Y-115434523D01*
X154122380Y-114958333D02*
X153122380Y-114958333D01*
X153122380Y-114720238D01*
X153170000Y-114577380D01*
X153265238Y-114482142D01*
X153360476Y-114434523D01*
X153550952Y-114386904D01*
X153693809Y-114386904D01*
X153884285Y-114434523D01*
X153979523Y-114482142D01*
X154074761Y-114577380D01*
X154122380Y-114720238D01*
X154122380Y-114958333D01*
X153598571Y-112434523D02*
X153598571Y-112101190D01*
X154122380Y-111958333D02*
X154122380Y-112434523D01*
X153122380Y-112434523D01*
X153122380Y-111958333D01*
X154122380Y-111529761D02*
X153455714Y-111529761D01*
X153550952Y-111529761D02*
X153503333Y-111482142D01*
X153455714Y-111386904D01*
X153455714Y-111244047D01*
X153503333Y-111148809D01*
X153598571Y-111101190D01*
X154122380Y-111101190D01*
X153598571Y-111101190D02*
X153503333Y-111053571D01*
X153455714Y-110958333D01*
X153455714Y-110815476D01*
X153503333Y-110720238D01*
X153598571Y-110672619D01*
X154122380Y-110672619D01*
X153455714Y-109767857D02*
X154122380Y-109767857D01*
X153455714Y-110196428D02*
X153979523Y-110196428D01*
X154074761Y-110148809D01*
X154122380Y-110053571D01*
X154122380Y-109910714D01*
X154074761Y-109815476D01*
X154027142Y-109767857D01*
X154122380Y-109148809D02*
X154074761Y-109244047D01*
X153979523Y-109291666D01*
X153122380Y-109291666D01*
X154122380Y-108339285D02*
X153598571Y-108339285D01*
X153503333Y-108386904D01*
X153455714Y-108482142D01*
X153455714Y-108672619D01*
X153503333Y-108767857D01*
X154074761Y-108339285D02*
X154122380Y-108434523D01*
X154122380Y-108672619D01*
X154074761Y-108767857D01*
X153979523Y-108815476D01*
X153884285Y-108815476D01*
X153789047Y-108767857D01*
X153741428Y-108672619D01*
X153741428Y-108434523D01*
X153693809Y-108339285D01*
X153455714Y-108005952D02*
X153455714Y-107625000D01*
X153122380Y-107863095D02*
X153979523Y-107863095D01*
X154074761Y-107815476D01*
X154122380Y-107720238D01*
X154122380Y-107625000D01*
X154122380Y-107148809D02*
X154074761Y-107244047D01*
X154027142Y-107291666D01*
X153931904Y-107339285D01*
X153646190Y-107339285D01*
X153550952Y-107291666D01*
X153503333Y-107244047D01*
X153455714Y-107148809D01*
X153455714Y-107005952D01*
X153503333Y-106910714D01*
X153550952Y-106863095D01*
X153646190Y-106815476D01*
X153931904Y-106815476D01*
X154027142Y-106863095D01*
X154074761Y-106910714D01*
X154122380Y-107005952D01*
X154122380Y-107148809D01*
X154122380Y-106386904D02*
X153455714Y-106386904D01*
X153646190Y-106386904D02*
X153550952Y-106339285D01*
X153503333Y-106291666D01*
X153455714Y-106196428D01*
X153455714Y-106101190D01*
X155486666Y-117125000D02*
X155486666Y-116648809D01*
X155772380Y-117220238D02*
X154772380Y-116886904D01*
X155772380Y-116553571D01*
X154772380Y-115553571D02*
X155772380Y-115315476D01*
X155058095Y-115125000D01*
X155772380Y-114934523D01*
X154772380Y-114696428D01*
X155772380Y-114315476D02*
X155105714Y-114315476D01*
X154772380Y-114315476D02*
X154820000Y-114363095D01*
X154867619Y-114315476D01*
X154820000Y-114267857D01*
X154772380Y-114315476D01*
X154867619Y-114315476D01*
X155772380Y-113696428D02*
X155724761Y-113791666D01*
X155629523Y-113839285D01*
X154772380Y-113839285D01*
X155772380Y-113172619D02*
X155724761Y-113267857D01*
X155629523Y-113315476D01*
X154772380Y-113315476D01*
X155772380Y-112791666D02*
X155105714Y-112791666D01*
X154772380Y-112791666D02*
X154820000Y-112839285D01*
X154867619Y-112791666D01*
X154820000Y-112744047D01*
X154772380Y-112791666D01*
X154867619Y-112791666D01*
X155772380Y-111886904D02*
X155248571Y-111886904D01*
X155153333Y-111934523D01*
X155105714Y-112029761D01*
X155105714Y-112220238D01*
X155153333Y-112315476D01*
X155724761Y-111886904D02*
X155772380Y-111982142D01*
X155772380Y-112220238D01*
X155724761Y-112315476D01*
X155629523Y-112363095D01*
X155534285Y-112363095D01*
X155439047Y-112315476D01*
X155391428Y-112220238D01*
X155391428Y-111982142D01*
X155343809Y-111886904D01*
X155772380Y-111410714D02*
X155105714Y-111410714D01*
X155200952Y-111410714D02*
X155153333Y-111363095D01*
X155105714Y-111267857D01*
X155105714Y-111125000D01*
X155153333Y-111029761D01*
X155248571Y-110982142D01*
X155772380Y-110982142D01*
X155248571Y-110982142D02*
X155153333Y-110934523D01*
X155105714Y-110839285D01*
X155105714Y-110696428D01*
X155153333Y-110601190D01*
X155248571Y-110553571D01*
X155772380Y-110553571D01*
X155724761Y-110125000D02*
X155772380Y-110029761D01*
X155772380Y-109839285D01*
X155724761Y-109744047D01*
X155629523Y-109696428D01*
X155581904Y-109696428D01*
X155486666Y-109744047D01*
X155439047Y-109839285D01*
X155439047Y-109982142D01*
X155391428Y-110077380D01*
X155296190Y-110125000D01*
X155248571Y-110125000D01*
X155153333Y-110077380D01*
X155105714Y-109982142D01*
X155105714Y-109839285D01*
X155153333Y-109744047D01*
X154867619Y-108553571D02*
X154820000Y-108505952D01*
X154772380Y-108410714D01*
X154772380Y-108172619D01*
X154820000Y-108077380D01*
X154867619Y-108029761D01*
X154962857Y-107982142D01*
X155058095Y-107982142D01*
X155200952Y-108029761D01*
X155772380Y-108601190D01*
X155772380Y-107982142D01*
X154772380Y-107363095D02*
X154772380Y-107267857D01*
X154820000Y-107172619D01*
X154867619Y-107125000D01*
X154962857Y-107077380D01*
X155153333Y-107029761D01*
X155391428Y-107029761D01*
X155581904Y-107077380D01*
X155677142Y-107125000D01*
X155724761Y-107172619D01*
X155772380Y-107267857D01*
X155772380Y-107363095D01*
X155724761Y-107458333D01*
X155677142Y-107505952D01*
X155581904Y-107553571D01*
X155391428Y-107601190D01*
X155153333Y-107601190D01*
X154962857Y-107553571D01*
X154867619Y-107505952D01*
X154820000Y-107458333D01*
X154772380Y-107363095D01*
X154867619Y-106648809D02*
X154820000Y-106601190D01*
X154772380Y-106505952D01*
X154772380Y-106267857D01*
X154820000Y-106172619D01*
X154867619Y-106125000D01*
X154962857Y-106077380D01*
X155058095Y-106077380D01*
X155200952Y-106125000D01*
X155772380Y-106696428D01*
X155772380Y-106077380D01*
X155772380Y-105125000D02*
X155772380Y-105696428D01*
X155772380Y-105410714D02*
X154772380Y-105410714D01*
X154915238Y-105505952D01*
X155010476Y-105601190D01*
X155058095Y-105696428D01*
D11*
X164340000Y-64115000D02*
X162840000Y-64115000D01*
X162840000Y-64115000D02*
X162840000Y-64385000D01*
X162840000Y-64385000D02*
X160010000Y-64385000D01*
X164340000Y-71015000D02*
X162840000Y-71015000D01*
X162840000Y-71015000D02*
X162840000Y-70745000D01*
X162840000Y-70745000D02*
X161740000Y-70745000D01*
D10*
X157265000Y-96880000D02*
X157265000Y-96980000D01*
X157265000Y-103705000D02*
X157265000Y-103680000D01*
X152615000Y-103705000D02*
X152615000Y-103680000D01*
X151540000Y-96880000D02*
X157265000Y-96880000D01*
X152615000Y-103705000D02*
X157265000Y-103705000D01*
X157900000Y-81640000D02*
X157900000Y-81740000D01*
X157900000Y-88465000D02*
X157900000Y-88440000D01*
X153250000Y-88465000D02*
X153250000Y-88440000D01*
X152175000Y-81640000D02*
X157900000Y-81640000D01*
X153250000Y-88465000D02*
X157900000Y-88465000D01*
D11*
X136990000Y-116305000D02*
X137390000Y-116305000D01*
X134390000Y-116305000D02*
X134790000Y-116305000D01*
X146390000Y-116305000D02*
X139590000Y-116305000D01*
X146390000Y-105905000D02*
X146390000Y-106305000D01*
X146390000Y-98205000D02*
X146390000Y-98605000D01*
X146390000Y-72805000D02*
X146390000Y-73205000D01*
X146390000Y-65305000D02*
X146390000Y-65605000D01*
X146390000Y-88105000D02*
X146390000Y-88505000D01*
X146390000Y-103305000D02*
X146390000Y-103705000D01*
X146390000Y-83005000D02*
X146390000Y-83405000D01*
X146390000Y-77905000D02*
X146390000Y-78305000D01*
X146390000Y-90605000D02*
X146390000Y-91005000D01*
X146390000Y-95705000D02*
X146390000Y-96105000D01*
X146390000Y-110905000D02*
X146390000Y-111305000D01*
X146390000Y-113505000D02*
X146390000Y-113905000D01*
X146390000Y-108405000D02*
X146390000Y-108805000D01*
X146390000Y-75405000D02*
X146390000Y-75805000D01*
X146390000Y-67705000D02*
X146390000Y-68105000D01*
X146390000Y-70305000D02*
X146390000Y-70705000D01*
X146390000Y-100805000D02*
X146390000Y-101205000D01*
X146390000Y-93105000D02*
X146390000Y-93505000D01*
X146390000Y-85505000D02*
X146390000Y-85905000D01*
X146390000Y-80405000D02*
X146390000Y-80805000D01*
X125390000Y-113505000D02*
X125390000Y-113905000D01*
X125390000Y-110905000D02*
X125390000Y-111305000D01*
X125390000Y-108405000D02*
X125390000Y-108805000D01*
X125390000Y-105905000D02*
X125390000Y-106305000D01*
X125390000Y-103305000D02*
X125390000Y-103705000D01*
X125390000Y-100805000D02*
X125390000Y-101205000D01*
X125390000Y-98205000D02*
X125390000Y-98605000D01*
X125390000Y-95705000D02*
X125390000Y-96105000D01*
X125390000Y-93105000D02*
X125390000Y-93505000D01*
X125390000Y-90605000D02*
X125390000Y-91005000D01*
X125390000Y-88105000D02*
X125390000Y-88505000D01*
X125390000Y-85505000D02*
X125390000Y-85905000D01*
X125390000Y-83005000D02*
X125390000Y-83405000D01*
X125390000Y-80405000D02*
X125390000Y-80805000D01*
X125390000Y-77905000D02*
X125390000Y-78305000D01*
X125390000Y-75405000D02*
X125390000Y-75805000D01*
X125390000Y-72805000D02*
X125390000Y-73205000D01*
X125390000Y-70305000D02*
X125390000Y-70705000D01*
X125390000Y-67705000D02*
X125390000Y-68105000D01*
X125390000Y-65305000D02*
X125390000Y-65605000D01*
X128397000Y-67972000D02*
X128397000Y-65305000D01*
X125390000Y-67972000D02*
X128397000Y-67972000D01*
X132190000Y-116305000D02*
X125390000Y-116305000D01*
X125390000Y-65305000D02*
X146390000Y-65305000D01*
X165040000Y-115630000D02*
X170240000Y-115630000D01*
X165040000Y-74930000D02*
X165040000Y-115630000D01*
X170240000Y-72330000D02*
X170240000Y-115630000D01*
X165040000Y-74930000D02*
X167640000Y-74930000D01*
X167640000Y-74930000D02*
X167640000Y-72330000D01*
X167640000Y-72330000D02*
X170240000Y-72330000D01*
X165040000Y-73660000D02*
X165040000Y-72330000D01*
X165040000Y-72330000D02*
X166370000Y-72330000D01*
X119485100Y-113765640D02*
X122145100Y-113765640D01*
X119485100Y-101005640D02*
X119485100Y-113765640D01*
X122145100Y-101005640D02*
X122145100Y-113765640D01*
X119485100Y-101005640D02*
X122145100Y-101005640D01*
X119485100Y-99735640D02*
X119485100Y-98405640D01*
X119485100Y-98405640D02*
X120815100Y-98405640D01*
X114240000Y-92135000D02*
X119440000Y-92135000D01*
X114240000Y-84455000D02*
X114240000Y-92135000D01*
X119440000Y-81855000D02*
X119440000Y-92135000D01*
X114240000Y-84455000D02*
X116840000Y-84455000D01*
X116840000Y-84455000D02*
X116840000Y-81855000D01*
X116840000Y-81855000D02*
X119440000Y-81855000D01*
X114240000Y-83185000D02*
X114240000Y-81855000D01*
X114240000Y-81855000D02*
X115570000Y-81855000D01*
X114240000Y-78165000D02*
X119440000Y-78165000D01*
X114240000Y-67945000D02*
X114240000Y-78165000D01*
X119440000Y-65345000D02*
X119440000Y-78165000D01*
X114240000Y-67945000D02*
X116840000Y-67945000D01*
X116840000Y-67945000D02*
X116840000Y-65345000D01*
X116840000Y-65345000D02*
X119440000Y-65345000D01*
X114240000Y-66675000D02*
X114240000Y-65345000D01*
X114240000Y-65345000D02*
X115570000Y-65345000D01*
X149095000Y-65660000D02*
X149095000Y-68960000D01*
X149095000Y-68960000D02*
X154495000Y-68960000D01*
X149095000Y-65660000D02*
X154495000Y-65660000D01*
X155198578Y-74370000D02*
X154681422Y-74370000D01*
X155198578Y-72950000D02*
X154681422Y-72950000D01*
X157436078Y-80085000D02*
X156918922Y-80085000D01*
X157436078Y-78665000D02*
X156918922Y-78665000D01*
X155198578Y-93420000D02*
X154681422Y-93420000D01*
X155198578Y-92000000D02*
X154681422Y-92000000D01*
X163290000Y-113050000D02*
G75*
G03*
X163290000Y-113050000I-3270000J0D01*
G01*
X156790000Y-113050000D02*
X163250000Y-113050000D01*
X156790000Y-113010000D02*
X163250000Y-113010000D01*
X156790000Y-112970000D02*
X163250000Y-112970000D01*
X156792000Y-112930000D02*
X163248000Y-112930000D01*
X156793000Y-112890000D02*
X163247000Y-112890000D01*
X156796000Y-112850000D02*
X163244000Y-112850000D01*
X156798000Y-112810000D02*
X158980000Y-112810000D01*
X161060000Y-112810000D02*
X163242000Y-112810000D01*
X156802000Y-112770000D02*
X158980000Y-112770000D01*
X161060000Y-112770000D02*
X163238000Y-112770000D01*
X156805000Y-112730000D02*
X158980000Y-112730000D01*
X161060000Y-112730000D02*
X163235000Y-112730000D01*
X156809000Y-112690000D02*
X158980000Y-112690000D01*
X161060000Y-112690000D02*
X163231000Y-112690000D01*
X156814000Y-112650000D02*
X158980000Y-112650000D01*
X161060000Y-112650000D02*
X163226000Y-112650000D01*
X156819000Y-112610000D02*
X158980000Y-112610000D01*
X161060000Y-112610000D02*
X163221000Y-112610000D01*
X156825000Y-112570000D02*
X158980000Y-112570000D01*
X161060000Y-112570000D02*
X163215000Y-112570000D01*
X156831000Y-112530000D02*
X158980000Y-112530000D01*
X161060000Y-112530000D02*
X163209000Y-112530000D01*
X156838000Y-112490000D02*
X158980000Y-112490000D01*
X161060000Y-112490000D02*
X163202000Y-112490000D01*
X156845000Y-112450000D02*
X158980000Y-112450000D01*
X161060000Y-112450000D02*
X163195000Y-112450000D01*
X156853000Y-112410000D02*
X158980000Y-112410000D01*
X161060000Y-112410000D02*
X163187000Y-112410000D01*
X156861000Y-112370000D02*
X158980000Y-112370000D01*
X161060000Y-112370000D02*
X163179000Y-112370000D01*
X156870000Y-112329000D02*
X158980000Y-112329000D01*
X161060000Y-112329000D02*
X163170000Y-112329000D01*
X156879000Y-112289000D02*
X158980000Y-112289000D01*
X161060000Y-112289000D02*
X163161000Y-112289000D01*
X156889000Y-112249000D02*
X158980000Y-112249000D01*
X161060000Y-112249000D02*
X163151000Y-112249000D01*
X156899000Y-112209000D02*
X158980000Y-112209000D01*
X161060000Y-112209000D02*
X163141000Y-112209000D01*
X156910000Y-112169000D02*
X158980000Y-112169000D01*
X161060000Y-112169000D02*
X163130000Y-112169000D01*
X156922000Y-112129000D02*
X158980000Y-112129000D01*
X161060000Y-112129000D02*
X163118000Y-112129000D01*
X156934000Y-112089000D02*
X158980000Y-112089000D01*
X161060000Y-112089000D02*
X163106000Y-112089000D01*
X156946000Y-112049000D02*
X158980000Y-112049000D01*
X161060000Y-112049000D02*
X163094000Y-112049000D01*
X156959000Y-112009000D02*
X158980000Y-112009000D01*
X161060000Y-112009000D02*
X163081000Y-112009000D01*
X156973000Y-111969000D02*
X158980000Y-111969000D01*
X161060000Y-111969000D02*
X163067000Y-111969000D01*
X156987000Y-111929000D02*
X158980000Y-111929000D01*
X161060000Y-111929000D02*
X163053000Y-111929000D01*
X157002000Y-111889000D02*
X158980000Y-111889000D01*
X161060000Y-111889000D02*
X163038000Y-111889000D01*
X157018000Y-111849000D02*
X158980000Y-111849000D01*
X161060000Y-111849000D02*
X163022000Y-111849000D01*
X157034000Y-111809000D02*
X158980000Y-111809000D01*
X161060000Y-111809000D02*
X163006000Y-111809000D01*
X157050000Y-111769000D02*
X158980000Y-111769000D01*
X161060000Y-111769000D02*
X162990000Y-111769000D01*
X157068000Y-111729000D02*
X158980000Y-111729000D01*
X161060000Y-111729000D02*
X162972000Y-111729000D01*
X157086000Y-111689000D02*
X158980000Y-111689000D01*
X161060000Y-111689000D02*
X162954000Y-111689000D01*
X157104000Y-111649000D02*
X158980000Y-111649000D01*
X161060000Y-111649000D02*
X162936000Y-111649000D01*
X157124000Y-111609000D02*
X158980000Y-111609000D01*
X161060000Y-111609000D02*
X162916000Y-111609000D01*
X157144000Y-111569000D02*
X158980000Y-111569000D01*
X161060000Y-111569000D02*
X162896000Y-111569000D01*
X157164000Y-111529000D02*
X158980000Y-111529000D01*
X161060000Y-111529000D02*
X162876000Y-111529000D01*
X157186000Y-111489000D02*
X158980000Y-111489000D01*
X161060000Y-111489000D02*
X162854000Y-111489000D01*
X157208000Y-111449000D02*
X158980000Y-111449000D01*
X161060000Y-111449000D02*
X162832000Y-111449000D01*
X157230000Y-111409000D02*
X158980000Y-111409000D01*
X161060000Y-111409000D02*
X162810000Y-111409000D01*
X157254000Y-111369000D02*
X158980000Y-111369000D01*
X161060000Y-111369000D02*
X162786000Y-111369000D01*
X157278000Y-111329000D02*
X158980000Y-111329000D01*
X161060000Y-111329000D02*
X162762000Y-111329000D01*
X157304000Y-111289000D02*
X158980000Y-111289000D01*
X161060000Y-111289000D02*
X162736000Y-111289000D01*
X157330000Y-111249000D02*
X158980000Y-111249000D01*
X161060000Y-111249000D02*
X162710000Y-111249000D01*
X157356000Y-111209000D02*
X158980000Y-111209000D01*
X161060000Y-111209000D02*
X162684000Y-111209000D01*
X157384000Y-111169000D02*
X158980000Y-111169000D01*
X161060000Y-111169000D02*
X162656000Y-111169000D01*
X157413000Y-111129000D02*
X158980000Y-111129000D01*
X161060000Y-111129000D02*
X162627000Y-111129000D01*
X157442000Y-111089000D02*
X158980000Y-111089000D01*
X161060000Y-111089000D02*
X162598000Y-111089000D01*
X157472000Y-111049000D02*
X158980000Y-111049000D01*
X161060000Y-111049000D02*
X162568000Y-111049000D01*
X157504000Y-111009000D02*
X158980000Y-111009000D01*
X161060000Y-111009000D02*
X162536000Y-111009000D01*
X157536000Y-110969000D02*
X158980000Y-110969000D01*
X161060000Y-110969000D02*
X162504000Y-110969000D01*
X157570000Y-110929000D02*
X158980000Y-110929000D01*
X161060000Y-110929000D02*
X162470000Y-110929000D01*
X157604000Y-110889000D02*
X158980000Y-110889000D01*
X161060000Y-110889000D02*
X162436000Y-110889000D01*
X157640000Y-110849000D02*
X158980000Y-110849000D01*
X161060000Y-110849000D02*
X162400000Y-110849000D01*
X157677000Y-110809000D02*
X158980000Y-110809000D01*
X161060000Y-110809000D02*
X162363000Y-110809000D01*
X157715000Y-110769000D02*
X158980000Y-110769000D01*
X161060000Y-110769000D02*
X162325000Y-110769000D01*
X157755000Y-110729000D02*
X162285000Y-110729000D01*
X157796000Y-110689000D02*
X162244000Y-110689000D01*
X157838000Y-110649000D02*
X162202000Y-110649000D01*
X157883000Y-110609000D02*
X162157000Y-110609000D01*
X157928000Y-110569000D02*
X162112000Y-110569000D01*
X157976000Y-110529000D02*
X162064000Y-110529000D01*
X158025000Y-110489000D02*
X162015000Y-110489000D01*
X158076000Y-110449000D02*
X161964000Y-110449000D01*
X158130000Y-110409000D02*
X161910000Y-110409000D01*
X158186000Y-110369000D02*
X161854000Y-110369000D01*
X158244000Y-110329000D02*
X161796000Y-110329000D01*
X158306000Y-110289000D02*
X161734000Y-110289000D01*
X158370000Y-110249000D02*
X161670000Y-110249000D01*
X158439000Y-110209000D02*
X161601000Y-110209000D01*
X158511000Y-110169000D02*
X161529000Y-110169000D01*
X158588000Y-110129000D02*
X161452000Y-110129000D01*
X158670000Y-110089000D02*
X161370000Y-110089000D01*
X158758000Y-110049000D02*
X161282000Y-110049000D01*
X158855000Y-110009000D02*
X161185000Y-110009000D01*
X158961000Y-109969000D02*
X161079000Y-109969000D01*
X159080000Y-109929000D02*
X160960000Y-109929000D01*
X159218000Y-109889000D02*
X160822000Y-109889000D01*
X159387000Y-109849000D02*
X160653000Y-109849000D01*
X159618000Y-109809000D02*
X160422000Y-109809000D01*
X158181000Y-116550241D02*
X158181000Y-115920241D01*
X157866000Y-116235241D02*
X158496000Y-116235241D01*
X158260000Y-75295000D02*
X162560000Y-75295000D01*
X158260000Y-73295000D02*
X158260000Y-75295000D01*
X162560000Y-73295000D02*
X158260000Y-73295000D01*
D10*
X157353095Y-64222380D02*
X157353095Y-65031904D01*
X157400714Y-65127142D01*
X157448333Y-65174761D01*
X157543571Y-65222380D01*
X157734047Y-65222380D01*
X157829285Y-65174761D01*
X157876904Y-65127142D01*
X157924523Y-65031904D01*
X157924523Y-64222380D01*
X158829285Y-64555714D02*
X158829285Y-65222380D01*
X158591190Y-64174761D02*
X158353095Y-64889047D01*
X158972142Y-64889047D01*
X154178095Y-95482380D02*
X154178095Y-96291904D01*
X154225714Y-96387142D01*
X154273333Y-96434761D01*
X154368571Y-96482380D01*
X154559047Y-96482380D01*
X154654285Y-96434761D01*
X154701904Y-96387142D01*
X154749523Y-96291904D01*
X154749523Y-95482380D01*
X155130476Y-95482380D02*
X155749523Y-95482380D01*
X155416190Y-95863333D01*
X155559047Y-95863333D01*
X155654285Y-95910952D01*
X155701904Y-95958571D01*
X155749523Y-96053809D01*
X155749523Y-96291904D01*
X155701904Y-96387142D01*
X155654285Y-96434761D01*
X155559047Y-96482380D01*
X155273333Y-96482380D01*
X155178095Y-96434761D01*
X155130476Y-96387142D01*
X154813095Y-80242380D02*
X154813095Y-81051904D01*
X154860714Y-81147142D01*
X154908333Y-81194761D01*
X155003571Y-81242380D01*
X155194047Y-81242380D01*
X155289285Y-81194761D01*
X155336904Y-81147142D01*
X155384523Y-81051904D01*
X155384523Y-80242380D01*
X155813095Y-80337619D02*
X155860714Y-80290000D01*
X155955952Y-80242380D01*
X156194047Y-80242380D01*
X156289285Y-80290000D01*
X156336904Y-80337619D01*
X156384523Y-80432857D01*
X156384523Y-80528095D01*
X156336904Y-80670952D01*
X155765476Y-81242380D01*
X156384523Y-81242380D01*
X135128095Y-90257380D02*
X135128095Y-91066904D01*
X135175714Y-91162142D01*
X135223333Y-91209761D01*
X135318571Y-91257380D01*
X135509047Y-91257380D01*
X135604285Y-91209761D01*
X135651904Y-91162142D01*
X135699523Y-91066904D01*
X135699523Y-90257380D01*
X136699523Y-91257380D02*
X136128095Y-91257380D01*
X136413809Y-91257380D02*
X136413809Y-90257380D01*
X136318571Y-90400238D01*
X136223333Y-90495476D01*
X136128095Y-90543095D01*
X139794761Y-117328809D02*
X139909047Y-117366904D01*
X140099523Y-117366904D01*
X140175714Y-117328809D01*
X140213809Y-117290714D01*
X140251904Y-117214523D01*
X140251904Y-117138333D01*
X140213809Y-117062142D01*
X140175714Y-117024047D01*
X140099523Y-116985952D01*
X139947142Y-116947857D01*
X139870952Y-116909761D01*
X139832857Y-116871666D01*
X139794761Y-116795476D01*
X139794761Y-116719285D01*
X139832857Y-116643095D01*
X139870952Y-116605000D01*
X139947142Y-116566904D01*
X140137619Y-116566904D01*
X140251904Y-116605000D01*
X140518571Y-116566904D02*
X140709047Y-117366904D01*
X140861428Y-116795476D01*
X141013809Y-117366904D01*
X141204285Y-116566904D01*
X141509047Y-117366904D02*
X141509047Y-116566904D01*
X141699523Y-116566904D01*
X141813809Y-116605000D01*
X141890000Y-116681190D01*
X141928095Y-116757380D01*
X141966190Y-116909761D01*
X141966190Y-117024047D01*
X141928095Y-117176428D01*
X141890000Y-117252619D01*
X141813809Y-117328809D01*
X141699523Y-117366904D01*
X141509047Y-117366904D01*
X142309047Y-117366904D02*
X142309047Y-116566904D01*
X142842380Y-116566904D02*
X142994761Y-116566904D01*
X143070952Y-116605000D01*
X143147142Y-116681190D01*
X143185238Y-116833571D01*
X143185238Y-117100238D01*
X143147142Y-117252619D01*
X143070952Y-117328809D01*
X142994761Y-117366904D01*
X142842380Y-117366904D01*
X142766190Y-117328809D01*
X142690000Y-117252619D01*
X142651904Y-117100238D01*
X142651904Y-116833571D01*
X142690000Y-116681190D01*
X142766190Y-116605000D01*
X142842380Y-116566904D01*
X128380476Y-117328809D02*
X128494761Y-117366904D01*
X128685238Y-117366904D01*
X128761428Y-117328809D01*
X128799523Y-117290714D01*
X128837619Y-117214523D01*
X128837619Y-117138333D01*
X128799523Y-117062142D01*
X128761428Y-117024047D01*
X128685238Y-116985952D01*
X128532857Y-116947857D01*
X128456666Y-116909761D01*
X128418571Y-116871666D01*
X128380476Y-116795476D01*
X128380476Y-116719285D01*
X128418571Y-116643095D01*
X128456666Y-116605000D01*
X128532857Y-116566904D01*
X128723333Y-116566904D01*
X128837619Y-116605000D01*
X129104285Y-116566904D02*
X129294761Y-117366904D01*
X129447142Y-116795476D01*
X129599523Y-117366904D01*
X129790000Y-116566904D01*
X130551904Y-117290714D02*
X130513809Y-117328809D01*
X130399523Y-117366904D01*
X130323333Y-117366904D01*
X130209047Y-117328809D01*
X130132857Y-117252619D01*
X130094761Y-117176428D01*
X130056666Y-117024047D01*
X130056666Y-116909761D01*
X130094761Y-116757380D01*
X130132857Y-116681190D01*
X130209047Y-116605000D01*
X130323333Y-116566904D01*
X130399523Y-116566904D01*
X130513809Y-116605000D01*
X130551904Y-116643095D01*
X131275714Y-117366904D02*
X130894761Y-117366904D01*
X130894761Y-116566904D01*
X131542380Y-117366904D02*
X131542380Y-116566904D01*
X131999523Y-117366904D02*
X131656666Y-116909761D01*
X131999523Y-116566904D02*
X131542380Y-117024047D01*
X148041597Y-85545964D02*
X148310971Y-85276590D01*
X148149346Y-85761463D02*
X147772223Y-85007216D01*
X148526470Y-85384340D01*
X148472595Y-84360719D02*
X148391783Y-84387656D01*
X148310971Y-84468468D01*
X148257096Y-84576218D01*
X148257096Y-84683967D01*
X148284033Y-84764780D01*
X148364845Y-84899467D01*
X148445658Y-84980279D01*
X148580345Y-85061091D01*
X148661157Y-85088028D01*
X148768906Y-85088028D01*
X148876656Y-85034154D01*
X148930531Y-84980279D01*
X148984406Y-84872529D01*
X148984406Y-84818654D01*
X148795844Y-84630093D01*
X148688094Y-84737842D01*
X149280717Y-84630093D02*
X148715032Y-84064407D01*
X149603966Y-84306844D01*
X149038280Y-83741158D01*
X149873340Y-84037470D02*
X149307654Y-83471784D01*
X149442341Y-83337097D01*
X149550091Y-83283223D01*
X149657841Y-83283223D01*
X149738653Y-83310160D01*
X149873340Y-83390972D01*
X149954152Y-83471784D01*
X150034964Y-83606471D01*
X150061902Y-83687284D01*
X150061902Y-83795033D01*
X150008027Y-83902783D01*
X149873340Y-84037470D01*
X147976158Y-71903155D02*
X147895346Y-71930093D01*
X147814534Y-72010905D01*
X147760659Y-72118654D01*
X147760659Y-72226404D01*
X147787597Y-72307216D01*
X147868409Y-72441903D01*
X147949221Y-72522715D01*
X148083908Y-72603528D01*
X148164720Y-72630465D01*
X148272470Y-72630465D01*
X148380219Y-72576590D01*
X148434094Y-72522715D01*
X148487969Y-72414966D01*
X148487969Y-72361091D01*
X148299407Y-72172529D01*
X148191658Y-72280279D01*
X148784280Y-72172529D02*
X148218595Y-71606844D01*
X149107529Y-71849280D01*
X148541844Y-71283595D01*
X149376903Y-71579906D02*
X148811218Y-71014221D01*
X148945905Y-70879534D01*
X149053654Y-70825659D01*
X149161404Y-70825659D01*
X149242216Y-70852597D01*
X149376903Y-70933409D01*
X149457715Y-71014221D01*
X149538528Y-71148908D01*
X149565465Y-71229720D01*
X149565465Y-71337470D01*
X149511590Y-71445219D01*
X149376903Y-71579906D01*
X147976158Y-97303155D02*
X147895346Y-97330093D01*
X147814534Y-97410905D01*
X147760659Y-97518654D01*
X147760659Y-97626404D01*
X147787597Y-97707216D01*
X147868409Y-97841903D01*
X147949221Y-97922715D01*
X148083908Y-98003528D01*
X148164720Y-98030465D01*
X148272470Y-98030465D01*
X148380219Y-97976590D01*
X148434094Y-97922715D01*
X148487969Y-97814966D01*
X148487969Y-97761091D01*
X148299407Y-97572529D01*
X148191658Y-97680279D01*
X148784280Y-97572529D02*
X148218595Y-97006844D01*
X149107529Y-97249280D01*
X148541844Y-96683595D01*
X149376903Y-96979906D02*
X148811218Y-96414221D01*
X148945905Y-96279534D01*
X149053654Y-96225659D01*
X149161404Y-96225659D01*
X149242216Y-96252597D01*
X149376903Y-96333409D01*
X149457715Y-96414221D01*
X149538528Y-96548908D01*
X149565465Y-96629720D01*
X149565465Y-96737470D01*
X149511590Y-96845219D01*
X149376903Y-96979906D01*
X147976158Y-110003155D02*
X147895346Y-110030093D01*
X147814534Y-110110905D01*
X147760659Y-110218654D01*
X147760659Y-110326404D01*
X147787597Y-110407216D01*
X147868409Y-110541903D01*
X147949221Y-110622715D01*
X148083908Y-110703528D01*
X148164720Y-110730465D01*
X148272470Y-110730465D01*
X148380219Y-110676590D01*
X148434094Y-110622715D01*
X148487969Y-110514966D01*
X148487969Y-110461091D01*
X148299407Y-110272529D01*
X148191658Y-110380279D01*
X148784280Y-110272529D02*
X148218595Y-109706844D01*
X149107529Y-109949280D01*
X148541844Y-109383595D01*
X149376903Y-109679906D02*
X148811218Y-109114221D01*
X148945905Y-108979534D01*
X149053654Y-108925659D01*
X149161404Y-108925659D01*
X149242216Y-108952597D01*
X149376903Y-109033409D01*
X149457715Y-109114221D01*
X149538528Y-109248908D01*
X149565465Y-109329720D01*
X149565465Y-109437470D01*
X149511590Y-109545219D01*
X149376903Y-109679906D01*
X122376158Y-110003155D02*
X122295346Y-110030093D01*
X122214534Y-110110905D01*
X122160659Y-110218654D01*
X122160659Y-110326404D01*
X122187597Y-110407216D01*
X122268409Y-110541903D01*
X122349221Y-110622715D01*
X122483908Y-110703528D01*
X122564720Y-110730465D01*
X122672470Y-110730465D01*
X122780219Y-110676590D01*
X122834094Y-110622715D01*
X122887969Y-110514966D01*
X122887969Y-110461091D01*
X122699407Y-110272529D01*
X122591658Y-110380279D01*
X123184280Y-110272529D02*
X122618595Y-109706844D01*
X123507529Y-109949280D01*
X122941844Y-109383595D01*
X123776903Y-109679906D02*
X123211218Y-109114221D01*
X123345905Y-108979534D01*
X123453654Y-108925659D01*
X123561404Y-108925659D01*
X123642216Y-108952597D01*
X123776903Y-109033409D01*
X123857715Y-109114221D01*
X123938528Y-109248908D01*
X123965465Y-109329720D01*
X123965465Y-109437470D01*
X123911590Y-109545219D01*
X123776903Y-109679906D01*
X122376158Y-97303155D02*
X122295346Y-97330093D01*
X122214534Y-97410905D01*
X122160659Y-97518654D01*
X122160659Y-97626404D01*
X122187597Y-97707216D01*
X122268409Y-97841903D01*
X122349221Y-97922715D01*
X122483908Y-98003528D01*
X122564720Y-98030465D01*
X122672470Y-98030465D01*
X122780219Y-97976590D01*
X122834094Y-97922715D01*
X122887969Y-97814966D01*
X122887969Y-97761091D01*
X122699407Y-97572529D01*
X122591658Y-97680279D01*
X123184280Y-97572529D02*
X122618595Y-97006844D01*
X123507529Y-97249280D01*
X122941844Y-96683595D01*
X123776903Y-96979906D02*
X123211218Y-96414221D01*
X123345905Y-96279534D01*
X123453654Y-96225659D01*
X123561404Y-96225659D01*
X123642216Y-96252597D01*
X123776903Y-96333409D01*
X123857715Y-96414221D01*
X123938528Y-96548908D01*
X123965465Y-96629720D01*
X123965465Y-96737470D01*
X123911590Y-96845219D01*
X123776903Y-96979906D01*
X122376158Y-84603155D02*
X122295346Y-84630093D01*
X122214534Y-84710905D01*
X122160659Y-84818654D01*
X122160659Y-84926404D01*
X122187597Y-85007216D01*
X122268409Y-85141903D01*
X122349221Y-85222715D01*
X122483908Y-85303528D01*
X122564720Y-85330465D01*
X122672470Y-85330465D01*
X122780219Y-85276590D01*
X122834094Y-85222715D01*
X122887969Y-85114966D01*
X122887969Y-85061091D01*
X122699407Y-84872529D01*
X122591658Y-84980279D01*
X123184280Y-84872529D02*
X122618595Y-84306844D01*
X123507529Y-84549280D01*
X122941844Y-83983595D01*
X123776903Y-84279906D02*
X123211218Y-83714221D01*
X123345905Y-83579534D01*
X123453654Y-83525659D01*
X123561404Y-83525659D01*
X123642216Y-83552597D01*
X123776903Y-83633409D01*
X123857715Y-83714221D01*
X123938528Y-83848908D01*
X123965465Y-83929720D01*
X123965465Y-84037470D01*
X123911590Y-84145219D01*
X123776903Y-84279906D01*
X122376158Y-71903155D02*
X122295346Y-71930093D01*
X122214534Y-72010905D01*
X122160659Y-72118654D01*
X122160659Y-72226404D01*
X122187597Y-72307216D01*
X122268409Y-72441903D01*
X122349221Y-72522715D01*
X122483908Y-72603528D01*
X122564720Y-72630465D01*
X122672470Y-72630465D01*
X122780219Y-72576590D01*
X122834094Y-72522715D01*
X122887969Y-72414966D01*
X122887969Y-72361091D01*
X122699407Y-72172529D01*
X122591658Y-72280279D01*
X123184280Y-72172529D02*
X122618595Y-71606844D01*
X123507529Y-71849280D01*
X122941844Y-71283595D01*
X123776903Y-71579906D02*
X123211218Y-71014221D01*
X123345905Y-70879534D01*
X123453654Y-70825659D01*
X123561404Y-70825659D01*
X123642216Y-70852597D01*
X123776903Y-70933409D01*
X123857715Y-71014221D01*
X123938528Y-71148908D01*
X123965465Y-71229720D01*
X123965465Y-71337470D01*
X123911590Y-71445219D01*
X123776903Y-71579906D01*
X147843129Y-67332309D02*
X148597377Y-67709433D01*
X148220253Y-66955186D01*
X148866751Y-66847436D02*
X148974500Y-66793561D01*
X149028375Y-66793561D01*
X149109187Y-66820499D01*
X149190000Y-66901311D01*
X149216937Y-66982123D01*
X149216937Y-67035998D01*
X149190000Y-67116810D01*
X148974500Y-67332309D01*
X148408815Y-66766624D01*
X148597377Y-66578062D01*
X148678189Y-66551125D01*
X148732064Y-66551125D01*
X148812876Y-66578062D01*
X148866751Y-66631937D01*
X148893688Y-66712749D01*
X148893688Y-66766624D01*
X148866751Y-66847436D01*
X148678189Y-67035998D01*
X148974500Y-66200938D02*
X149432436Y-66658874D01*
X149513248Y-66685812D01*
X149567123Y-66685812D01*
X149647935Y-66658874D01*
X149755685Y-66551125D01*
X149782622Y-66470312D01*
X149782622Y-66416438D01*
X149755685Y-66335625D01*
X149297749Y-65877690D01*
X150078934Y-66174001D02*
X150186683Y-66120126D01*
X150321370Y-65985439D01*
X150348308Y-65904627D01*
X150348308Y-65850752D01*
X150321370Y-65769940D01*
X150267496Y-65716065D01*
X150186683Y-65689128D01*
X150132809Y-65689128D01*
X150051996Y-65716065D01*
X149917309Y-65796877D01*
X149836497Y-65823815D01*
X149782622Y-65823815D01*
X149701810Y-65796877D01*
X149647935Y-65743003D01*
X149620998Y-65662190D01*
X149620998Y-65608316D01*
X149647935Y-65527503D01*
X149782622Y-65392816D01*
X149890372Y-65338942D01*
X147810473Y-69874966D02*
X148564720Y-70252089D01*
X148187597Y-69497842D01*
X148887969Y-69874966D02*
X148995719Y-69821091D01*
X149130406Y-69686404D01*
X149157343Y-69605592D01*
X149157343Y-69551717D01*
X149130406Y-69470905D01*
X149076531Y-69417030D01*
X148995719Y-69390093D01*
X148941844Y-69390093D01*
X148861032Y-69417030D01*
X148726345Y-69497842D01*
X148645532Y-69524780D01*
X148591658Y-69524780D01*
X148510845Y-69497842D01*
X148456971Y-69443967D01*
X148430033Y-69363155D01*
X148430033Y-69309280D01*
X148456971Y-69228468D01*
X148591658Y-69093781D01*
X148699407Y-69039906D01*
X149318967Y-68959094D02*
X149588341Y-69228468D01*
X148834094Y-68851345D02*
X149318967Y-68959094D01*
X149211218Y-68474221D01*
X149911590Y-68851345D02*
X150019340Y-68797470D01*
X150154027Y-68662783D01*
X150180964Y-68581971D01*
X150180964Y-68528096D01*
X150154027Y-68447284D01*
X150100152Y-68393409D01*
X150019340Y-68366471D01*
X149965465Y-68366471D01*
X149884653Y-68393409D01*
X149749966Y-68474221D01*
X149669154Y-68501158D01*
X149615279Y-68501158D01*
X149534467Y-68474221D01*
X149480592Y-68420346D01*
X149453654Y-68339534D01*
X149453654Y-68285659D01*
X149480592Y-68204847D01*
X149615279Y-68070160D01*
X149723028Y-68016285D01*
X147812131Y-74763308D02*
X148162317Y-74413122D01*
X148189255Y-74817183D01*
X148270067Y-74736370D01*
X148350879Y-74709433D01*
X148404754Y-74709433D01*
X148485566Y-74736370D01*
X148620253Y-74871057D01*
X148647190Y-74951870D01*
X148647190Y-75005744D01*
X148620253Y-75086557D01*
X148458629Y-75248181D01*
X148377816Y-75275118D01*
X148323942Y-75275118D01*
X148323942Y-74251497D02*
X149078189Y-74628621D01*
X148701065Y-73874374D01*
X148835752Y-73739687D02*
X149185938Y-73389500D01*
X149212876Y-73793561D01*
X149293688Y-73712749D01*
X149374500Y-73685812D01*
X149428375Y-73685812D01*
X149509187Y-73712749D01*
X149643874Y-73847436D01*
X149670812Y-73928248D01*
X149670812Y-73982123D01*
X149643874Y-74062935D01*
X149482250Y-74224560D01*
X149401438Y-74251497D01*
X149347563Y-74251497D01*
X149913248Y-73901311D02*
X150344247Y-73470312D01*
X150128748Y-72985439D02*
X150317309Y-72796877D01*
X150694433Y-73012377D02*
X150425059Y-73281751D01*
X149859374Y-72716065D01*
X150128748Y-72446691D01*
X150936870Y-72769940D02*
X150371184Y-72204255D01*
X151260118Y-72446691D01*
X150694433Y-71881006D01*
X147779847Y-77295592D02*
X148130033Y-76945406D01*
X148156971Y-77349467D01*
X148237783Y-77268654D01*
X148318595Y-77241717D01*
X148372470Y-77241717D01*
X148453282Y-77268654D01*
X148587969Y-77403341D01*
X148614906Y-77484154D01*
X148614906Y-77538028D01*
X148587969Y-77618841D01*
X148426345Y-77780465D01*
X148345532Y-77807402D01*
X148291658Y-77807402D01*
X148291658Y-76783781D02*
X149045905Y-77160905D01*
X148668781Y-76406658D01*
X148803468Y-76271971D02*
X149153654Y-75921784D01*
X149180592Y-76325845D01*
X149261404Y-76245033D01*
X149342216Y-76218096D01*
X149396091Y-76218096D01*
X149476903Y-76245033D01*
X149611590Y-76379720D01*
X149638528Y-76460532D01*
X149638528Y-76514407D01*
X149611590Y-76595219D01*
X149449966Y-76756844D01*
X149369154Y-76783781D01*
X149315279Y-76783781D01*
X148044788Y-80338773D02*
X148314162Y-80069399D01*
X148152537Y-80554272D02*
X147775414Y-79800025D01*
X148529661Y-80177149D01*
X148718223Y-79988587D02*
X148152537Y-79422902D01*
X148287224Y-79288215D01*
X148394974Y-79234340D01*
X148502723Y-79234340D01*
X148583536Y-79261277D01*
X148718223Y-79342089D01*
X148799035Y-79422902D01*
X148879847Y-79557589D01*
X148906784Y-79638401D01*
X148906784Y-79746150D01*
X148852910Y-79853900D01*
X148718223Y-79988587D01*
X149553282Y-79045778D02*
X149553282Y-79099653D01*
X149499407Y-79207402D01*
X149445532Y-79261277D01*
X149337783Y-79315152D01*
X149230033Y-79315152D01*
X149149221Y-79288215D01*
X149014534Y-79207402D01*
X148933722Y-79126590D01*
X148852910Y-78991903D01*
X148825972Y-78911091D01*
X148825972Y-78803341D01*
X148879847Y-78695592D01*
X148933722Y-78641717D01*
X149041471Y-78587842D01*
X149095346Y-78587842D01*
X149768781Y-79045778D02*
X150199780Y-78614780D01*
X149634094Y-77941345D02*
X150388341Y-78318468D01*
X150011218Y-77564221D01*
X151088714Y-77618096D02*
X150630778Y-77537284D01*
X150765465Y-77941345D02*
X150199780Y-77375659D01*
X150415279Y-77160160D01*
X150496091Y-77133223D01*
X150549966Y-77133223D01*
X150630778Y-77160160D01*
X150711590Y-77240972D01*
X150738528Y-77321784D01*
X150738528Y-77375659D01*
X150711590Y-77456471D01*
X150496091Y-77671971D01*
X151034839Y-77079348D02*
X151223401Y-76890786D01*
X151600524Y-77106285D02*
X151331150Y-77375659D01*
X150765465Y-76809974D01*
X151034839Y-76540600D01*
X151735211Y-76378975D02*
X151546650Y-76567537D01*
X151842961Y-76863849D02*
X151277276Y-76298163D01*
X151546650Y-76028789D01*
X147987722Y-82051592D02*
X147906910Y-82078529D01*
X147826097Y-82159341D01*
X147772223Y-82267091D01*
X147772223Y-82374841D01*
X147799160Y-82455653D01*
X147879972Y-82590340D01*
X147960784Y-82671152D01*
X148095471Y-82751964D01*
X148176284Y-82778902D01*
X148284033Y-82778902D01*
X148391783Y-82725027D01*
X148445658Y-82671152D01*
X148499532Y-82563402D01*
X148499532Y-82509528D01*
X148310971Y-82320966D01*
X148203221Y-82428715D01*
X148795844Y-82320966D02*
X148230158Y-81755280D01*
X148445658Y-81539781D01*
X148526470Y-81512844D01*
X148580345Y-81512844D01*
X148661157Y-81539781D01*
X148741969Y-81620593D01*
X148768906Y-81701406D01*
X148768906Y-81755280D01*
X148741969Y-81836093D01*
X148526470Y-82051592D01*
X148822781Y-81270407D02*
X148822781Y-81216532D01*
X148849719Y-81135720D01*
X148984406Y-81001033D01*
X149065218Y-80974096D01*
X149119093Y-80974096D01*
X149199905Y-81001033D01*
X149253780Y-81054908D01*
X149307654Y-81162658D01*
X149307654Y-81809155D01*
X149657841Y-81458969D01*
X149657841Y-80812471D02*
X149577028Y-80839409D01*
X149523154Y-80839409D01*
X149442341Y-80812471D01*
X149415404Y-80785534D01*
X149388467Y-80704722D01*
X149388467Y-80650847D01*
X149415404Y-80570035D01*
X149523154Y-80462285D01*
X149603966Y-80435348D01*
X149657841Y-80435348D01*
X149738653Y-80462285D01*
X149765590Y-80489223D01*
X149792528Y-80570035D01*
X149792528Y-80623910D01*
X149765590Y-80704722D01*
X149657841Y-80812471D01*
X149630903Y-80893284D01*
X149630903Y-80947158D01*
X149657841Y-81027971D01*
X149765590Y-81135720D01*
X149846402Y-81162658D01*
X149900277Y-81162658D01*
X149981089Y-81135720D01*
X150088839Y-81027971D01*
X150115776Y-80947158D01*
X150115776Y-80893284D01*
X150088839Y-80812471D01*
X149981089Y-80704722D01*
X149900277Y-80677784D01*
X149846402Y-80677784D01*
X149765590Y-80704722D01*
X147987722Y-87395592D02*
X147906910Y-87422529D01*
X147826097Y-87503341D01*
X147772223Y-87611091D01*
X147772223Y-87718841D01*
X147799160Y-87799653D01*
X147879972Y-87934340D01*
X147960784Y-88015152D01*
X148095471Y-88095964D01*
X148176284Y-88122902D01*
X148284033Y-88122902D01*
X148391783Y-88069027D01*
X148445658Y-88015152D01*
X148499532Y-87907402D01*
X148499532Y-87853528D01*
X148310971Y-87664966D01*
X148203221Y-87772715D01*
X148795844Y-87664966D02*
X148230158Y-87099280D01*
X148445658Y-86883781D01*
X148526470Y-86856844D01*
X148580345Y-86856844D01*
X148661157Y-86883781D01*
X148741969Y-86964593D01*
X148768906Y-87045406D01*
X148768906Y-87099280D01*
X148741969Y-87180093D01*
X148526470Y-87395592D01*
X148822781Y-86614407D02*
X148822781Y-86560532D01*
X148849719Y-86479720D01*
X148984406Y-86345033D01*
X149065218Y-86318096D01*
X149119093Y-86318096D01*
X149199905Y-86345033D01*
X149253780Y-86398908D01*
X149307654Y-86506658D01*
X149307654Y-87153155D01*
X149657841Y-86802969D01*
X149280717Y-86048722D02*
X149657841Y-85671598D01*
X149981089Y-86479720D01*
X147987722Y-89925592D02*
X147906910Y-89952529D01*
X147826097Y-90033341D01*
X147772223Y-90141091D01*
X147772223Y-90248841D01*
X147799160Y-90329653D01*
X147879972Y-90464340D01*
X147960784Y-90545152D01*
X148095471Y-90625964D01*
X148176284Y-90652902D01*
X148284033Y-90652902D01*
X148391783Y-90599027D01*
X148445658Y-90545152D01*
X148499532Y-90437402D01*
X148499532Y-90383528D01*
X148310971Y-90194966D01*
X148203221Y-90302715D01*
X148795844Y-90194966D02*
X148230158Y-89629280D01*
X148445658Y-89413781D01*
X148526470Y-89386844D01*
X148580345Y-89386844D01*
X148661157Y-89413781D01*
X148741969Y-89494593D01*
X148768906Y-89575406D01*
X148768906Y-89629280D01*
X148741969Y-89710093D01*
X148526470Y-89925592D01*
X148822781Y-89144407D02*
X148822781Y-89090532D01*
X148849719Y-89009720D01*
X148984406Y-88875033D01*
X149065218Y-88848096D01*
X149119093Y-88848096D01*
X149199905Y-88875033D01*
X149253780Y-88928908D01*
X149307654Y-89036658D01*
X149307654Y-89683155D01*
X149657841Y-89332969D01*
X149577028Y-88282410D02*
X149469279Y-88390160D01*
X149442341Y-88470972D01*
X149442341Y-88524847D01*
X149469279Y-88659534D01*
X149550091Y-88794221D01*
X149765590Y-89009720D01*
X149846402Y-89036658D01*
X149900277Y-89036658D01*
X149981089Y-89009720D01*
X150088839Y-88901971D01*
X150115776Y-88821158D01*
X150115776Y-88767284D01*
X150088839Y-88686471D01*
X149954152Y-88551784D01*
X149873340Y-88524847D01*
X149819465Y-88524847D01*
X149738653Y-88551784D01*
X149630903Y-88659534D01*
X149603966Y-88740346D01*
X149603966Y-88794221D01*
X149630903Y-88875033D01*
X148728375Y-92748435D02*
X148270439Y-92667622D01*
X148405126Y-93071683D02*
X147839441Y-92505998D01*
X148054940Y-92290499D01*
X148135752Y-92263561D01*
X148189627Y-92263561D01*
X148270439Y-92290499D01*
X148351251Y-92371311D01*
X148378189Y-92452123D01*
X148378189Y-92505998D01*
X148351251Y-92586810D01*
X148135752Y-92802309D01*
X148405126Y-91940312D02*
X148863062Y-92398248D01*
X148943874Y-92425186D01*
X148997749Y-92425186D01*
X149078561Y-92398248D01*
X149186311Y-92290499D01*
X149213248Y-92209687D01*
X149213248Y-92155812D01*
X149186311Y-92074999D01*
X148728375Y-91617064D01*
X149563435Y-91913375D02*
X148997749Y-91347690D01*
X149886683Y-91590126D01*
X149320998Y-91024441D01*
X147987722Y-95005592D02*
X147906910Y-95032529D01*
X147826097Y-95113341D01*
X147772223Y-95221091D01*
X147772223Y-95328841D01*
X147799160Y-95409653D01*
X147879972Y-95544340D01*
X147960784Y-95625152D01*
X148095471Y-95705964D01*
X148176284Y-95732902D01*
X148284033Y-95732902D01*
X148391783Y-95679027D01*
X148445658Y-95625152D01*
X148499532Y-95517402D01*
X148499532Y-95463528D01*
X148310971Y-95274966D01*
X148203221Y-95382715D01*
X148795844Y-95274966D02*
X148230158Y-94709280D01*
X148445658Y-94493781D01*
X148526470Y-94466844D01*
X148580345Y-94466844D01*
X148661157Y-94493781D01*
X148741969Y-94574593D01*
X148768906Y-94655406D01*
X148768906Y-94709280D01*
X148741969Y-94790093D01*
X148526470Y-95005592D01*
X148822781Y-94224407D02*
X148822781Y-94170532D01*
X148849719Y-94089720D01*
X148984406Y-93955033D01*
X149065218Y-93928096D01*
X149119093Y-93928096D01*
X149199905Y-93955033D01*
X149253780Y-94008908D01*
X149307654Y-94116658D01*
X149307654Y-94763155D01*
X149657841Y-94412969D01*
X149361529Y-93685659D02*
X149361529Y-93631784D01*
X149388467Y-93550972D01*
X149523154Y-93416285D01*
X149603966Y-93389348D01*
X149657841Y-93389348D01*
X149738653Y-93416285D01*
X149792528Y-93470160D01*
X149846402Y-93577910D01*
X149846402Y-94224407D01*
X150196589Y-93874221D01*
X147987722Y-100095592D02*
X147906910Y-100122529D01*
X147826097Y-100203341D01*
X147772223Y-100311091D01*
X147772223Y-100418841D01*
X147799160Y-100499653D01*
X147879972Y-100634340D01*
X147960784Y-100715152D01*
X148095471Y-100795964D01*
X148176284Y-100822902D01*
X148284033Y-100822902D01*
X148391783Y-100769027D01*
X148445658Y-100715152D01*
X148499532Y-100607402D01*
X148499532Y-100553528D01*
X148310971Y-100364966D01*
X148203221Y-100472715D01*
X148795844Y-100364966D02*
X148230158Y-99799280D01*
X148445658Y-99583781D01*
X148526470Y-99556844D01*
X148580345Y-99556844D01*
X148661157Y-99583781D01*
X148741969Y-99664593D01*
X148768906Y-99745406D01*
X148768906Y-99799280D01*
X148741969Y-99880093D01*
X148526470Y-100095592D01*
X148822781Y-99314407D02*
X148822781Y-99260532D01*
X148849719Y-99179720D01*
X148984406Y-99045033D01*
X149065218Y-99018096D01*
X149119093Y-99018096D01*
X149199905Y-99045033D01*
X149253780Y-99098908D01*
X149307654Y-99206658D01*
X149307654Y-99853155D01*
X149657841Y-99502969D01*
X150196589Y-98964221D02*
X149873340Y-99287470D01*
X150034964Y-99125845D02*
X149469279Y-98560160D01*
X149496216Y-98694847D01*
X149496216Y-98802597D01*
X149469279Y-98883409D01*
X147987722Y-102625592D02*
X147906910Y-102652529D01*
X147826097Y-102733341D01*
X147772223Y-102841091D01*
X147772223Y-102948841D01*
X147799160Y-103029653D01*
X147879972Y-103164340D01*
X147960784Y-103245152D01*
X148095471Y-103325964D01*
X148176284Y-103352902D01*
X148284033Y-103352902D01*
X148391783Y-103299027D01*
X148445658Y-103245152D01*
X148499532Y-103137402D01*
X148499532Y-103083528D01*
X148310971Y-102894966D01*
X148203221Y-103002715D01*
X148795844Y-102894966D02*
X148230158Y-102329280D01*
X148445658Y-102113781D01*
X148526470Y-102086844D01*
X148580345Y-102086844D01*
X148661157Y-102113781D01*
X148741969Y-102194593D01*
X148768906Y-102275406D01*
X148768906Y-102329280D01*
X148741969Y-102410093D01*
X148526470Y-102625592D01*
X148822781Y-101844407D02*
X148822781Y-101790532D01*
X148849719Y-101709720D01*
X148984406Y-101575033D01*
X149065218Y-101548096D01*
X149119093Y-101548096D01*
X149199905Y-101575033D01*
X149253780Y-101628908D01*
X149307654Y-101736658D01*
X149307654Y-102383155D01*
X149657841Y-102032969D01*
X149442341Y-101117097D02*
X149496216Y-101063223D01*
X149577028Y-101036285D01*
X149630903Y-101036285D01*
X149711715Y-101063223D01*
X149846402Y-101144035D01*
X149981089Y-101278722D01*
X150061902Y-101413409D01*
X150088839Y-101494221D01*
X150088839Y-101548096D01*
X150061902Y-101628908D01*
X150008027Y-101682783D01*
X149927215Y-101709720D01*
X149873340Y-101709720D01*
X149792528Y-101682783D01*
X149657841Y-101601971D01*
X149523154Y-101467284D01*
X149442341Y-101332597D01*
X149415404Y-101251784D01*
X149415404Y-101197910D01*
X149442341Y-101117097D01*
X147987722Y-105165592D02*
X147906910Y-105192529D01*
X147826097Y-105273341D01*
X147772223Y-105381091D01*
X147772223Y-105488841D01*
X147799160Y-105569653D01*
X147879972Y-105704340D01*
X147960784Y-105785152D01*
X148095471Y-105865964D01*
X148176284Y-105892902D01*
X148284033Y-105892902D01*
X148391783Y-105839027D01*
X148445658Y-105785152D01*
X148499532Y-105677402D01*
X148499532Y-105623528D01*
X148310971Y-105434966D01*
X148203221Y-105542715D01*
X148795844Y-105434966D02*
X148230158Y-104869280D01*
X148445658Y-104653781D01*
X148526470Y-104626844D01*
X148580345Y-104626844D01*
X148661157Y-104653781D01*
X148741969Y-104734593D01*
X148768906Y-104815406D01*
X148768906Y-104869280D01*
X148741969Y-104950093D01*
X148526470Y-105165592D01*
X149657841Y-104572969D02*
X149334592Y-104896218D01*
X149496216Y-104734593D02*
X148930531Y-104168908D01*
X148957468Y-104303595D01*
X148957468Y-104411345D01*
X148930531Y-104492157D01*
X149927215Y-104303595D02*
X150034964Y-104195845D01*
X150061902Y-104115033D01*
X150061902Y-104061158D01*
X150034964Y-103926471D01*
X149954152Y-103791784D01*
X149738653Y-103576285D01*
X149657841Y-103549348D01*
X149603966Y-103549348D01*
X149523154Y-103576285D01*
X149415404Y-103684035D01*
X149388467Y-103764847D01*
X149388467Y-103818722D01*
X149415404Y-103899534D01*
X149550091Y-104034221D01*
X149630903Y-104061158D01*
X149684778Y-104061158D01*
X149765590Y-104034221D01*
X149873340Y-103926471D01*
X149900277Y-103845659D01*
X149900277Y-103791784D01*
X149873340Y-103710972D01*
X147987722Y-107705592D02*
X147906910Y-107732529D01*
X147826097Y-107813341D01*
X147772223Y-107921091D01*
X147772223Y-108028841D01*
X147799160Y-108109653D01*
X147879972Y-108244340D01*
X147960784Y-108325152D01*
X148095471Y-108405964D01*
X148176284Y-108432902D01*
X148284033Y-108432902D01*
X148391783Y-108379027D01*
X148445658Y-108325152D01*
X148499532Y-108217402D01*
X148499532Y-108163528D01*
X148310971Y-107974966D01*
X148203221Y-108082715D01*
X148795844Y-107974966D02*
X148230158Y-107409280D01*
X148445658Y-107193781D01*
X148526470Y-107166844D01*
X148580345Y-107166844D01*
X148661157Y-107193781D01*
X148741969Y-107274593D01*
X148768906Y-107355406D01*
X148768906Y-107409280D01*
X148741969Y-107490093D01*
X148526470Y-107705592D01*
X149657841Y-107112969D02*
X149334592Y-107436218D01*
X149496216Y-107274593D02*
X148930531Y-106708908D01*
X148957468Y-106843595D01*
X148957468Y-106951345D01*
X148930531Y-107032157D01*
X149657841Y-106466471D02*
X149577028Y-106493409D01*
X149523154Y-106493409D01*
X149442341Y-106466471D01*
X149415404Y-106439534D01*
X149388467Y-106358722D01*
X149388467Y-106304847D01*
X149415404Y-106224035D01*
X149523154Y-106116285D01*
X149603966Y-106089348D01*
X149657841Y-106089348D01*
X149738653Y-106116285D01*
X149765590Y-106143223D01*
X149792528Y-106224035D01*
X149792528Y-106277910D01*
X149765590Y-106358722D01*
X149657841Y-106466471D01*
X149630903Y-106547284D01*
X149630903Y-106601158D01*
X149657841Y-106681971D01*
X149765590Y-106789720D01*
X149846402Y-106816658D01*
X149900277Y-106816658D01*
X149981089Y-106789720D01*
X150088839Y-106681971D01*
X150115776Y-106601158D01*
X150115776Y-106547284D01*
X150088839Y-106466471D01*
X149981089Y-106358722D01*
X149900277Y-106331784D01*
X149846402Y-106331784D01*
X149765590Y-106358722D01*
X147987722Y-112785592D02*
X147906910Y-112812529D01*
X147826097Y-112893341D01*
X147772223Y-113001091D01*
X147772223Y-113108841D01*
X147799160Y-113189653D01*
X147879972Y-113324340D01*
X147960784Y-113405152D01*
X148095471Y-113485964D01*
X148176284Y-113512902D01*
X148284033Y-113512902D01*
X148391783Y-113459027D01*
X148445658Y-113405152D01*
X148499532Y-113297402D01*
X148499532Y-113243528D01*
X148310971Y-113054966D01*
X148203221Y-113162715D01*
X148795844Y-113054966D02*
X148230158Y-112489280D01*
X148445658Y-112273781D01*
X148526470Y-112246844D01*
X148580345Y-112246844D01*
X148661157Y-112273781D01*
X148741969Y-112354593D01*
X148768906Y-112435406D01*
X148768906Y-112489280D01*
X148741969Y-112570093D01*
X148526470Y-112785592D01*
X149657841Y-112192969D02*
X149334592Y-112516218D01*
X149496216Y-112354593D02*
X148930531Y-111788908D01*
X148957468Y-111923595D01*
X148957468Y-112031345D01*
X148930531Y-112112157D01*
X149280717Y-111438722D02*
X149657841Y-111061598D01*
X149981089Y-111869720D01*
X147987722Y-115325592D02*
X147906910Y-115352529D01*
X147826097Y-115433341D01*
X147772223Y-115541091D01*
X147772223Y-115648841D01*
X147799160Y-115729653D01*
X147879972Y-115864340D01*
X147960784Y-115945152D01*
X148095471Y-116025964D01*
X148176284Y-116052902D01*
X148284033Y-116052902D01*
X148391783Y-115999027D01*
X148445658Y-115945152D01*
X148499532Y-115837402D01*
X148499532Y-115783528D01*
X148310971Y-115594966D01*
X148203221Y-115702715D01*
X148795844Y-115594966D02*
X148230158Y-115029280D01*
X148445658Y-114813781D01*
X148526470Y-114786844D01*
X148580345Y-114786844D01*
X148661157Y-114813781D01*
X148741969Y-114894593D01*
X148768906Y-114975406D01*
X148768906Y-115029280D01*
X148741969Y-115110093D01*
X148526470Y-115325592D01*
X149657841Y-114732969D02*
X149334592Y-115056218D01*
X149496216Y-114894593D02*
X148930531Y-114328908D01*
X148957468Y-114463595D01*
X148957468Y-114571345D01*
X148930531Y-114652157D01*
X149577028Y-113682410D02*
X149469279Y-113790160D01*
X149442341Y-113870972D01*
X149442341Y-113924847D01*
X149469279Y-114059534D01*
X149550091Y-114194221D01*
X149765590Y-114409720D01*
X149846402Y-114436658D01*
X149900277Y-114436658D01*
X149981089Y-114409720D01*
X150088839Y-114301971D01*
X150115776Y-114221158D01*
X150115776Y-114167284D01*
X150088839Y-114086471D01*
X149954152Y-113951784D01*
X149873340Y-113924847D01*
X149819465Y-113924847D01*
X149738653Y-113951784D01*
X149630903Y-114059534D01*
X149603966Y-114140346D01*
X149603966Y-114194221D01*
X149630903Y-114275033D01*
X121879722Y-115325592D02*
X121798910Y-115352529D01*
X121718097Y-115433341D01*
X121664223Y-115541091D01*
X121664223Y-115648841D01*
X121691160Y-115729653D01*
X121771972Y-115864340D01*
X121852784Y-115945152D01*
X121987471Y-116025964D01*
X122068284Y-116052902D01*
X122176033Y-116052902D01*
X122283783Y-115999027D01*
X122337658Y-115945152D01*
X122391532Y-115837402D01*
X122391532Y-115783528D01*
X122202971Y-115594966D01*
X122095221Y-115702715D01*
X122687844Y-115594966D02*
X122122158Y-115029280D01*
X122337658Y-114813781D01*
X122418470Y-114786844D01*
X122472345Y-114786844D01*
X122553157Y-114813781D01*
X122633969Y-114894593D01*
X122660906Y-114975406D01*
X122660906Y-115029280D01*
X122633969Y-115110093D01*
X122418470Y-115325592D01*
X123549841Y-114732969D02*
X123226592Y-115056218D01*
X123388216Y-114894593D02*
X122822531Y-114328908D01*
X122849468Y-114463595D01*
X122849468Y-114571345D01*
X122822531Y-114652157D01*
X123495966Y-113655473D02*
X123226592Y-113924847D01*
X123469028Y-114221158D01*
X123469028Y-114167284D01*
X123495966Y-114086471D01*
X123630653Y-113951784D01*
X123711465Y-113924847D01*
X123765340Y-113924847D01*
X123846152Y-113951784D01*
X123980839Y-114086471D01*
X124007776Y-114167284D01*
X124007776Y-114221158D01*
X123980839Y-114301971D01*
X123846152Y-114436658D01*
X123765340Y-114463595D01*
X123711465Y-114463595D01*
X121833722Y-112785592D02*
X121752910Y-112812529D01*
X121672097Y-112893341D01*
X121618223Y-113001091D01*
X121618223Y-113108841D01*
X121645160Y-113189653D01*
X121725972Y-113324340D01*
X121806784Y-113405152D01*
X121941471Y-113485964D01*
X122022284Y-113512902D01*
X122130033Y-113512902D01*
X122237783Y-113459027D01*
X122291658Y-113405152D01*
X122345532Y-113297402D01*
X122345532Y-113243528D01*
X122156971Y-113054966D01*
X122049221Y-113162715D01*
X122641844Y-113054966D02*
X122076158Y-112489280D01*
X122291658Y-112273781D01*
X122372470Y-112246844D01*
X122426345Y-112246844D01*
X122507157Y-112273781D01*
X122587969Y-112354593D01*
X122614906Y-112435406D01*
X122614906Y-112489280D01*
X122587969Y-112570093D01*
X122372470Y-112785592D01*
X123503841Y-112192969D02*
X123180592Y-112516218D01*
X123342216Y-112354593D02*
X122776531Y-111788908D01*
X122803468Y-111923595D01*
X122803468Y-112031345D01*
X122776531Y-112112157D01*
X123611590Y-111330972D02*
X123988714Y-111708096D01*
X123261404Y-111250160D02*
X123530778Y-111788908D01*
X123880964Y-111438722D01*
X121879722Y-107705592D02*
X121798910Y-107732529D01*
X121718097Y-107813341D01*
X121664223Y-107921091D01*
X121664223Y-108028841D01*
X121691160Y-108109653D01*
X121771972Y-108244340D01*
X121852784Y-108325152D01*
X121987471Y-108405964D01*
X122068284Y-108432902D01*
X122176033Y-108432902D01*
X122283783Y-108379027D01*
X122337658Y-108325152D01*
X122391532Y-108217402D01*
X122391532Y-108163528D01*
X122202971Y-107974966D01*
X122095221Y-108082715D01*
X122687844Y-107974966D02*
X122122158Y-107409280D01*
X122337658Y-107193781D01*
X122418470Y-107166844D01*
X122472345Y-107166844D01*
X122553157Y-107193781D01*
X122633969Y-107274593D01*
X122660906Y-107355406D01*
X122660906Y-107409280D01*
X122633969Y-107490093D01*
X122418470Y-107705592D01*
X123549841Y-107112969D02*
X123226592Y-107436218D01*
X123388216Y-107274593D02*
X122822531Y-106708908D01*
X122849468Y-106843595D01*
X122849468Y-106951345D01*
X122822531Y-107032157D01*
X123172717Y-106358722D02*
X123522903Y-106008536D01*
X123549841Y-106412597D01*
X123630653Y-106331784D01*
X123711465Y-106304847D01*
X123765340Y-106304847D01*
X123846152Y-106331784D01*
X123980839Y-106466471D01*
X124007776Y-106547284D01*
X124007776Y-106601158D01*
X123980839Y-106681971D01*
X123819215Y-106843595D01*
X123738402Y-106870532D01*
X123684528Y-106870532D01*
X121733722Y-105165592D02*
X121652910Y-105192529D01*
X121572097Y-105273341D01*
X121518223Y-105381091D01*
X121518223Y-105488841D01*
X121545160Y-105569653D01*
X121625972Y-105704340D01*
X121706784Y-105785152D01*
X121841471Y-105865964D01*
X121922284Y-105892902D01*
X122030033Y-105892902D01*
X122137783Y-105839027D01*
X122191658Y-105785152D01*
X122245532Y-105677402D01*
X122245532Y-105623528D01*
X122056971Y-105434966D01*
X121949221Y-105542715D01*
X122541844Y-105434966D02*
X121976158Y-104869280D01*
X122191658Y-104653781D01*
X122272470Y-104626844D01*
X122326345Y-104626844D01*
X122407157Y-104653781D01*
X122487969Y-104734593D01*
X122514906Y-104815406D01*
X122514906Y-104869280D01*
X122487969Y-104950093D01*
X122272470Y-105165592D01*
X123403841Y-104572969D02*
X123080592Y-104896218D01*
X123242216Y-104734593D02*
X122676531Y-104168908D01*
X122703468Y-104303595D01*
X122703468Y-104411345D01*
X122676531Y-104492157D01*
X123107529Y-103845659D02*
X123107529Y-103791784D01*
X123134467Y-103710972D01*
X123269154Y-103576285D01*
X123349966Y-103549348D01*
X123403841Y-103549348D01*
X123484653Y-103576285D01*
X123538528Y-103630160D01*
X123592402Y-103737910D01*
X123592402Y-104384407D01*
X123942589Y-104034221D01*
X121733722Y-102625592D02*
X121652910Y-102652529D01*
X121572097Y-102733341D01*
X121518223Y-102841091D01*
X121518223Y-102948841D01*
X121545160Y-103029653D01*
X121625972Y-103164340D01*
X121706784Y-103245152D01*
X121841471Y-103325964D01*
X121922284Y-103352902D01*
X122030033Y-103352902D01*
X122137783Y-103299027D01*
X122191658Y-103245152D01*
X122245532Y-103137402D01*
X122245532Y-103083528D01*
X122056971Y-102894966D01*
X121949221Y-103002715D01*
X122541844Y-102894966D02*
X121976158Y-102329280D01*
X122191658Y-102113781D01*
X122272470Y-102086844D01*
X122326345Y-102086844D01*
X122407157Y-102113781D01*
X122487969Y-102194593D01*
X122514906Y-102275406D01*
X122514906Y-102329280D01*
X122487969Y-102410093D01*
X122272470Y-102625592D01*
X123403841Y-102032969D02*
X123080592Y-102356218D01*
X123242216Y-102194593D02*
X122676531Y-101628908D01*
X122703468Y-101763595D01*
X122703468Y-101871345D01*
X122676531Y-101952157D01*
X123942589Y-101494221D02*
X123619340Y-101817470D01*
X123780964Y-101655845D02*
X123215279Y-101090160D01*
X123242216Y-101224847D01*
X123242216Y-101332597D01*
X123215279Y-101413409D01*
X121879722Y-100085592D02*
X121798910Y-100112529D01*
X121718097Y-100193341D01*
X121664223Y-100301091D01*
X121664223Y-100408841D01*
X121691160Y-100489653D01*
X121771972Y-100624340D01*
X121852784Y-100705152D01*
X121987471Y-100785964D01*
X122068284Y-100812902D01*
X122176033Y-100812902D01*
X122283783Y-100759027D01*
X122337658Y-100705152D01*
X122391532Y-100597402D01*
X122391532Y-100543528D01*
X122202971Y-100354966D01*
X122095221Y-100462715D01*
X122687844Y-100354966D02*
X122122158Y-99789280D01*
X122337658Y-99573781D01*
X122418470Y-99546844D01*
X122472345Y-99546844D01*
X122553157Y-99573781D01*
X122633969Y-99654593D01*
X122660906Y-99735406D01*
X122660906Y-99789280D01*
X122633969Y-99870093D01*
X122418470Y-100085592D01*
X123549841Y-99492969D02*
X123226592Y-99816218D01*
X123388216Y-99654593D02*
X122822531Y-99088908D01*
X122849468Y-99223595D01*
X122849468Y-99331345D01*
X122822531Y-99412157D01*
X123334341Y-98577097D02*
X123388216Y-98523223D01*
X123469028Y-98496285D01*
X123522903Y-98496285D01*
X123603715Y-98523223D01*
X123738402Y-98604035D01*
X123873089Y-98738722D01*
X123953902Y-98873409D01*
X123980839Y-98954221D01*
X123980839Y-99008096D01*
X123953902Y-99088908D01*
X123900027Y-99142783D01*
X123819215Y-99169720D01*
X123765340Y-99169720D01*
X123684528Y-99142783D01*
X123549841Y-99061971D01*
X123415154Y-98927284D01*
X123334341Y-98792597D01*
X123307404Y-98711784D01*
X123307404Y-98657910D01*
X123334341Y-98577097D01*
X122403096Y-94736218D02*
X122322284Y-94763155D01*
X122241471Y-94843967D01*
X122187597Y-94951717D01*
X122187597Y-95059467D01*
X122214534Y-95140279D01*
X122295346Y-95274966D01*
X122376158Y-95355778D01*
X122510845Y-95436590D01*
X122591658Y-95463528D01*
X122699407Y-95463528D01*
X122807157Y-95409653D01*
X122861032Y-95355778D01*
X122914906Y-95248028D01*
X122914906Y-95194154D01*
X122726345Y-95005592D01*
X122618595Y-95113341D01*
X123211218Y-95005592D02*
X122645532Y-94439906D01*
X122861032Y-94224407D01*
X122941844Y-94197470D01*
X122995719Y-94197470D01*
X123076531Y-94224407D01*
X123157343Y-94305219D01*
X123184280Y-94386032D01*
X123184280Y-94439906D01*
X123157343Y-94520719D01*
X122941844Y-94736218D01*
X123803841Y-94412969D02*
X123911590Y-94305219D01*
X123938528Y-94224407D01*
X123938528Y-94170532D01*
X123911590Y-94035845D01*
X123830778Y-93901158D01*
X123615279Y-93685659D01*
X123534467Y-93658722D01*
X123480592Y-93658722D01*
X123399780Y-93685659D01*
X123292030Y-93793409D01*
X123265093Y-93874221D01*
X123265093Y-93928096D01*
X123292030Y-94008908D01*
X123426717Y-94143595D01*
X123507529Y-94170532D01*
X123561404Y-94170532D01*
X123642216Y-94143595D01*
X123749966Y-94035845D01*
X123776903Y-93955033D01*
X123776903Y-93901158D01*
X123749966Y-93820346D01*
X122403096Y-92196218D02*
X122322284Y-92223155D01*
X122241471Y-92303967D01*
X122187597Y-92411717D01*
X122187597Y-92519467D01*
X122214534Y-92600279D01*
X122295346Y-92734966D01*
X122376158Y-92815778D01*
X122510845Y-92896590D01*
X122591658Y-92923528D01*
X122699407Y-92923528D01*
X122807157Y-92869653D01*
X122861032Y-92815778D01*
X122914906Y-92708028D01*
X122914906Y-92654154D01*
X122726345Y-92465592D01*
X122618595Y-92573341D01*
X123211218Y-92465592D02*
X122645532Y-91899906D01*
X122861032Y-91684407D01*
X122941844Y-91657470D01*
X122995719Y-91657470D01*
X123076531Y-91684407D01*
X123157343Y-91765219D01*
X123184280Y-91846032D01*
X123184280Y-91899906D01*
X123157343Y-91980719D01*
X122941844Y-92196218D01*
X123534467Y-91495845D02*
X123453654Y-91522783D01*
X123399780Y-91522783D01*
X123318967Y-91495845D01*
X123292030Y-91468908D01*
X123265093Y-91388096D01*
X123265093Y-91334221D01*
X123292030Y-91253409D01*
X123399780Y-91145659D01*
X123480592Y-91118722D01*
X123534467Y-91118722D01*
X123615279Y-91145659D01*
X123642216Y-91172597D01*
X123669154Y-91253409D01*
X123669154Y-91307284D01*
X123642216Y-91388096D01*
X123534467Y-91495845D01*
X123507529Y-91576658D01*
X123507529Y-91630532D01*
X123534467Y-91711345D01*
X123642216Y-91819094D01*
X123723028Y-91846032D01*
X123776903Y-91846032D01*
X123857715Y-91819094D01*
X123965465Y-91711345D01*
X123992402Y-91630532D01*
X123992402Y-91576658D01*
X123965465Y-91495845D01*
X123857715Y-91388096D01*
X123776903Y-91361158D01*
X123723028Y-91361158D01*
X123642216Y-91388096D01*
X122503096Y-89626218D02*
X122422284Y-89653155D01*
X122341471Y-89733967D01*
X122287597Y-89841717D01*
X122287597Y-89949467D01*
X122314534Y-90030279D01*
X122395346Y-90164966D01*
X122476158Y-90245778D01*
X122610845Y-90326590D01*
X122691658Y-90353528D01*
X122799407Y-90353528D01*
X122907157Y-90299653D01*
X122961032Y-90245778D01*
X123014906Y-90138028D01*
X123014906Y-90084154D01*
X122826345Y-89895592D01*
X122718595Y-90003341D01*
X123311218Y-89895592D02*
X122745532Y-89329906D01*
X122961032Y-89114407D01*
X123041844Y-89087470D01*
X123095719Y-89087470D01*
X123176531Y-89114407D01*
X123257343Y-89195219D01*
X123284280Y-89276032D01*
X123284280Y-89329906D01*
X123257343Y-89410719D01*
X123041844Y-89626218D01*
X123257343Y-88818096D02*
X123634467Y-88440972D01*
X123957715Y-89249094D01*
X122403096Y-87116218D02*
X122322284Y-87143155D01*
X122241471Y-87223967D01*
X122187597Y-87331717D01*
X122187597Y-87439467D01*
X122214534Y-87520279D01*
X122295346Y-87654966D01*
X122376158Y-87735778D01*
X122510845Y-87816590D01*
X122591658Y-87843528D01*
X122699407Y-87843528D01*
X122807157Y-87789653D01*
X122861032Y-87735778D01*
X122914906Y-87628028D01*
X122914906Y-87574154D01*
X122726345Y-87385592D01*
X122618595Y-87493341D01*
X123211218Y-87385592D02*
X122645532Y-86819906D01*
X122861032Y-86604407D01*
X122941844Y-86577470D01*
X122995719Y-86577470D01*
X123076531Y-86604407D01*
X123157343Y-86685219D01*
X123184280Y-86766032D01*
X123184280Y-86819906D01*
X123157343Y-86900719D01*
X122941844Y-87116218D01*
X123453654Y-86011784D02*
X123345905Y-86119534D01*
X123318967Y-86200346D01*
X123318967Y-86254221D01*
X123345905Y-86388908D01*
X123426717Y-86523595D01*
X123642216Y-86739094D01*
X123723028Y-86766032D01*
X123776903Y-86766032D01*
X123857715Y-86739094D01*
X123965465Y-86631345D01*
X123992402Y-86550532D01*
X123992402Y-86496658D01*
X123965465Y-86415845D01*
X123830778Y-86281158D01*
X123749966Y-86254221D01*
X123696091Y-86254221D01*
X123615279Y-86281158D01*
X123507529Y-86388908D01*
X123480592Y-86469720D01*
X123480592Y-86523595D01*
X123507529Y-86604407D01*
X122403096Y-82036218D02*
X122322284Y-82063155D01*
X122241471Y-82143967D01*
X122187597Y-82251717D01*
X122187597Y-82359467D01*
X122214534Y-82440279D01*
X122295346Y-82574966D01*
X122376158Y-82655778D01*
X122510845Y-82736590D01*
X122591658Y-82763528D01*
X122699407Y-82763528D01*
X122807157Y-82709653D01*
X122861032Y-82655778D01*
X122914906Y-82548028D01*
X122914906Y-82494154D01*
X122726345Y-82305592D01*
X122618595Y-82413341D01*
X123211218Y-82305592D02*
X122645532Y-81739906D01*
X122861032Y-81524407D01*
X122941844Y-81497470D01*
X122995719Y-81497470D01*
X123076531Y-81524407D01*
X123157343Y-81605219D01*
X123184280Y-81686032D01*
X123184280Y-81739906D01*
X123157343Y-81820719D01*
X122941844Y-82036218D01*
X123480592Y-80904847D02*
X123211218Y-81174221D01*
X123453654Y-81470532D01*
X123453654Y-81416658D01*
X123480592Y-81335845D01*
X123615279Y-81201158D01*
X123696091Y-81174221D01*
X123749966Y-81174221D01*
X123830778Y-81201158D01*
X123965465Y-81335845D01*
X123992402Y-81416658D01*
X123992402Y-81470532D01*
X123965465Y-81551345D01*
X123830778Y-81686032D01*
X123749966Y-81712969D01*
X123696091Y-81712969D01*
X122403096Y-79496218D02*
X122322284Y-79523155D01*
X122241471Y-79603967D01*
X122187597Y-79711717D01*
X122187597Y-79819467D01*
X122214534Y-79900279D01*
X122295346Y-80034966D01*
X122376158Y-80115778D01*
X122510845Y-80196590D01*
X122591658Y-80223528D01*
X122699407Y-80223528D01*
X122807157Y-80169653D01*
X122861032Y-80115778D01*
X122914906Y-80008028D01*
X122914906Y-79954154D01*
X122726345Y-79765592D01*
X122618595Y-79873341D01*
X123211218Y-79765592D02*
X122645532Y-79199906D01*
X122861032Y-78984407D01*
X122941844Y-78957470D01*
X122995719Y-78957470D01*
X123076531Y-78984407D01*
X123157343Y-79065219D01*
X123184280Y-79146032D01*
X123184280Y-79199906D01*
X123157343Y-79280719D01*
X122941844Y-79496218D01*
X123642216Y-78580346D02*
X124019340Y-78957470D01*
X123292030Y-78499534D02*
X123561404Y-79038282D01*
X123911590Y-78688096D01*
X122403096Y-76956218D02*
X122322284Y-76983155D01*
X122241471Y-77063967D01*
X122187597Y-77171717D01*
X122187597Y-77279467D01*
X122214534Y-77360279D01*
X122295346Y-77494966D01*
X122376158Y-77575778D01*
X122510845Y-77656590D01*
X122591658Y-77683528D01*
X122699407Y-77683528D01*
X122807157Y-77629653D01*
X122861032Y-77575778D01*
X122914906Y-77468028D01*
X122914906Y-77414154D01*
X122726345Y-77225592D01*
X122618595Y-77333341D01*
X123211218Y-77225592D02*
X122645532Y-76659906D01*
X122861032Y-76444407D01*
X122941844Y-76417470D01*
X122995719Y-76417470D01*
X123076531Y-76444407D01*
X123157343Y-76525219D01*
X123184280Y-76606032D01*
X123184280Y-76659906D01*
X123157343Y-76740719D01*
X122941844Y-76956218D01*
X123157343Y-76148096D02*
X123507529Y-75797910D01*
X123534467Y-76201971D01*
X123615279Y-76121158D01*
X123696091Y-76094221D01*
X123749966Y-76094221D01*
X123830778Y-76121158D01*
X123965465Y-76255845D01*
X123992402Y-76336658D01*
X123992402Y-76390532D01*
X123965465Y-76471345D01*
X123803841Y-76632969D01*
X123723028Y-76659906D01*
X123669154Y-76659906D01*
X122403096Y-66796218D02*
X122322284Y-66823155D01*
X122241471Y-66903967D01*
X122187597Y-67011717D01*
X122187597Y-67119467D01*
X122214534Y-67200279D01*
X122295346Y-67334966D01*
X122376158Y-67415778D01*
X122510845Y-67496590D01*
X122591658Y-67523528D01*
X122699407Y-67523528D01*
X122807157Y-67469653D01*
X122861032Y-67415778D01*
X122914906Y-67308028D01*
X122914906Y-67254154D01*
X122726345Y-67065592D01*
X122618595Y-67173341D01*
X123211218Y-67065592D02*
X122645532Y-66499906D01*
X122861032Y-66284407D01*
X122941844Y-66257470D01*
X122995719Y-66257470D01*
X123076531Y-66284407D01*
X123157343Y-66365219D01*
X123184280Y-66446032D01*
X123184280Y-66499906D01*
X123157343Y-66580719D01*
X122941844Y-66796218D01*
X123318967Y-65826471D02*
X123372842Y-65772597D01*
X123453654Y-65745659D01*
X123507529Y-65745659D01*
X123588341Y-65772597D01*
X123723028Y-65853409D01*
X123857715Y-65988096D01*
X123938528Y-66122783D01*
X123965465Y-66203595D01*
X123965465Y-66257470D01*
X123938528Y-66338282D01*
X123884653Y-66392157D01*
X123803841Y-66419094D01*
X123749966Y-66419094D01*
X123669154Y-66392157D01*
X123534467Y-66311345D01*
X123399780Y-66176658D01*
X123318967Y-66041971D01*
X123292030Y-65961158D01*
X123292030Y-65907284D01*
X123318967Y-65826471D01*
X122303096Y-74416218D02*
X122222284Y-74443155D01*
X122141471Y-74523967D01*
X122087597Y-74631717D01*
X122087597Y-74739467D01*
X122114534Y-74820279D01*
X122195346Y-74954966D01*
X122276158Y-75035778D01*
X122410845Y-75116590D01*
X122491658Y-75143528D01*
X122599407Y-75143528D01*
X122707157Y-75089653D01*
X122761032Y-75035778D01*
X122814906Y-74928028D01*
X122814906Y-74874154D01*
X122626345Y-74685592D01*
X122518595Y-74793341D01*
X123111218Y-74685592D02*
X122545532Y-74119906D01*
X122761032Y-73904407D01*
X122841844Y-73877470D01*
X122895719Y-73877470D01*
X122976531Y-73904407D01*
X123057343Y-73985219D01*
X123084280Y-74066032D01*
X123084280Y-74119906D01*
X123057343Y-74200719D01*
X122841844Y-74416218D01*
X123138155Y-73635033D02*
X123138155Y-73581158D01*
X123165093Y-73500346D01*
X123299780Y-73365659D01*
X123380592Y-73338722D01*
X123434467Y-73338722D01*
X123515279Y-73365659D01*
X123569154Y-73419534D01*
X123623028Y-73527284D01*
X123623028Y-74173781D01*
X123973215Y-73823595D01*
X122303096Y-69326218D02*
X122222284Y-69353155D01*
X122141471Y-69433967D01*
X122087597Y-69541717D01*
X122087597Y-69649467D01*
X122114534Y-69730279D01*
X122195346Y-69864966D01*
X122276158Y-69945778D01*
X122410845Y-70026590D01*
X122491658Y-70053528D01*
X122599407Y-70053528D01*
X122707157Y-69999653D01*
X122761032Y-69945778D01*
X122814906Y-69838028D01*
X122814906Y-69784154D01*
X122626345Y-69595592D01*
X122518595Y-69703341D01*
X123111218Y-69595592D02*
X122545532Y-69029906D01*
X122761032Y-68814407D01*
X122841844Y-68787470D01*
X122895719Y-68787470D01*
X122976531Y-68814407D01*
X123057343Y-68895219D01*
X123084280Y-68976032D01*
X123084280Y-69029906D01*
X123057343Y-69110719D01*
X122841844Y-69326218D01*
X123973215Y-68733595D02*
X123649966Y-69056844D01*
X123811590Y-68895219D02*
X123245905Y-68329534D01*
X123272842Y-68464221D01*
X123272842Y-68571971D01*
X123245905Y-68652783D01*
X167306666Y-70782380D02*
X167306666Y-71496666D01*
X167259047Y-71639523D01*
X167163809Y-71734761D01*
X167020952Y-71782380D01*
X166925714Y-71782380D01*
X168211428Y-71115714D02*
X168211428Y-71782380D01*
X167973333Y-70734761D02*
X167735238Y-71449047D01*
X168354285Y-71449047D01*
X120481766Y-96858020D02*
X120481766Y-97572306D01*
X120434147Y-97715163D01*
X120338909Y-97810401D01*
X120196052Y-97858020D01*
X120100814Y-97858020D01*
X120862719Y-96858020D02*
X121481766Y-96858020D01*
X121148433Y-97238973D01*
X121291290Y-97238973D01*
X121386528Y-97286592D01*
X121434147Y-97334211D01*
X121481766Y-97429449D01*
X121481766Y-97667544D01*
X121434147Y-97762782D01*
X121386528Y-97810401D01*
X121291290Y-97858020D01*
X121005576Y-97858020D01*
X120910338Y-97810401D01*
X120862719Y-97762782D01*
X120316666Y-80097380D02*
X120316666Y-80811666D01*
X120269047Y-80954523D01*
X120173809Y-81049761D01*
X120030952Y-81097380D01*
X119935714Y-81097380D01*
X120745238Y-80192619D02*
X120792857Y-80145000D01*
X120888095Y-80097380D01*
X121126190Y-80097380D01*
X121221428Y-80145000D01*
X121269047Y-80192619D01*
X121316666Y-80287857D01*
X121316666Y-80383095D01*
X121269047Y-80525952D01*
X120697619Y-81097380D01*
X121316666Y-81097380D01*
X120316666Y-65492380D02*
X120316666Y-66206666D01*
X120269047Y-66349523D01*
X120173809Y-66444761D01*
X120030952Y-66492380D01*
X119935714Y-66492380D01*
X121316666Y-66492380D02*
X120745238Y-66492380D01*
X121030952Y-66492380D02*
X121030952Y-65492380D01*
X120935714Y-65635238D01*
X120840476Y-65730476D01*
X120745238Y-65778095D01*
X151756904Y-65262380D02*
X151756904Y-64262380D01*
X151995000Y-64262380D01*
X152137857Y-64310000D01*
X152233095Y-64405238D01*
X152280714Y-64500476D01*
X152328333Y-64690952D01*
X152328333Y-64833809D01*
X152280714Y-65024285D01*
X152233095Y-65119523D01*
X152137857Y-65214761D01*
X151995000Y-65262380D01*
X151756904Y-65262380D01*
X153280714Y-65262380D02*
X152709285Y-65262380D01*
X152995000Y-65262380D02*
X152995000Y-64262380D01*
X152899761Y-64405238D01*
X152804523Y-64500476D01*
X152709285Y-64548095D01*
X154773333Y-75667142D02*
X154725714Y-75714761D01*
X154582857Y-75762380D01*
X154487619Y-75762380D01*
X154344761Y-75714761D01*
X154249523Y-75619523D01*
X154201904Y-75524285D01*
X154154285Y-75333809D01*
X154154285Y-75190952D01*
X154201904Y-75000476D01*
X154249523Y-74905238D01*
X154344761Y-74810000D01*
X154487619Y-74762380D01*
X154582857Y-74762380D01*
X154725714Y-74810000D01*
X154773333Y-74857619D01*
X155630476Y-75095714D02*
X155630476Y-75762380D01*
X155392380Y-74714761D02*
X155154285Y-75429047D01*
X155773333Y-75429047D01*
X157010833Y-81382142D02*
X156963214Y-81429761D01*
X156820357Y-81477380D01*
X156725119Y-81477380D01*
X156582261Y-81429761D01*
X156487023Y-81334523D01*
X156439404Y-81239285D01*
X156391785Y-81048809D01*
X156391785Y-80905952D01*
X156439404Y-80715476D01*
X156487023Y-80620238D01*
X156582261Y-80525000D01*
X156725119Y-80477380D01*
X156820357Y-80477380D01*
X156963214Y-80525000D01*
X157010833Y-80572619D01*
X157344166Y-80477380D02*
X157963214Y-80477380D01*
X157629880Y-80858333D01*
X157772738Y-80858333D01*
X157867976Y-80905952D01*
X157915595Y-80953571D01*
X157963214Y-81048809D01*
X157963214Y-81286904D01*
X157915595Y-81382142D01*
X157867976Y-81429761D01*
X157772738Y-81477380D01*
X157487023Y-81477380D01*
X157391785Y-81429761D01*
X157344166Y-81382142D01*
X154773333Y-94717142D02*
X154725714Y-94764761D01*
X154582857Y-94812380D01*
X154487619Y-94812380D01*
X154344761Y-94764761D01*
X154249523Y-94669523D01*
X154201904Y-94574285D01*
X154154285Y-94383809D01*
X154154285Y-94240952D01*
X154201904Y-94050476D01*
X154249523Y-93955238D01*
X154344761Y-93860000D01*
X154487619Y-93812380D01*
X154582857Y-93812380D01*
X154725714Y-93860000D01*
X154773333Y-93907619D01*
X155154285Y-93907619D02*
X155201904Y-93860000D01*
X155297142Y-93812380D01*
X155535238Y-93812380D01*
X155630476Y-93860000D01*
X155678095Y-93907619D01*
X155725714Y-94002857D01*
X155725714Y-94098095D01*
X155678095Y-94240952D01*
X155106666Y-94812380D01*
X155725714Y-94812380D01*
X159853333Y-108942142D02*
X159805714Y-108989761D01*
X159662857Y-109037380D01*
X159567619Y-109037380D01*
X159424761Y-108989761D01*
X159329523Y-108894523D01*
X159281904Y-108799285D01*
X159234285Y-108608809D01*
X159234285Y-108465952D01*
X159281904Y-108275476D01*
X159329523Y-108180238D01*
X159424761Y-108085000D01*
X159567619Y-108037380D01*
X159662857Y-108037380D01*
X159805714Y-108085000D01*
X159853333Y-108132619D01*
X160805714Y-109037380D02*
X160234285Y-109037380D01*
X160520000Y-109037380D02*
X160520000Y-108037380D01*
X160424761Y-108180238D01*
X160329523Y-108275476D01*
X160234285Y-108323095D01*
X160071904Y-72747380D02*
X160071904Y-71747380D01*
X160310000Y-71747380D01*
X160452857Y-71795000D01*
X160548095Y-71890238D01*
X160595714Y-71985476D01*
X160643333Y-72175952D01*
X160643333Y-72318809D01*
X160595714Y-72509285D01*
X160548095Y-72604523D01*
X160452857Y-72699761D01*
X160310000Y-72747380D01*
X160071904Y-72747380D01*
X161024285Y-71842619D02*
X161071904Y-71795000D01*
X161167142Y-71747380D01*
X161405238Y-71747380D01*
X161500476Y-71795000D01*
X161548095Y-71842619D01*
X161595714Y-71937857D01*
X161595714Y-72033095D01*
X161548095Y-72175952D01*
X160976666Y-72747380D01*
X161595714Y-72747380D01*
%LPC*%
G36*
G01*
X164160000Y-70465000D02*
X164160000Y-64665000D01*
G75*
G02*
X164210000Y-64615000I50000J0D01*
G01*
X170610000Y-64615000D01*
G75*
G02*
X170660000Y-64665000I0J-50000D01*
G01*
X170660000Y-70465000D01*
G75*
G02*
X170610000Y-70515000I-50000J0D01*
G01*
X164210000Y-70515000D01*
G75*
G02*
X164160000Y-70465000I0J50000D01*
G01*
G37*
G36*
G01*
X159960000Y-70445000D02*
X159960000Y-69245000D01*
G75*
G02*
X160010000Y-69195000I50000J0D01*
G01*
X162210000Y-69195000D01*
G75*
G02*
X162260000Y-69245000I0J-50000D01*
G01*
X162260000Y-70445000D01*
G75*
G02*
X162210000Y-70495000I-50000J0D01*
G01*
X160010000Y-70495000D01*
G75*
G02*
X159960000Y-70445000I0J50000D01*
G01*
G37*
G36*
G01*
X159960000Y-65885000D02*
X159960000Y-64685000D01*
G75*
G02*
X160010000Y-64635000I50000J0D01*
G01*
X162210000Y-64635000D01*
G75*
G02*
X162260000Y-64685000I0J-50000D01*
G01*
X162260000Y-65885000D01*
G75*
G02*
X162210000Y-65935000I-50000J0D01*
G01*
X160010000Y-65935000D01*
G75*
G02*
X159960000Y-65885000I0J50000D01*
G01*
G37*
G36*
G01*
X157290000Y-97605000D02*
X157290000Y-97205000D01*
G75*
G02*
X157340000Y-97155000I50000J0D01*
G01*
X158340000Y-97155000D01*
G75*
G02*
X158390000Y-97205000I0J-50000D01*
G01*
X158390000Y-97605000D01*
G75*
G02*
X158340000Y-97655000I-50000J0D01*
G01*
X157340000Y-97655000D01*
G75*
G02*
X157290000Y-97605000I0J50000D01*
G01*
G37*
G36*
G01*
X157290000Y-98255000D02*
X157290000Y-97855000D01*
G75*
G02*
X157340000Y-97805000I50000J0D01*
G01*
X158340000Y-97805000D01*
G75*
G02*
X158390000Y-97855000I0J-50000D01*
G01*
X158390000Y-98255000D01*
G75*
G02*
X158340000Y-98305000I-50000J0D01*
G01*
X157340000Y-98305000D01*
G75*
G02*
X157290000Y-98255000I0J50000D01*
G01*
G37*
G36*
G01*
X157290000Y-98905000D02*
X157290000Y-98505000D01*
G75*
G02*
X157340000Y-98455000I50000J0D01*
G01*
X158340000Y-98455000D01*
G75*
G02*
X158390000Y-98505000I0J-50000D01*
G01*
X158390000Y-98905000D01*
G75*
G02*
X158340000Y-98955000I-50000J0D01*
G01*
X157340000Y-98955000D01*
G75*
G02*
X157290000Y-98905000I0J50000D01*
G01*
G37*
G36*
G01*
X157290000Y-99555000D02*
X157290000Y-99155000D01*
G75*
G02*
X157340000Y-99105000I50000J0D01*
G01*
X158340000Y-99105000D01*
G75*
G02*
X158390000Y-99155000I0J-50000D01*
G01*
X158390000Y-99555000D01*
G75*
G02*
X158340000Y-99605000I-50000J0D01*
G01*
X157340000Y-99605000D01*
G75*
G02*
X157290000Y-99555000I0J50000D01*
G01*
G37*
G36*
G01*
X157290000Y-100205000D02*
X157290000Y-99805000D01*
G75*
G02*
X157340000Y-99755000I50000J0D01*
G01*
X158340000Y-99755000D01*
G75*
G02*
X158390000Y-99805000I0J-50000D01*
G01*
X158390000Y-100205000D01*
G75*
G02*
X158340000Y-100255000I-50000J0D01*
G01*
X157340000Y-100255000D01*
G75*
G02*
X157290000Y-100205000I0J50000D01*
G01*
G37*
G36*
G01*
X157290000Y-100855000D02*
X157290000Y-100455000D01*
G75*
G02*
X157340000Y-100405000I50000J0D01*
G01*
X158340000Y-100405000D01*
G75*
G02*
X158390000Y-100455000I0J-50000D01*
G01*
X158390000Y-100855000D01*
G75*
G02*
X158340000Y-100905000I-50000J0D01*
G01*
X157340000Y-100905000D01*
G75*
G02*
X157290000Y-100855000I0J50000D01*
G01*
G37*
G36*
G01*
X157290000Y-101505000D02*
X157290000Y-101105000D01*
G75*
G02*
X157340000Y-101055000I50000J0D01*
G01*
X158340000Y-101055000D01*
G75*
G02*
X158390000Y-101105000I0J-50000D01*
G01*
X158390000Y-101505000D01*
G75*
G02*
X158340000Y-101555000I-50000J0D01*
G01*
X157340000Y-101555000D01*
G75*
G02*
X157290000Y-101505000I0J50000D01*
G01*
G37*
G36*
G01*
X157290000Y-102155000D02*
X157290000Y-101755000D01*
G75*
G02*
X157340000Y-101705000I50000J0D01*
G01*
X158340000Y-101705000D01*
G75*
G02*
X158390000Y-101755000I0J-50000D01*
G01*
X158390000Y-102155000D01*
G75*
G02*
X158340000Y-102205000I-50000J0D01*
G01*
X157340000Y-102205000D01*
G75*
G02*
X157290000Y-102155000I0J50000D01*
G01*
G37*
G36*
G01*
X157290000Y-102805000D02*
X157290000Y-102405000D01*
G75*
G02*
X157340000Y-102355000I50000J0D01*
G01*
X158340000Y-102355000D01*
G75*
G02*
X158390000Y-102405000I0J-50000D01*
G01*
X158390000Y-102805000D01*
G75*
G02*
X158340000Y-102855000I-50000J0D01*
G01*
X157340000Y-102855000D01*
G75*
G02*
X157290000Y-102805000I0J50000D01*
G01*
G37*
G36*
G01*
X157290000Y-103455000D02*
X157290000Y-103055000D01*
G75*
G02*
X157340000Y-103005000I50000J0D01*
G01*
X158340000Y-103005000D01*
G75*
G02*
X158390000Y-103055000I0J-50000D01*
G01*
X158390000Y-103455000D01*
G75*
G02*
X158340000Y-103505000I-50000J0D01*
G01*
X157340000Y-103505000D01*
G75*
G02*
X157290000Y-103455000I0J50000D01*
G01*
G37*
G36*
G01*
X151490000Y-103455000D02*
X151490000Y-103055000D01*
G75*
G02*
X151540000Y-103005000I50000J0D01*
G01*
X152540000Y-103005000D01*
G75*
G02*
X152590000Y-103055000I0J-50000D01*
G01*
X152590000Y-103455000D01*
G75*
G02*
X152540000Y-103505000I-50000J0D01*
G01*
X151540000Y-103505000D01*
G75*
G02*
X151490000Y-103455000I0J50000D01*
G01*
G37*
G36*
G01*
X151490000Y-102805000D02*
X151490000Y-102405000D01*
G75*
G02*
X151540000Y-102355000I50000J0D01*
G01*
X152540000Y-102355000D01*
G75*
G02*
X152590000Y-102405000I0J-50000D01*
G01*
X152590000Y-102805000D01*
G75*
G02*
X152540000Y-102855000I-50000J0D01*
G01*
X151540000Y-102855000D01*
G75*
G02*
X151490000Y-102805000I0J50000D01*
G01*
G37*
G36*
G01*
X151490000Y-102155000D02*
X151490000Y-101755000D01*
G75*
G02*
X151540000Y-101705000I50000J0D01*
G01*
X152540000Y-101705000D01*
G75*
G02*
X152590000Y-101755000I0J-50000D01*
G01*
X152590000Y-102155000D01*
G75*
G02*
X152540000Y-102205000I-50000J0D01*
G01*
X151540000Y-102205000D01*
G75*
G02*
X151490000Y-102155000I0J50000D01*
G01*
G37*
G36*
G01*
X151490000Y-101505000D02*
X151490000Y-101105000D01*
G75*
G02*
X151540000Y-101055000I50000J0D01*
G01*
X152540000Y-101055000D01*
G75*
G02*
X152590000Y-101105000I0J-50000D01*
G01*
X152590000Y-101505000D01*
G75*
G02*
X152540000Y-101555000I-50000J0D01*
G01*
X151540000Y-101555000D01*
G75*
G02*
X151490000Y-101505000I0J50000D01*
G01*
G37*
G36*
G01*
X151490000Y-100855000D02*
X151490000Y-100455000D01*
G75*
G02*
X151540000Y-100405000I50000J0D01*
G01*
X152540000Y-100405000D01*
G75*
G02*
X152590000Y-100455000I0J-50000D01*
G01*
X152590000Y-100855000D01*
G75*
G02*
X152540000Y-100905000I-50000J0D01*
G01*
X151540000Y-100905000D01*
G75*
G02*
X151490000Y-100855000I0J50000D01*
G01*
G37*
G36*
G01*
X151490000Y-100205000D02*
X151490000Y-99805000D01*
G75*
G02*
X151540000Y-99755000I50000J0D01*
G01*
X152540000Y-99755000D01*
G75*
G02*
X152590000Y-99805000I0J-50000D01*
G01*
X152590000Y-100205000D01*
G75*
G02*
X152540000Y-100255000I-50000J0D01*
G01*
X151540000Y-100255000D01*
G75*
G02*
X151490000Y-100205000I0J50000D01*
G01*
G37*
G36*
G01*
X151490000Y-99555000D02*
X151490000Y-99155000D01*
G75*
G02*
X151540000Y-99105000I50000J0D01*
G01*
X152540000Y-99105000D01*
G75*
G02*
X152590000Y-99155000I0J-50000D01*
G01*
X152590000Y-99555000D01*
G75*
G02*
X152540000Y-99605000I-50000J0D01*
G01*
X151540000Y-99605000D01*
G75*
G02*
X151490000Y-99555000I0J50000D01*
G01*
G37*
G36*
G01*
X151490000Y-98905000D02*
X151490000Y-98505000D01*
G75*
G02*
X151540000Y-98455000I50000J0D01*
G01*
X152540000Y-98455000D01*
G75*
G02*
X152590000Y-98505000I0J-50000D01*
G01*
X152590000Y-98905000D01*
G75*
G02*
X152540000Y-98955000I-50000J0D01*
G01*
X151540000Y-98955000D01*
G75*
G02*
X151490000Y-98905000I0J50000D01*
G01*
G37*
G36*
G01*
X151490000Y-98255000D02*
X151490000Y-97855000D01*
G75*
G02*
X151540000Y-97805000I50000J0D01*
G01*
X152540000Y-97805000D01*
G75*
G02*
X152590000Y-97855000I0J-50000D01*
G01*
X152590000Y-98255000D01*
G75*
G02*
X152540000Y-98305000I-50000J0D01*
G01*
X151540000Y-98305000D01*
G75*
G02*
X151490000Y-98255000I0J50000D01*
G01*
G37*
G36*
G01*
X151490000Y-97605000D02*
X151490000Y-97205000D01*
G75*
G02*
X151540000Y-97155000I50000J0D01*
G01*
X152540000Y-97155000D01*
G75*
G02*
X152590000Y-97205000I0J-50000D01*
G01*
X152590000Y-97605000D01*
G75*
G02*
X152540000Y-97655000I-50000J0D01*
G01*
X151540000Y-97655000D01*
G75*
G02*
X151490000Y-97605000I0J50000D01*
G01*
G37*
G36*
G01*
X157925000Y-82365000D02*
X157925000Y-81965000D01*
G75*
G02*
X157975000Y-81915000I50000J0D01*
G01*
X158975000Y-81915000D01*
G75*
G02*
X159025000Y-81965000I0J-50000D01*
G01*
X159025000Y-82365000D01*
G75*
G02*
X158975000Y-82415000I-50000J0D01*
G01*
X157975000Y-82415000D01*
G75*
G02*
X157925000Y-82365000I0J50000D01*
G01*
G37*
G36*
G01*
X157925000Y-83015000D02*
X157925000Y-82615000D01*
G75*
G02*
X157975000Y-82565000I50000J0D01*
G01*
X158975000Y-82565000D01*
G75*
G02*
X159025000Y-82615000I0J-50000D01*
G01*
X159025000Y-83015000D01*
G75*
G02*
X158975000Y-83065000I-50000J0D01*
G01*
X157975000Y-83065000D01*
G75*
G02*
X157925000Y-83015000I0J50000D01*
G01*
G37*
G36*
G01*
X157925000Y-83665000D02*
X157925000Y-83265000D01*
G75*
G02*
X157975000Y-83215000I50000J0D01*
G01*
X158975000Y-83215000D01*
G75*
G02*
X159025000Y-83265000I0J-50000D01*
G01*
X159025000Y-83665000D01*
G75*
G02*
X158975000Y-83715000I-50000J0D01*
G01*
X157975000Y-83715000D01*
G75*
G02*
X157925000Y-83665000I0J50000D01*
G01*
G37*
G36*
G01*
X157925000Y-84315000D02*
X157925000Y-83915000D01*
G75*
G02*
X157975000Y-83865000I50000J0D01*
G01*
X158975000Y-83865000D01*
G75*
G02*
X159025000Y-83915000I0J-50000D01*
G01*
X159025000Y-84315000D01*
G75*
G02*
X158975000Y-84365000I-50000J0D01*
G01*
X157975000Y-84365000D01*
G75*
G02*
X157925000Y-84315000I0J50000D01*
G01*
G37*
G36*
G01*
X157925000Y-84965000D02*
X157925000Y-84565000D01*
G75*
G02*
X157975000Y-84515000I50000J0D01*
G01*
X158975000Y-84515000D01*
G75*
G02*
X159025000Y-84565000I0J-50000D01*
G01*
X159025000Y-84965000D01*
G75*
G02*
X158975000Y-85015000I-50000J0D01*
G01*
X157975000Y-85015000D01*
G75*
G02*
X157925000Y-84965000I0J50000D01*
G01*
G37*
G36*
G01*
X157925000Y-85615000D02*
X157925000Y-85215000D01*
G75*
G02*
X157975000Y-85165000I50000J0D01*
G01*
X158975000Y-85165000D01*
G75*
G02*
X159025000Y-85215000I0J-50000D01*
G01*
X159025000Y-85615000D01*
G75*
G02*
X158975000Y-85665000I-50000J0D01*
G01*
X157975000Y-85665000D01*
G75*
G02*
X157925000Y-85615000I0J50000D01*
G01*
G37*
G36*
G01*
X157925000Y-86265000D02*
X157925000Y-85865000D01*
G75*
G02*
X157975000Y-85815000I50000J0D01*
G01*
X158975000Y-85815000D01*
G75*
G02*
X159025000Y-85865000I0J-50000D01*
G01*
X159025000Y-86265000D01*
G75*
G02*
X158975000Y-86315000I-50000J0D01*
G01*
X157975000Y-86315000D01*
G75*
G02*
X157925000Y-86265000I0J50000D01*
G01*
G37*
G36*
G01*
X157925000Y-86915000D02*
X157925000Y-86515000D01*
G75*
G02*
X157975000Y-86465000I50000J0D01*
G01*
X158975000Y-86465000D01*
G75*
G02*
X159025000Y-86515000I0J-50000D01*
G01*
X159025000Y-86915000D01*
G75*
G02*
X158975000Y-86965000I-50000J0D01*
G01*
X157975000Y-86965000D01*
G75*
G02*
X157925000Y-86915000I0J50000D01*
G01*
G37*
G36*
G01*
X157925000Y-87565000D02*
X157925000Y-87165000D01*
G75*
G02*
X157975000Y-87115000I50000J0D01*
G01*
X158975000Y-87115000D01*
G75*
G02*
X159025000Y-87165000I0J-50000D01*
G01*
X159025000Y-87565000D01*
G75*
G02*
X158975000Y-87615000I-50000J0D01*
G01*
X157975000Y-87615000D01*
G75*
G02*
X157925000Y-87565000I0J50000D01*
G01*
G37*
G36*
G01*
X157925000Y-88215000D02*
X157925000Y-87815000D01*
G75*
G02*
X157975000Y-87765000I50000J0D01*
G01*
X158975000Y-87765000D01*
G75*
G02*
X159025000Y-87815000I0J-50000D01*
G01*
X159025000Y-88215000D01*
G75*
G02*
X158975000Y-88265000I-50000J0D01*
G01*
X157975000Y-88265000D01*
G75*
G02*
X157925000Y-88215000I0J50000D01*
G01*
G37*
G36*
G01*
X152125000Y-88215000D02*
X152125000Y-87815000D01*
G75*
G02*
X152175000Y-87765000I50000J0D01*
G01*
X153175000Y-87765000D01*
G75*
G02*
X153225000Y-87815000I0J-50000D01*
G01*
X153225000Y-88215000D01*
G75*
G02*
X153175000Y-88265000I-50000J0D01*
G01*
X152175000Y-88265000D01*
G75*
G02*
X152125000Y-88215000I0J50000D01*
G01*
G37*
G36*
G01*
X152125000Y-87565000D02*
X152125000Y-87165000D01*
G75*
G02*
X152175000Y-87115000I50000J0D01*
G01*
X153175000Y-87115000D01*
G75*
G02*
X153225000Y-87165000I0J-50000D01*
G01*
X153225000Y-87565000D01*
G75*
G02*
X153175000Y-87615000I-50000J0D01*
G01*
X152175000Y-87615000D01*
G75*
G02*
X152125000Y-87565000I0J50000D01*
G01*
G37*
G36*
G01*
X152125000Y-86915000D02*
X152125000Y-86515000D01*
G75*
G02*
X152175000Y-86465000I50000J0D01*
G01*
X153175000Y-86465000D01*
G75*
G02*
X153225000Y-86515000I0J-50000D01*
G01*
X153225000Y-86915000D01*
G75*
G02*
X153175000Y-86965000I-50000J0D01*
G01*
X152175000Y-86965000D01*
G75*
G02*
X152125000Y-86915000I0J50000D01*
G01*
G37*
G36*
G01*
X152125000Y-86265000D02*
X152125000Y-85865000D01*
G75*
G02*
X152175000Y-85815000I50000J0D01*
G01*
X153175000Y-85815000D01*
G75*
G02*
X153225000Y-85865000I0J-50000D01*
G01*
X153225000Y-86265000D01*
G75*
G02*
X153175000Y-86315000I-50000J0D01*
G01*
X152175000Y-86315000D01*
G75*
G02*
X152125000Y-86265000I0J50000D01*
G01*
G37*
G36*
G01*
X152125000Y-85615000D02*
X152125000Y-85215000D01*
G75*
G02*
X152175000Y-85165000I50000J0D01*
G01*
X153175000Y-85165000D01*
G75*
G02*
X153225000Y-85215000I0J-50000D01*
G01*
X153225000Y-85615000D01*
G75*
G02*
X153175000Y-85665000I-50000J0D01*
G01*
X152175000Y-85665000D01*
G75*
G02*
X152125000Y-85615000I0J50000D01*
G01*
G37*
G36*
G01*
X152125000Y-84965000D02*
X152125000Y-84565000D01*
G75*
G02*
X152175000Y-84515000I50000J0D01*
G01*
X153175000Y-84515000D01*
G75*
G02*
X153225000Y-84565000I0J-50000D01*
G01*
X153225000Y-84965000D01*
G75*
G02*
X153175000Y-85015000I-50000J0D01*
G01*
X152175000Y-85015000D01*
G75*
G02*
X152125000Y-84965000I0J50000D01*
G01*
G37*
G36*
G01*
X152125000Y-84315000D02*
X152125000Y-83915000D01*
G75*
G02*
X152175000Y-83865000I50000J0D01*
G01*
X153175000Y-83865000D01*
G75*
G02*
X153225000Y-83915000I0J-50000D01*
G01*
X153225000Y-84315000D01*
G75*
G02*
X153175000Y-84365000I-50000J0D01*
G01*
X152175000Y-84365000D01*
G75*
G02*
X152125000Y-84315000I0J50000D01*
G01*
G37*
G36*
G01*
X152125000Y-83665000D02*
X152125000Y-83265000D01*
G75*
G02*
X152175000Y-83215000I50000J0D01*
G01*
X153175000Y-83215000D01*
G75*
G02*
X153225000Y-83265000I0J-50000D01*
G01*
X153225000Y-83665000D01*
G75*
G02*
X153175000Y-83715000I-50000J0D01*
G01*
X152175000Y-83715000D01*
G75*
G02*
X152125000Y-83665000I0J50000D01*
G01*
G37*
G36*
G01*
X152125000Y-83015000D02*
X152125000Y-82615000D01*
G75*
G02*
X152175000Y-82565000I50000J0D01*
G01*
X153175000Y-82565000D01*
G75*
G02*
X153225000Y-82615000I0J-50000D01*
G01*
X153225000Y-83015000D01*
G75*
G02*
X153175000Y-83065000I-50000J0D01*
G01*
X152175000Y-83065000D01*
G75*
G02*
X152125000Y-83015000I0J50000D01*
G01*
G37*
G36*
G01*
X152125000Y-82365000D02*
X152125000Y-81965000D01*
G75*
G02*
X152175000Y-81915000I50000J0D01*
G01*
X153175000Y-81915000D01*
G75*
G02*
X153225000Y-81965000I0J-50000D01*
G01*
X153225000Y-82365000D01*
G75*
G02*
X153175000Y-82415000I-50000J0D01*
G01*
X152175000Y-82415000D01*
G75*
G02*
X152125000Y-82365000I0J50000D01*
G01*
G37*
D12*
X138430000Y-114705000D03*
G36*
G01*
X139280000Y-117405000D02*
X137580000Y-117405000D01*
G75*
G02*
X137530000Y-117355000I0J50000D01*
G01*
X137530000Y-113855000D01*
G75*
G02*
X137580000Y-113805000I50000J0D01*
G01*
X139280000Y-113805000D01*
G75*
G02*
X139330000Y-113855000I0J-50000D01*
G01*
X139330000Y-117355000D01*
G75*
G02*
X139280000Y-117405000I-50000J0D01*
G01*
G37*
G36*
G01*
X134990000Y-115555000D02*
X134990000Y-113855000D01*
G75*
G02*
X135040000Y-113805000I50000J0D01*
G01*
X136740000Y-113805000D01*
G75*
G02*
X136790000Y-113855000I0J-50000D01*
G01*
X136790000Y-115555000D01*
G75*
G02*
X136740000Y-115605000I-50000J0D01*
G01*
X135040000Y-115605000D01*
G75*
G02*
X134990000Y-115555000I0J50000D01*
G01*
G37*
G36*
G01*
X136740000Y-117405000D02*
X135040000Y-117405000D01*
G75*
G02*
X134990000Y-117355000I0J50000D01*
G01*
X134990000Y-113855000D01*
G75*
G02*
X135040000Y-113805000I50000J0D01*
G01*
X136740000Y-113805000D01*
G75*
G02*
X136790000Y-113855000I0J-50000D01*
G01*
X136790000Y-117355000D01*
G75*
G02*
X136740000Y-117405000I-50000J0D01*
G01*
G37*
X133350000Y-114705000D03*
G36*
G01*
X134200000Y-117405000D02*
X132500000Y-117405000D01*
G75*
G02*
X132450000Y-117355000I0J50000D01*
G01*
X132450000Y-113855000D01*
G75*
G02*
X132500000Y-113805000I50000J0D01*
G01*
X134200000Y-113805000D01*
G75*
G02*
X134250000Y-113855000I0J-50000D01*
G01*
X134250000Y-117355000D01*
G75*
G02*
X134200000Y-117405000I-50000J0D01*
G01*
G37*
D13*
X138315000Y-69835000D03*
X133465000Y-69835000D03*
D14*
X138615000Y-66805000D03*
X133165000Y-66805000D03*
G36*
G01*
X143880000Y-115785000D02*
X143880000Y-114085000D01*
G75*
G02*
X143930000Y-114035000I50000J0D01*
G01*
X147430000Y-114035000D01*
G75*
G02*
X147480000Y-114085000I0J-50000D01*
G01*
X147480000Y-115785000D01*
G75*
G02*
X147430000Y-115835000I-50000J0D01*
G01*
X143930000Y-115835000D01*
G75*
G02*
X143880000Y-115785000I0J50000D01*
G01*
G37*
G36*
G01*
X143880000Y-113245000D02*
X143880000Y-111545000D01*
G75*
G02*
X143930000Y-111495000I50000J0D01*
G01*
X147430000Y-111495000D01*
G75*
G02*
X147480000Y-111545000I0J-50000D01*
G01*
X147480000Y-113245000D01*
G75*
G02*
X147430000Y-113295000I-50000J0D01*
G01*
X143930000Y-113295000D01*
G75*
G02*
X143880000Y-113245000I0J50000D01*
G01*
G37*
G36*
G01*
X143880000Y-110705000D02*
X143880000Y-109005000D01*
G75*
G02*
X143930000Y-108955000I50000J0D01*
G01*
X147430000Y-108955000D01*
G75*
G02*
X147480000Y-109005000I0J-50000D01*
G01*
X147480000Y-110705000D01*
G75*
G02*
X147430000Y-110755000I-50000J0D01*
G01*
X143930000Y-110755000D01*
G75*
G02*
X143880000Y-110705000I0J50000D01*
G01*
G37*
G36*
G01*
X143880000Y-108165000D02*
X143880000Y-106465000D01*
G75*
G02*
X143930000Y-106415000I50000J0D01*
G01*
X147430000Y-106415000D01*
G75*
G02*
X147480000Y-106465000I0J-50000D01*
G01*
X147480000Y-108165000D01*
G75*
G02*
X147430000Y-108215000I-50000J0D01*
G01*
X143930000Y-108215000D01*
G75*
G02*
X143880000Y-108165000I0J50000D01*
G01*
G37*
G36*
G01*
X143880000Y-105625000D02*
X143880000Y-103925000D01*
G75*
G02*
X143930000Y-103875000I50000J0D01*
G01*
X147430000Y-103875000D01*
G75*
G02*
X147480000Y-103925000I0J-50000D01*
G01*
X147480000Y-105625000D01*
G75*
G02*
X147430000Y-105675000I-50000J0D01*
G01*
X143930000Y-105675000D01*
G75*
G02*
X143880000Y-105625000I0J50000D01*
G01*
G37*
G36*
G01*
X143880000Y-103085000D02*
X143880000Y-101385000D01*
G75*
G02*
X143930000Y-101335000I50000J0D01*
G01*
X147430000Y-101335000D01*
G75*
G02*
X147480000Y-101385000I0J-50000D01*
G01*
X147480000Y-103085000D01*
G75*
G02*
X147430000Y-103135000I-50000J0D01*
G01*
X143930000Y-103135000D01*
G75*
G02*
X143880000Y-103085000I0J50000D01*
G01*
G37*
G36*
G01*
X143880000Y-100545000D02*
X143880000Y-98845000D01*
G75*
G02*
X143930000Y-98795000I50000J0D01*
G01*
X147430000Y-98795000D01*
G75*
G02*
X147480000Y-98845000I0J-50000D01*
G01*
X147480000Y-100545000D01*
G75*
G02*
X147430000Y-100595000I-50000J0D01*
G01*
X143930000Y-100595000D01*
G75*
G02*
X143880000Y-100545000I0J50000D01*
G01*
G37*
G36*
G01*
X143880000Y-98005000D02*
X143880000Y-96305000D01*
G75*
G02*
X143930000Y-96255000I50000J0D01*
G01*
X147430000Y-96255000D01*
G75*
G02*
X147480000Y-96305000I0J-50000D01*
G01*
X147480000Y-98005000D01*
G75*
G02*
X147430000Y-98055000I-50000J0D01*
G01*
X143930000Y-98055000D01*
G75*
G02*
X143880000Y-98005000I0J50000D01*
G01*
G37*
G36*
G01*
X143880000Y-95465000D02*
X143880000Y-93765000D01*
G75*
G02*
X143930000Y-93715000I50000J0D01*
G01*
X147430000Y-93715000D01*
G75*
G02*
X147480000Y-93765000I0J-50000D01*
G01*
X147480000Y-95465000D01*
G75*
G02*
X147430000Y-95515000I-50000J0D01*
G01*
X143930000Y-95515000D01*
G75*
G02*
X143880000Y-95465000I0J50000D01*
G01*
G37*
G36*
G01*
X143880000Y-92925000D02*
X143880000Y-91225000D01*
G75*
G02*
X143930000Y-91175000I50000J0D01*
G01*
X147430000Y-91175000D01*
G75*
G02*
X147480000Y-91225000I0J-50000D01*
G01*
X147480000Y-92925000D01*
G75*
G02*
X147430000Y-92975000I-50000J0D01*
G01*
X143930000Y-92975000D01*
G75*
G02*
X143880000Y-92925000I0J50000D01*
G01*
G37*
G36*
G01*
X143880000Y-90385000D02*
X143880000Y-88685000D01*
G75*
G02*
X143930000Y-88635000I50000J0D01*
G01*
X147430000Y-88635000D01*
G75*
G02*
X147480000Y-88685000I0J-50000D01*
G01*
X147480000Y-90385000D01*
G75*
G02*
X147430000Y-90435000I-50000J0D01*
G01*
X143930000Y-90435000D01*
G75*
G02*
X143880000Y-90385000I0J50000D01*
G01*
G37*
G36*
G01*
X143880000Y-87845000D02*
X143880000Y-86145000D01*
G75*
G02*
X143930000Y-86095000I50000J0D01*
G01*
X147430000Y-86095000D01*
G75*
G02*
X147480000Y-86145000I0J-50000D01*
G01*
X147480000Y-87845000D01*
G75*
G02*
X147430000Y-87895000I-50000J0D01*
G01*
X143930000Y-87895000D01*
G75*
G02*
X143880000Y-87845000I0J50000D01*
G01*
G37*
G36*
G01*
X143880000Y-85305000D02*
X143880000Y-83605000D01*
G75*
G02*
X143930000Y-83555000I50000J0D01*
G01*
X147430000Y-83555000D01*
G75*
G02*
X147480000Y-83605000I0J-50000D01*
G01*
X147480000Y-85305000D01*
G75*
G02*
X147430000Y-85355000I-50000J0D01*
G01*
X143930000Y-85355000D01*
G75*
G02*
X143880000Y-85305000I0J50000D01*
G01*
G37*
G36*
G01*
X143880000Y-82765000D02*
X143880000Y-81065000D01*
G75*
G02*
X143930000Y-81015000I50000J0D01*
G01*
X147430000Y-81015000D01*
G75*
G02*
X147480000Y-81065000I0J-50000D01*
G01*
X147480000Y-82765000D01*
G75*
G02*
X147430000Y-82815000I-50000J0D01*
G01*
X143930000Y-82815000D01*
G75*
G02*
X143880000Y-82765000I0J50000D01*
G01*
G37*
G36*
G01*
X143880000Y-80225000D02*
X143880000Y-78525000D01*
G75*
G02*
X143930000Y-78475000I50000J0D01*
G01*
X147430000Y-78475000D01*
G75*
G02*
X147480000Y-78525000I0J-50000D01*
G01*
X147480000Y-80225000D01*
G75*
G02*
X147430000Y-80275000I-50000J0D01*
G01*
X143930000Y-80275000D01*
G75*
G02*
X143880000Y-80225000I0J50000D01*
G01*
G37*
G36*
G01*
X143880000Y-77685000D02*
X143880000Y-75985000D01*
G75*
G02*
X143930000Y-75935000I50000J0D01*
G01*
X147430000Y-75935000D01*
G75*
G02*
X147480000Y-75985000I0J-50000D01*
G01*
X147480000Y-77685000D01*
G75*
G02*
X147430000Y-77735000I-50000J0D01*
G01*
X143930000Y-77735000D01*
G75*
G02*
X143880000Y-77685000I0J50000D01*
G01*
G37*
G36*
G01*
X143880000Y-75145000D02*
X143880000Y-73445000D01*
G75*
G02*
X143930000Y-73395000I50000J0D01*
G01*
X147430000Y-73395000D01*
G75*
G02*
X147480000Y-73445000I0J-50000D01*
G01*
X147480000Y-75145000D01*
G75*
G02*
X147430000Y-75195000I-50000J0D01*
G01*
X143930000Y-75195000D01*
G75*
G02*
X143880000Y-75145000I0J50000D01*
G01*
G37*
G36*
G01*
X143880000Y-72605000D02*
X143880000Y-70905000D01*
G75*
G02*
X143930000Y-70855000I50000J0D01*
G01*
X147430000Y-70855000D01*
G75*
G02*
X147480000Y-70905000I0J-50000D01*
G01*
X147480000Y-72605000D01*
G75*
G02*
X147430000Y-72655000I-50000J0D01*
G01*
X143930000Y-72655000D01*
G75*
G02*
X143880000Y-72605000I0J50000D01*
G01*
G37*
G36*
G01*
X143880000Y-70065000D02*
X143880000Y-68365000D01*
G75*
G02*
X143930000Y-68315000I50000J0D01*
G01*
X147430000Y-68315000D01*
G75*
G02*
X147480000Y-68365000I0J-50000D01*
G01*
X147480000Y-70065000D01*
G75*
G02*
X147430000Y-70115000I-50000J0D01*
G01*
X143930000Y-70115000D01*
G75*
G02*
X143880000Y-70065000I0J50000D01*
G01*
G37*
G36*
G01*
X143880000Y-67525000D02*
X143880000Y-65825000D01*
G75*
G02*
X143930000Y-65775000I50000J0D01*
G01*
X147430000Y-65775000D01*
G75*
G02*
X147480000Y-65825000I0J-50000D01*
G01*
X147480000Y-67525000D01*
G75*
G02*
X147430000Y-67575000I-50000J0D01*
G01*
X143930000Y-67575000D01*
G75*
G02*
X143880000Y-67525000I0J50000D01*
G01*
G37*
G36*
G01*
X124300000Y-115785000D02*
X124300000Y-114085000D01*
G75*
G02*
X124350000Y-114035000I50000J0D01*
G01*
X127850000Y-114035000D01*
G75*
G02*
X127900000Y-114085000I0J-50000D01*
G01*
X127900000Y-115785000D01*
G75*
G02*
X127850000Y-115835000I-50000J0D01*
G01*
X124350000Y-115835000D01*
G75*
G02*
X124300000Y-115785000I0J50000D01*
G01*
G37*
G36*
G01*
X124300000Y-113245000D02*
X124300000Y-111545000D01*
G75*
G02*
X124350000Y-111495000I50000J0D01*
G01*
X127850000Y-111495000D01*
G75*
G02*
X127900000Y-111545000I0J-50000D01*
G01*
X127900000Y-113245000D01*
G75*
G02*
X127850000Y-113295000I-50000J0D01*
G01*
X124350000Y-113295000D01*
G75*
G02*
X124300000Y-113245000I0J50000D01*
G01*
G37*
G36*
G01*
X124300000Y-110705000D02*
X124300000Y-109005000D01*
G75*
G02*
X124350000Y-108955000I50000J0D01*
G01*
X127850000Y-108955000D01*
G75*
G02*
X127900000Y-109005000I0J-50000D01*
G01*
X127900000Y-110705000D01*
G75*
G02*
X127850000Y-110755000I-50000J0D01*
G01*
X124350000Y-110755000D01*
G75*
G02*
X124300000Y-110705000I0J50000D01*
G01*
G37*
G36*
G01*
X124300000Y-108165000D02*
X124300000Y-106465000D01*
G75*
G02*
X124350000Y-106415000I50000J0D01*
G01*
X127850000Y-106415000D01*
G75*
G02*
X127900000Y-106465000I0J-50000D01*
G01*
X127900000Y-108165000D01*
G75*
G02*
X127850000Y-108215000I-50000J0D01*
G01*
X124350000Y-108215000D01*
G75*
G02*
X124300000Y-108165000I0J50000D01*
G01*
G37*
G36*
G01*
X124300000Y-105625000D02*
X124300000Y-103925000D01*
G75*
G02*
X124350000Y-103875000I50000J0D01*
G01*
X127850000Y-103875000D01*
G75*
G02*
X127900000Y-103925000I0J-50000D01*
G01*
X127900000Y-105625000D01*
G75*
G02*
X127850000Y-105675000I-50000J0D01*
G01*
X124350000Y-105675000D01*
G75*
G02*
X124300000Y-105625000I0J50000D01*
G01*
G37*
G36*
G01*
X124300000Y-103085000D02*
X124300000Y-101385000D01*
G75*
G02*
X124350000Y-101335000I50000J0D01*
G01*
X127850000Y-101335000D01*
G75*
G02*
X127900000Y-101385000I0J-50000D01*
G01*
X127900000Y-103085000D01*
G75*
G02*
X127850000Y-103135000I-50000J0D01*
G01*
X124350000Y-103135000D01*
G75*
G02*
X124300000Y-103085000I0J50000D01*
G01*
G37*
G36*
G01*
X124300000Y-100545000D02*
X124300000Y-98845000D01*
G75*
G02*
X124350000Y-98795000I50000J0D01*
G01*
X127850000Y-98795000D01*
G75*
G02*
X127900000Y-98845000I0J-50000D01*
G01*
X127900000Y-100545000D01*
G75*
G02*
X127850000Y-100595000I-50000J0D01*
G01*
X124350000Y-100595000D01*
G75*
G02*
X124300000Y-100545000I0J50000D01*
G01*
G37*
G36*
G01*
X124300000Y-98005000D02*
X124300000Y-96305000D01*
G75*
G02*
X124350000Y-96255000I50000J0D01*
G01*
X127850000Y-96255000D01*
G75*
G02*
X127900000Y-96305000I0J-50000D01*
G01*
X127900000Y-98005000D01*
G75*
G02*
X127850000Y-98055000I-50000J0D01*
G01*
X124350000Y-98055000D01*
G75*
G02*
X124300000Y-98005000I0J50000D01*
G01*
G37*
G36*
G01*
X124300000Y-95465000D02*
X124300000Y-93765000D01*
G75*
G02*
X124350000Y-93715000I50000J0D01*
G01*
X127850000Y-93715000D01*
G75*
G02*
X127900000Y-93765000I0J-50000D01*
G01*
X127900000Y-95465000D01*
G75*
G02*
X127850000Y-95515000I-50000J0D01*
G01*
X124350000Y-95515000D01*
G75*
G02*
X124300000Y-95465000I0J50000D01*
G01*
G37*
G36*
G01*
X124300000Y-92925000D02*
X124300000Y-91225000D01*
G75*
G02*
X124350000Y-91175000I50000J0D01*
G01*
X127850000Y-91175000D01*
G75*
G02*
X127900000Y-91225000I0J-50000D01*
G01*
X127900000Y-92925000D01*
G75*
G02*
X127850000Y-92975000I-50000J0D01*
G01*
X124350000Y-92975000D01*
G75*
G02*
X124300000Y-92925000I0J50000D01*
G01*
G37*
G36*
G01*
X124300000Y-90385000D02*
X124300000Y-88685000D01*
G75*
G02*
X124350000Y-88635000I50000J0D01*
G01*
X127850000Y-88635000D01*
G75*
G02*
X127900000Y-88685000I0J-50000D01*
G01*
X127900000Y-90385000D01*
G75*
G02*
X127850000Y-90435000I-50000J0D01*
G01*
X124350000Y-90435000D01*
G75*
G02*
X124300000Y-90385000I0J50000D01*
G01*
G37*
G36*
G01*
X124300000Y-87845000D02*
X124300000Y-86145000D01*
G75*
G02*
X124350000Y-86095000I50000J0D01*
G01*
X127850000Y-86095000D01*
G75*
G02*
X127900000Y-86145000I0J-50000D01*
G01*
X127900000Y-87845000D01*
G75*
G02*
X127850000Y-87895000I-50000J0D01*
G01*
X124350000Y-87895000D01*
G75*
G02*
X124300000Y-87845000I0J50000D01*
G01*
G37*
G36*
G01*
X124300000Y-85305000D02*
X124300000Y-83605000D01*
G75*
G02*
X124350000Y-83555000I50000J0D01*
G01*
X127850000Y-83555000D01*
G75*
G02*
X127900000Y-83605000I0J-50000D01*
G01*
X127900000Y-85305000D01*
G75*
G02*
X127850000Y-85355000I-50000J0D01*
G01*
X124350000Y-85355000D01*
G75*
G02*
X124300000Y-85305000I0J50000D01*
G01*
G37*
G36*
G01*
X124300000Y-82765000D02*
X124300000Y-81065000D01*
G75*
G02*
X124350000Y-81015000I50000J0D01*
G01*
X127850000Y-81015000D01*
G75*
G02*
X127900000Y-81065000I0J-50000D01*
G01*
X127900000Y-82765000D01*
G75*
G02*
X127850000Y-82815000I-50000J0D01*
G01*
X124350000Y-82815000D01*
G75*
G02*
X124300000Y-82765000I0J50000D01*
G01*
G37*
G36*
G01*
X124300000Y-80225000D02*
X124300000Y-78525000D01*
G75*
G02*
X124350000Y-78475000I50000J0D01*
G01*
X127850000Y-78475000D01*
G75*
G02*
X127900000Y-78525000I0J-50000D01*
G01*
X127900000Y-80225000D01*
G75*
G02*
X127850000Y-80275000I-50000J0D01*
G01*
X124350000Y-80275000D01*
G75*
G02*
X124300000Y-80225000I0J50000D01*
G01*
G37*
G36*
G01*
X124300000Y-77685000D02*
X124300000Y-75985000D01*
G75*
G02*
X124350000Y-75935000I50000J0D01*
G01*
X127850000Y-75935000D01*
G75*
G02*
X127900000Y-75985000I0J-50000D01*
G01*
X127900000Y-77685000D01*
G75*
G02*
X127850000Y-77735000I-50000J0D01*
G01*
X124350000Y-77735000D01*
G75*
G02*
X124300000Y-77685000I0J50000D01*
G01*
G37*
G36*
G01*
X124300000Y-75145000D02*
X124300000Y-73445000D01*
G75*
G02*
X124350000Y-73395000I50000J0D01*
G01*
X127850000Y-73395000D01*
G75*
G02*
X127900000Y-73445000I0J-50000D01*
G01*
X127900000Y-75145000D01*
G75*
G02*
X127850000Y-75195000I-50000J0D01*
G01*
X124350000Y-75195000D01*
G75*
G02*
X124300000Y-75145000I0J50000D01*
G01*
G37*
G36*
G01*
X124300000Y-72605000D02*
X124300000Y-70905000D01*
G75*
G02*
X124350000Y-70855000I50000J0D01*
G01*
X127850000Y-70855000D01*
G75*
G02*
X127900000Y-70905000I0J-50000D01*
G01*
X127900000Y-72605000D01*
G75*
G02*
X127850000Y-72655000I-50000J0D01*
G01*
X124350000Y-72655000D01*
G75*
G02*
X124300000Y-72605000I0J50000D01*
G01*
G37*
G36*
G01*
X124300000Y-70065000D02*
X124300000Y-68365000D01*
G75*
G02*
X124350000Y-68315000I50000J0D01*
G01*
X127850000Y-68315000D01*
G75*
G02*
X127900000Y-68365000I0J-50000D01*
G01*
X127900000Y-70065000D01*
G75*
G02*
X127850000Y-70115000I-50000J0D01*
G01*
X124350000Y-70115000D01*
G75*
G02*
X124300000Y-70065000I0J50000D01*
G01*
G37*
G36*
G01*
X124300000Y-67525000D02*
X124300000Y-65825000D01*
G75*
G02*
X124350000Y-65775000I50000J0D01*
G01*
X127850000Y-65775000D01*
G75*
G02*
X127900000Y-65825000I0J-50000D01*
G01*
X127900000Y-67525000D01*
G75*
G02*
X127850000Y-67575000I-50000J0D01*
G01*
X124350000Y-67575000D01*
G75*
G02*
X124300000Y-67525000I0J50000D01*
G01*
G37*
D12*
X144780000Y-66675000D03*
X144780000Y-69215000D03*
G36*
G01*
X143880000Y-72605000D02*
X143880000Y-70905000D01*
G75*
G02*
X143930000Y-70855000I50000J0D01*
G01*
X145630000Y-70855000D01*
G75*
G02*
X145680000Y-70905000I0J-50000D01*
G01*
X145680000Y-72605000D01*
G75*
G02*
X145630000Y-72655000I-50000J0D01*
G01*
X143930000Y-72655000D01*
G75*
G02*
X143880000Y-72605000I0J50000D01*
G01*
G37*
X144780000Y-74295000D03*
X144780000Y-76835000D03*
X144780000Y-79375000D03*
X144780000Y-81915000D03*
G36*
G01*
X143880000Y-85305000D02*
X143880000Y-83605000D01*
G75*
G02*
X143930000Y-83555000I50000J0D01*
G01*
X145630000Y-83555000D01*
G75*
G02*
X145680000Y-83605000I0J-50000D01*
G01*
X145680000Y-85305000D01*
G75*
G02*
X145630000Y-85355000I-50000J0D01*
G01*
X143930000Y-85355000D01*
G75*
G02*
X143880000Y-85305000I0J50000D01*
G01*
G37*
X144780000Y-86995000D03*
X144780000Y-89535000D03*
X144780000Y-92075000D03*
X144780000Y-94615000D03*
G36*
G01*
X143880000Y-98005000D02*
X143880000Y-96305000D01*
G75*
G02*
X143930000Y-96255000I50000J0D01*
G01*
X145630000Y-96255000D01*
G75*
G02*
X145680000Y-96305000I0J-50000D01*
G01*
X145680000Y-98005000D01*
G75*
G02*
X145630000Y-98055000I-50000J0D01*
G01*
X143930000Y-98055000D01*
G75*
G02*
X143880000Y-98005000I0J50000D01*
G01*
G37*
X144780000Y-99695000D03*
X144780000Y-102235000D03*
X144780000Y-104775000D03*
X144780000Y-107315000D03*
G36*
G01*
X143880000Y-110705000D02*
X143880000Y-109005000D01*
G75*
G02*
X143930000Y-108955000I50000J0D01*
G01*
X145630000Y-108955000D01*
G75*
G02*
X145680000Y-109005000I0J-50000D01*
G01*
X145680000Y-110705000D01*
G75*
G02*
X145630000Y-110755000I-50000J0D01*
G01*
X143930000Y-110755000D01*
G75*
G02*
X143880000Y-110705000I0J50000D01*
G01*
G37*
X144780000Y-112395000D03*
X144780000Y-114935000D03*
X127000000Y-114935000D03*
X127000000Y-112395000D03*
G36*
G01*
X126100000Y-110705000D02*
X126100000Y-109005000D01*
G75*
G02*
X126150000Y-108955000I50000J0D01*
G01*
X127850000Y-108955000D01*
G75*
G02*
X127900000Y-109005000I0J-50000D01*
G01*
X127900000Y-110705000D01*
G75*
G02*
X127850000Y-110755000I-50000J0D01*
G01*
X126150000Y-110755000D01*
G75*
G02*
X126100000Y-110705000I0J50000D01*
G01*
G37*
X127000000Y-107315000D03*
X127000000Y-104775000D03*
X127000000Y-102235000D03*
X127000000Y-99695000D03*
G36*
G01*
X126100000Y-98005000D02*
X126100000Y-96305000D01*
G75*
G02*
X126150000Y-96255000I50000J0D01*
G01*
X127850000Y-96255000D01*
G75*
G02*
X127900000Y-96305000I0J-50000D01*
G01*
X127900000Y-98005000D01*
G75*
G02*
X127850000Y-98055000I-50000J0D01*
G01*
X126150000Y-98055000D01*
G75*
G02*
X126100000Y-98005000I0J50000D01*
G01*
G37*
X127000000Y-94615000D03*
X127000000Y-92075000D03*
X127000000Y-89535000D03*
X127000000Y-86995000D03*
G36*
G01*
X126100000Y-85305000D02*
X126100000Y-83605000D01*
G75*
G02*
X126150000Y-83555000I50000J0D01*
G01*
X127850000Y-83555000D01*
G75*
G02*
X127900000Y-83605000I0J-50000D01*
G01*
X127900000Y-85305000D01*
G75*
G02*
X127850000Y-85355000I-50000J0D01*
G01*
X126150000Y-85355000D01*
G75*
G02*
X126100000Y-85305000I0J50000D01*
G01*
G37*
X127000000Y-81915000D03*
X127000000Y-79375000D03*
X127000000Y-76835000D03*
X127000000Y-74295000D03*
G36*
G01*
X126100000Y-72605000D02*
X126100000Y-70905000D01*
G75*
G02*
X126150000Y-70855000I50000J0D01*
G01*
X127850000Y-70855000D01*
G75*
G02*
X127900000Y-70905000I0J-50000D01*
G01*
X127900000Y-72605000D01*
G75*
G02*
X127850000Y-72655000I-50000J0D01*
G01*
X126150000Y-72655000D01*
G75*
G02*
X126100000Y-72605000I0J50000D01*
G01*
G37*
X127000000Y-69215000D03*
X127000000Y-66675000D03*
X168910000Y-114300000D03*
X166370000Y-114300000D03*
X168910000Y-111760000D03*
X166370000Y-111760000D03*
X168910000Y-109220000D03*
X166370000Y-109220000D03*
X168910000Y-106680000D03*
X166370000Y-106680000D03*
X168910000Y-104140000D03*
X166370000Y-104140000D03*
X168910000Y-101600000D03*
X166370000Y-101600000D03*
X168910000Y-99060000D03*
X166370000Y-99060000D03*
X168910000Y-96520000D03*
X166370000Y-96520000D03*
X168910000Y-93980000D03*
X166370000Y-93980000D03*
X168910000Y-91440000D03*
X166370000Y-91440000D03*
X168910000Y-88900000D03*
X166370000Y-88900000D03*
X168910000Y-86360000D03*
X166370000Y-86360000D03*
X168910000Y-83820000D03*
X166370000Y-83820000D03*
X168910000Y-81280000D03*
X166370000Y-81280000D03*
X168910000Y-78740000D03*
X166370000Y-78740000D03*
X168910000Y-76200000D03*
X166370000Y-76200000D03*
X168910000Y-73660000D03*
G36*
G01*
X165470000Y-74510000D02*
X165470000Y-72810000D01*
G75*
G02*
X165520000Y-72760000I50000J0D01*
G01*
X167220000Y-72760000D01*
G75*
G02*
X167270000Y-72810000I0J-50000D01*
G01*
X167270000Y-74510000D01*
G75*
G02*
X167220000Y-74560000I-50000J0D01*
G01*
X165520000Y-74560000D01*
G75*
G02*
X165470000Y-74510000I0J50000D01*
G01*
G37*
X120815100Y-112435640D03*
X120815100Y-109895640D03*
X120815100Y-107355640D03*
X120815100Y-104815640D03*
X120815100Y-102275640D03*
G36*
G01*
X119915100Y-100585640D02*
X119915100Y-98885640D01*
G75*
G02*
X119965100Y-98835640I50000J0D01*
G01*
X121665100Y-98835640D01*
G75*
G02*
X121715100Y-98885640I0J-50000D01*
G01*
X121715100Y-100585640D01*
G75*
G02*
X121665100Y-100635640I-50000J0D01*
G01*
X119965100Y-100635640D01*
G75*
G02*
X119915100Y-100585640I0J50000D01*
G01*
G37*
X118110000Y-90805000D03*
X115570000Y-90805000D03*
X118110000Y-88265000D03*
X115570000Y-88265000D03*
X118110000Y-85725000D03*
X115570000Y-85725000D03*
X118110000Y-83185000D03*
G36*
G01*
X114670000Y-84035000D02*
X114670000Y-82335000D01*
G75*
G02*
X114720000Y-82285000I50000J0D01*
G01*
X116420000Y-82285000D01*
G75*
G02*
X116470000Y-82335000I0J-50000D01*
G01*
X116470000Y-84035000D01*
G75*
G02*
X116420000Y-84085000I-50000J0D01*
G01*
X114720000Y-84085000D01*
G75*
G02*
X114670000Y-84035000I0J50000D01*
G01*
G37*
X118110000Y-76835000D03*
X115570000Y-76835000D03*
X118110000Y-74295000D03*
X115570000Y-74295000D03*
X118110000Y-71755000D03*
X115570000Y-71755000D03*
X118110000Y-69215000D03*
X115570000Y-69215000D03*
X118110000Y-66675000D03*
G36*
G01*
X114670000Y-67525000D02*
X114670000Y-65825000D01*
G75*
G02*
X114720000Y-65775000I50000J0D01*
G01*
X116420000Y-65775000D01*
G75*
G02*
X116470000Y-65825000I0J-50000D01*
G01*
X116470000Y-67525000D01*
G75*
G02*
X116420000Y-67575000I-50000J0D01*
G01*
X114720000Y-67575000D01*
G75*
G02*
X114670000Y-67525000I0J50000D01*
G01*
G37*
G36*
G01*
X153195000Y-68210000D02*
X153195000Y-66410000D01*
G75*
G02*
X153245000Y-66360000I50000J0D01*
G01*
X155745000Y-66360000D01*
G75*
G02*
X155795000Y-66410000I0J-50000D01*
G01*
X155795000Y-68210000D01*
G75*
G02*
X155745000Y-68260000I-50000J0D01*
G01*
X153245000Y-68260000D01*
G75*
G02*
X153195000Y-68210000I0J50000D01*
G01*
G37*
G36*
G01*
X149195000Y-68210000D02*
X149195000Y-66410000D01*
G75*
G02*
X149245000Y-66360000I50000J0D01*
G01*
X151745000Y-66360000D01*
G75*
G02*
X151795000Y-66410000I0J-50000D01*
G01*
X151795000Y-68210000D01*
G75*
G02*
X151745000Y-68260000I-50000J0D01*
G01*
X149245000Y-68260000D01*
G75*
G02*
X149195000Y-68210000I0J50000D01*
G01*
G37*
G36*
G01*
X154540000Y-73178750D02*
X154540000Y-74141250D01*
G75*
G02*
X154271250Y-74410000I-268750J0D01*
G01*
X153733750Y-74410000D01*
G75*
G02*
X153465000Y-74141250I0J268750D01*
G01*
X153465000Y-73178750D01*
G75*
G02*
X153733750Y-72910000I268750J0D01*
G01*
X154271250Y-72910000D01*
G75*
G02*
X154540000Y-73178750I0J-268750D01*
G01*
G37*
G36*
G01*
X156415000Y-73178750D02*
X156415000Y-74141250D01*
G75*
G02*
X156146250Y-74410000I-268750J0D01*
G01*
X155608750Y-74410000D01*
G75*
G02*
X155340000Y-74141250I0J268750D01*
G01*
X155340000Y-73178750D01*
G75*
G02*
X155608750Y-72910000I268750J0D01*
G01*
X156146250Y-72910000D01*
G75*
G02*
X156415000Y-73178750I0J-268750D01*
G01*
G37*
G36*
G01*
X156777500Y-78893750D02*
X156777500Y-79856250D01*
G75*
G02*
X156508750Y-80125000I-268750J0D01*
G01*
X155971250Y-80125000D01*
G75*
G02*
X155702500Y-79856250I0J268750D01*
G01*
X155702500Y-78893750D01*
G75*
G02*
X155971250Y-78625000I268750J0D01*
G01*
X156508750Y-78625000D01*
G75*
G02*
X156777500Y-78893750I0J-268750D01*
G01*
G37*
G36*
G01*
X158652500Y-78893750D02*
X158652500Y-79856250D01*
G75*
G02*
X158383750Y-80125000I-268750J0D01*
G01*
X157846250Y-80125000D01*
G75*
G02*
X157577500Y-79856250I0J268750D01*
G01*
X157577500Y-78893750D01*
G75*
G02*
X157846250Y-78625000I268750J0D01*
G01*
X158383750Y-78625000D01*
G75*
G02*
X158652500Y-78893750I0J-268750D01*
G01*
G37*
G36*
G01*
X154540000Y-92228750D02*
X154540000Y-93191250D01*
G75*
G02*
X154271250Y-93460000I-268750J0D01*
G01*
X153733750Y-93460000D01*
G75*
G02*
X153465000Y-93191250I0J268750D01*
G01*
X153465000Y-92228750D01*
G75*
G02*
X153733750Y-91960000I268750J0D01*
G01*
X154271250Y-91960000D01*
G75*
G02*
X154540000Y-92228750I0J-268750D01*
G01*
G37*
G36*
G01*
X156415000Y-92228750D02*
X156415000Y-93191250D01*
G75*
G02*
X156146250Y-93460000I-268750J0D01*
G01*
X155608750Y-93460000D01*
G75*
G02*
X155340000Y-93191250I0J268750D01*
G01*
X155340000Y-92228750D01*
G75*
G02*
X155608750Y-91960000I268750J0D01*
G01*
X156146250Y-91960000D01*
G75*
G02*
X156415000Y-92228750I0J-268750D01*
G01*
G37*
D15*
X160020000Y-111800000D03*
G36*
G01*
X160820000Y-115150000D02*
X159220000Y-115150000D01*
G75*
G02*
X159170000Y-115100000I0J50000D01*
G01*
X159170000Y-113500000D01*
G75*
G02*
X159220000Y-113450000I50000J0D01*
G01*
X160820000Y-113450000D01*
G75*
G02*
X160870000Y-113500000I0J-50000D01*
G01*
X160870000Y-115100000D01*
G75*
G02*
X160820000Y-115150000I-50000J0D01*
G01*
G37*
G36*
G01*
X158360000Y-75145000D02*
X158360000Y-73445000D01*
G75*
G02*
X158410000Y-73395000I50000J0D01*
G01*
X159710000Y-73395000D01*
G75*
G02*
X159760000Y-73445000I0J-50000D01*
G01*
X159760000Y-75145000D01*
G75*
G02*
X159710000Y-75195000I-50000J0D01*
G01*
X158410000Y-75195000D01*
G75*
G02*
X158360000Y-75145000I0J50000D01*
G01*
G37*
G36*
G01*
X161860000Y-75145000D02*
X161860000Y-73445000D01*
G75*
G02*
X161910000Y-73395000I50000J0D01*
G01*
X163210000Y-73395000D01*
G75*
G02*
X163260000Y-73445000I0J-50000D01*
G01*
X163260000Y-75145000D01*
G75*
G02*
X163210000Y-75195000I-50000J0D01*
G01*
X161910000Y-75195000D01*
G75*
G02*
X161860000Y-75145000I0J50000D01*
G01*
G37*
M02*
