M48
; DRILL file {KiCad (5.1.10)-1} date 07/28/21 22:29:52
; FORMAT={-:-/ absolute / metric / decimal}
; #@! TF.CreationDate,2021-07-28T22:29:52+09:30
; #@! TF.GenerationSoftware,Kicad,Pcbnew,(5.1.10)-1
; #@! TF.FileFunction,Plated,1,2,PTH
FMAT,2
METRIC
T1C0.400
T2C0.800
T3C1.000
T4C1.020
%
G90
G05
T1
X113.665Y-80.01
X147.955Y-99.695
X149.225Y-81.915
X149.225Y-85.725
X150.495Y-83.093
X150.495Y-85.09
X151.13Y-88.265
X152.04Y-104.5
X152.4Y-73.66
X152.675Y-81.005
X152.853Y-93.133
X153.67Y-88.265
X154.94Y-69.85
X156.118Y-77.5
X157.48Y-74.295
X157.48Y-90.17
X158.75Y-65.405
X158.75Y-88.9
X159.385Y-80.645
X160.655Y-71.12
T2
X160.02Y-111.8
X160.02Y-114.3
T3
X115.57Y-66.675
X115.57Y-69.215
X115.57Y-71.755
X115.57Y-74.295
X115.57Y-76.835
X115.57Y-83.185
X115.57Y-85.725
X115.57Y-88.265
X115.57Y-90.805
X118.11Y-66.675
X118.11Y-69.215
X118.11Y-71.755
X118.11Y-74.295
X118.11Y-76.835
X118.11Y-83.185
X118.11Y-85.725
X118.11Y-88.265
X118.11Y-90.805
X120.815Y-99.736
X120.815Y-102.276
X120.815Y-104.816
X120.815Y-107.356
X120.815Y-109.896
X120.815Y-112.436
X166.37Y-73.66
X166.37Y-76.2
X166.37Y-78.74
X166.37Y-81.28
X166.37Y-83.82
X166.37Y-86.36
X166.37Y-88.9
X166.37Y-91.44
X166.37Y-93.98
X166.37Y-96.52
X166.37Y-99.06
X166.37Y-101.6
X166.37Y-104.14
X166.37Y-106.68
X166.37Y-109.22
X166.37Y-111.76
X166.37Y-114.3
X168.91Y-73.66
X168.91Y-76.2
X168.91Y-78.74
X168.91Y-81.28
X168.91Y-83.82
X168.91Y-86.36
X168.91Y-88.9
X168.91Y-91.44
X168.91Y-93.98
X168.91Y-96.52
X168.91Y-99.06
X168.91Y-101.6
X168.91Y-104.14
X168.91Y-106.68
X168.91Y-109.22
X168.91Y-111.76
X168.91Y-114.3
T4
X127.0Y-66.675
X127.0Y-69.215
X127.0Y-71.755
X127.0Y-74.295
X127.0Y-76.835
X127.0Y-79.375
X127.0Y-81.915
X127.0Y-84.455
X127.0Y-86.995
X127.0Y-89.535
X127.0Y-92.075
X127.0Y-94.615
X127.0Y-97.155
X127.0Y-99.695
X127.0Y-102.235
X127.0Y-104.775
X127.0Y-107.315
X127.0Y-109.855
X127.0Y-112.395
X127.0Y-114.935
X133.35Y-114.705
X135.89Y-114.705
X138.43Y-114.705
X144.78Y-66.675
X144.78Y-69.215
X144.78Y-71.755
X144.78Y-74.295
X144.78Y-76.835
X144.78Y-79.375
X144.78Y-81.915
X144.78Y-84.455
X144.78Y-86.995
X144.78Y-89.535
X144.78Y-92.075
X144.78Y-94.615
X144.78Y-97.155
X144.78Y-99.695
X144.78Y-102.235
X144.78Y-104.775
X144.78Y-107.315
X144.78Y-109.855
X144.78Y-112.395
X144.78Y-114.935
T0
M30
