%FSLAX45Y45*%
G04 Gerber Fmt 4.5, Leading zero omitted, Abs format (unit mm)*
G04 Created by KiCad (PCBNEW (5.1.10)-1) date 2021-07-28 22:30:25*
%MOMM*%
%LPD*%
G01*
G04 APERTURE LIST*
%TA.AperFunction,Profile*%
%ADD10C,0.050000*%
%TD*%
%ADD11C,0.200000*%
%ADD12C,0.300000*%
G04 APERTURE END LIST*
D10*
X17145000Y-11811000D02*
X11239500Y-11811000D01*
X11239500Y-6350000D02*
X17145000Y-6350000D01*
X11239500Y-6350000D02*
X11239500Y-11811000D01*
X17145000Y-11811000D02*
X17145000Y-6350000D01*
D11*
X11346500Y-7981000D02*
X11386500Y-8021000D01*
X11386500Y-7981000D02*
X11346500Y-8021000D01*
X14775500Y-9949500D02*
X14815500Y-9989500D01*
X14815500Y-9949500D02*
X14775500Y-9989500D01*
X14902500Y-8171500D02*
X14942500Y-8211500D01*
X14942500Y-8171500D02*
X14902500Y-8211500D01*
X14902500Y-8552500D02*
X14942500Y-8592500D01*
X14942500Y-8552500D02*
X14902500Y-8592500D01*
X15029500Y-8289299D02*
X15069500Y-8329299D01*
X15069500Y-8289299D02*
X15029500Y-8329299D01*
X15029500Y-8489000D02*
X15069500Y-8529000D01*
X15069500Y-8489000D02*
X15029500Y-8529000D01*
X15093000Y-8806500D02*
X15133000Y-8846500D01*
X15133000Y-8806500D02*
X15093000Y-8846500D01*
X15184000Y-10430000D02*
X15224000Y-10470000D01*
X15224000Y-10430000D02*
X15184000Y-10470000D01*
X15220000Y-7346000D02*
X15260000Y-7386000D01*
X15260000Y-7346000D02*
X15220000Y-7386000D01*
X15247500Y-8080500D02*
X15287500Y-8120500D01*
X15287500Y-8080500D02*
X15247500Y-8120500D01*
X15265343Y-9293343D02*
X15305343Y-9333343D01*
X15305343Y-9293343D02*
X15265343Y-9333343D01*
X15347000Y-8806500D02*
X15387000Y-8846500D01*
X15387000Y-8806500D02*
X15347000Y-8846500D01*
X15474000Y-6965000D02*
X15514000Y-7005000D01*
X15514000Y-6965000D02*
X15474000Y-7005000D01*
X15591799Y-7730000D02*
X15631799Y-7770000D01*
X15631799Y-7730000D02*
X15591799Y-7770000D01*
X15728000Y-7409500D02*
X15768000Y-7449500D01*
X15768000Y-7409500D02*
X15728000Y-7449500D01*
X15728000Y-8997000D02*
X15768000Y-9037000D01*
X15768000Y-8997000D02*
X15728000Y-9037000D01*
X15855000Y-6520500D02*
X15895000Y-6560500D01*
X15895000Y-6520500D02*
X15855000Y-6560500D01*
X15855000Y-8870000D02*
X15895000Y-8910000D01*
X15895000Y-8870000D02*
X15855000Y-8910000D01*
X15918500Y-8044500D02*
X15958500Y-8084500D01*
X15958500Y-8044500D02*
X15918500Y-8084500D01*
X16045500Y-7091987D02*
X16085500Y-7131987D01*
X16085500Y-7091987D02*
X16045500Y-7131987D01*
X16042000Y-11180000D02*
G75*
G03*
X16042000Y-11180000I-40000J0D01*
G01*
X16042000Y-11430000D02*
G75*
G03*
X16042000Y-11430000I-40000J0D01*
G01*
X11557000Y-6617500D02*
X11557000Y-6717500D01*
X11507000Y-6667500D02*
X11607000Y-6667500D01*
X11557000Y-6871500D02*
X11557000Y-6971500D01*
X11507000Y-6921500D02*
X11607000Y-6921500D01*
X11557000Y-7125500D02*
X11557000Y-7225500D01*
X11507000Y-7175500D02*
X11607000Y-7175500D01*
X11557000Y-7379500D02*
X11557000Y-7479500D01*
X11507000Y-7429500D02*
X11607000Y-7429500D01*
X11557000Y-7633500D02*
X11557000Y-7733500D01*
X11507000Y-7683500D02*
X11607000Y-7683500D01*
X11557000Y-8268500D02*
X11557000Y-8368500D01*
X11507000Y-8318500D02*
X11607000Y-8318500D01*
X11557000Y-8522500D02*
X11557000Y-8622500D01*
X11507000Y-8572500D02*
X11607000Y-8572500D01*
X11557000Y-8776500D02*
X11557000Y-8876500D01*
X11507000Y-8826500D02*
X11607000Y-8826500D01*
X11557000Y-9030500D02*
X11557000Y-9130500D01*
X11507000Y-9080500D02*
X11607000Y-9080500D01*
X11811000Y-6617500D02*
X11811000Y-6717500D01*
X11761000Y-6667500D02*
X11861000Y-6667500D01*
X11811000Y-6871500D02*
X11811000Y-6971500D01*
X11761000Y-6921500D02*
X11861000Y-6921500D01*
X11811000Y-7125500D02*
X11811000Y-7225500D01*
X11761000Y-7175500D02*
X11861000Y-7175500D01*
X11811000Y-7379500D02*
X11811000Y-7479500D01*
X11761000Y-7429500D02*
X11861000Y-7429500D01*
X11811000Y-7633500D02*
X11811000Y-7733500D01*
X11761000Y-7683500D02*
X11861000Y-7683500D01*
X11811000Y-8268500D02*
X11811000Y-8368500D01*
X11761000Y-8318500D02*
X11861000Y-8318500D01*
X11811000Y-8522500D02*
X11811000Y-8622500D01*
X11761000Y-8572500D02*
X11861000Y-8572500D01*
X11811000Y-8776500D02*
X11811000Y-8876500D01*
X11761000Y-8826500D02*
X11861000Y-8826500D01*
X11811000Y-9030500D02*
X11811000Y-9130500D01*
X11761000Y-9080500D02*
X11861000Y-9080500D01*
X12081510Y-9923564D02*
X12081510Y-10023564D01*
X12031510Y-9973564D02*
X12131510Y-9973564D01*
X12081510Y-10177564D02*
X12081510Y-10277564D01*
X12031510Y-10227564D02*
X12131510Y-10227564D01*
X12081510Y-10431564D02*
X12081510Y-10531564D01*
X12031510Y-10481564D02*
X12131510Y-10481564D01*
X12081510Y-10685564D02*
X12081510Y-10785564D01*
X12031510Y-10735564D02*
X12131510Y-10735564D01*
X12081510Y-10939564D02*
X12081510Y-11039564D01*
X12031510Y-10989564D02*
X12131510Y-10989564D01*
X12081510Y-11193564D02*
X12081510Y-11293564D01*
X12031510Y-11243564D02*
X12131510Y-11243564D01*
X16637000Y-7316000D02*
X16637000Y-7416000D01*
X16587000Y-7366000D02*
X16687000Y-7366000D01*
X16637000Y-7570000D02*
X16637000Y-7670000D01*
X16587000Y-7620000D02*
X16687000Y-7620000D01*
X16637000Y-7824000D02*
X16637000Y-7924000D01*
X16587000Y-7874000D02*
X16687000Y-7874000D01*
X16637000Y-8078000D02*
X16637000Y-8178000D01*
X16587000Y-8128000D02*
X16687000Y-8128000D01*
X16637000Y-8332000D02*
X16637000Y-8432000D01*
X16587000Y-8382000D02*
X16687000Y-8382000D01*
X16637000Y-8586000D02*
X16637000Y-8686000D01*
X16587000Y-8636000D02*
X16687000Y-8636000D01*
X16637000Y-8840000D02*
X16637000Y-8940000D01*
X16587000Y-8890000D02*
X16687000Y-8890000D01*
X16637000Y-9094000D02*
X16637000Y-9194000D01*
X16587000Y-9144000D02*
X16687000Y-9144000D01*
X16637000Y-9348000D02*
X16637000Y-9448000D01*
X16587000Y-9398000D02*
X16687000Y-9398000D01*
X16637000Y-9602000D02*
X16637000Y-9702000D01*
X16587000Y-9652000D02*
X16687000Y-9652000D01*
X16637000Y-9856000D02*
X16637000Y-9956000D01*
X16587000Y-9906000D02*
X16687000Y-9906000D01*
X16637000Y-10110000D02*
X16637000Y-10210000D01*
X16587000Y-10160000D02*
X16687000Y-10160000D01*
X16637000Y-10364000D02*
X16637000Y-10464000D01*
X16587000Y-10414000D02*
X16687000Y-10414000D01*
X16637000Y-10618000D02*
X16637000Y-10718000D01*
X16587000Y-10668000D02*
X16687000Y-10668000D01*
X16637000Y-10872000D02*
X16637000Y-10972000D01*
X16587000Y-10922000D02*
X16687000Y-10922000D01*
X16637000Y-11126000D02*
X16637000Y-11226000D01*
X16587000Y-11176000D02*
X16687000Y-11176000D01*
X16637000Y-11380000D02*
X16637000Y-11480000D01*
X16587000Y-11430000D02*
X16687000Y-11430000D01*
X16891000Y-7316000D02*
X16891000Y-7416000D01*
X16841000Y-7366000D02*
X16941000Y-7366000D01*
X16891000Y-7570000D02*
X16891000Y-7670000D01*
X16841000Y-7620000D02*
X16941000Y-7620000D01*
X16891000Y-7824000D02*
X16891000Y-7924000D01*
X16841000Y-7874000D02*
X16941000Y-7874000D01*
X16891000Y-8078000D02*
X16891000Y-8178000D01*
X16841000Y-8128000D02*
X16941000Y-8128000D01*
X16891000Y-8332000D02*
X16891000Y-8432000D01*
X16841000Y-8382000D02*
X16941000Y-8382000D01*
X16891000Y-8586000D02*
X16891000Y-8686000D01*
X16841000Y-8636000D02*
X16941000Y-8636000D01*
X16891000Y-8840000D02*
X16891000Y-8940000D01*
X16841000Y-8890000D02*
X16941000Y-8890000D01*
X16891000Y-9094000D02*
X16891000Y-9194000D01*
X16841000Y-9144000D02*
X16941000Y-9144000D01*
X16891000Y-9348000D02*
X16891000Y-9448000D01*
X16841000Y-9398000D02*
X16941000Y-9398000D01*
X16891000Y-9602000D02*
X16891000Y-9702000D01*
X16841000Y-9652000D02*
X16941000Y-9652000D01*
X16891000Y-9856000D02*
X16891000Y-9956000D01*
X16841000Y-9906000D02*
X16941000Y-9906000D01*
X16891000Y-10110000D02*
X16891000Y-10210000D01*
X16841000Y-10160000D02*
X16941000Y-10160000D01*
X16891000Y-10364000D02*
X16891000Y-10464000D01*
X16841000Y-10414000D02*
X16941000Y-10414000D01*
X16891000Y-10618000D02*
X16891000Y-10718000D01*
X16841000Y-10668000D02*
X16941000Y-10668000D01*
X16891000Y-10872000D02*
X16891000Y-10972000D01*
X16841000Y-10922000D02*
X16941000Y-10922000D01*
X16891000Y-11126000D02*
X16891000Y-11226000D01*
X16841000Y-11176000D02*
X16941000Y-11176000D01*
X16891000Y-11380000D02*
X16891000Y-11480000D01*
X16841000Y-11430000D02*
X16941000Y-11430000D01*
X12736063Y-6703563D02*
X12736063Y-6631437D01*
X12663937Y-6631437D01*
X12663937Y-6703563D01*
X12736063Y-6703563D01*
X12736063Y-6957563D02*
X12736063Y-6885437D01*
X12663937Y-6885437D01*
X12663937Y-6957563D01*
X12736063Y-6957563D01*
X12736063Y-7211563D02*
X12736063Y-7139437D01*
X12663937Y-7139437D01*
X12663937Y-7211563D01*
X12736063Y-7211563D01*
X12736063Y-7465563D02*
X12736063Y-7393437D01*
X12663937Y-7393437D01*
X12663937Y-7465563D01*
X12736063Y-7465563D01*
X12736063Y-7719563D02*
X12736063Y-7647437D01*
X12663937Y-7647437D01*
X12663937Y-7719563D01*
X12736063Y-7719563D01*
X12736063Y-7973563D02*
X12736063Y-7901437D01*
X12663937Y-7901437D01*
X12663937Y-7973563D01*
X12736063Y-7973563D01*
X12736063Y-8227563D02*
X12736063Y-8155437D01*
X12663937Y-8155437D01*
X12663937Y-8227563D01*
X12736063Y-8227563D01*
X12736063Y-8481563D02*
X12736063Y-8409437D01*
X12663937Y-8409437D01*
X12663937Y-8481563D01*
X12736063Y-8481563D01*
X12736063Y-8735563D02*
X12736063Y-8663437D01*
X12663937Y-8663437D01*
X12663937Y-8735563D01*
X12736063Y-8735563D01*
X12736063Y-8989563D02*
X12736063Y-8917437D01*
X12663937Y-8917437D01*
X12663937Y-8989563D01*
X12736063Y-8989563D01*
X12736063Y-9243563D02*
X12736063Y-9171437D01*
X12663937Y-9171437D01*
X12663937Y-9243563D01*
X12736063Y-9243563D01*
X12736063Y-9497563D02*
X12736063Y-9425437D01*
X12663937Y-9425437D01*
X12663937Y-9497563D01*
X12736063Y-9497563D01*
X12736063Y-9751563D02*
X12736063Y-9679437D01*
X12663937Y-9679437D01*
X12663937Y-9751563D01*
X12736063Y-9751563D01*
X12736063Y-10005563D02*
X12736063Y-9933437D01*
X12663937Y-9933437D01*
X12663937Y-10005563D01*
X12736063Y-10005563D01*
X12736063Y-10259563D02*
X12736063Y-10187437D01*
X12663937Y-10187437D01*
X12663937Y-10259563D01*
X12736063Y-10259563D01*
X12736063Y-10513563D02*
X12736063Y-10441437D01*
X12663937Y-10441437D01*
X12663937Y-10513563D01*
X12736063Y-10513563D01*
X12736063Y-10767563D02*
X12736063Y-10695437D01*
X12663937Y-10695437D01*
X12663937Y-10767563D01*
X12736063Y-10767563D01*
X12736063Y-11021563D02*
X12736063Y-10949437D01*
X12663937Y-10949437D01*
X12663937Y-11021563D01*
X12736063Y-11021563D01*
X12736063Y-11275563D02*
X12736063Y-11203437D01*
X12663937Y-11203437D01*
X12663937Y-11275563D01*
X12736063Y-11275563D01*
X12736063Y-11529563D02*
X12736063Y-11457437D01*
X12663937Y-11457437D01*
X12663937Y-11529563D01*
X12736063Y-11529563D01*
X13371063Y-11506563D02*
X13371063Y-11434437D01*
X13298937Y-11434437D01*
X13298937Y-11506563D01*
X13371063Y-11506563D01*
X13625063Y-11506563D02*
X13625063Y-11434437D01*
X13552937Y-11434437D01*
X13552937Y-11506563D01*
X13625063Y-11506563D01*
X13879063Y-11506563D02*
X13879063Y-11434437D01*
X13806937Y-11434437D01*
X13806937Y-11506563D01*
X13879063Y-11506563D01*
X14514063Y-6703563D02*
X14514063Y-6631437D01*
X14441937Y-6631437D01*
X14441937Y-6703563D01*
X14514063Y-6703563D01*
X14514063Y-6957563D02*
X14514063Y-6885437D01*
X14441937Y-6885437D01*
X14441937Y-6957563D01*
X14514063Y-6957563D01*
X14514063Y-7211563D02*
X14514063Y-7139437D01*
X14441937Y-7139437D01*
X14441937Y-7211563D01*
X14514063Y-7211563D01*
X14514063Y-7465563D02*
X14514063Y-7393437D01*
X14441937Y-7393437D01*
X14441937Y-7465563D01*
X14514063Y-7465563D01*
X14514063Y-7719563D02*
X14514063Y-7647437D01*
X14441937Y-7647437D01*
X14441937Y-7719563D01*
X14514063Y-7719563D01*
X14514063Y-7973563D02*
X14514063Y-7901437D01*
X14441937Y-7901437D01*
X14441937Y-7973563D01*
X14514063Y-7973563D01*
X14514063Y-8227563D02*
X14514063Y-8155437D01*
X14441937Y-8155437D01*
X14441937Y-8227563D01*
X14514063Y-8227563D01*
X14514063Y-8481563D02*
X14514063Y-8409437D01*
X14441937Y-8409437D01*
X14441937Y-8481563D01*
X14514063Y-8481563D01*
X14514063Y-8735563D02*
X14514063Y-8663437D01*
X14441937Y-8663437D01*
X14441937Y-8735563D01*
X14514063Y-8735563D01*
X14514063Y-8989563D02*
X14514063Y-8917437D01*
X14441937Y-8917437D01*
X14441937Y-8989563D01*
X14514063Y-8989563D01*
X14514063Y-9243563D02*
X14514063Y-9171437D01*
X14441937Y-9171437D01*
X14441937Y-9243563D01*
X14514063Y-9243563D01*
X14514063Y-9497563D02*
X14514063Y-9425437D01*
X14441937Y-9425437D01*
X14441937Y-9497563D01*
X14514063Y-9497563D01*
X14514063Y-9751563D02*
X14514063Y-9679437D01*
X14441937Y-9679437D01*
X14441937Y-9751563D01*
X14514063Y-9751563D01*
X14514063Y-10005563D02*
X14514063Y-9933437D01*
X14441937Y-9933437D01*
X14441937Y-10005563D01*
X14514063Y-10005563D01*
X14514063Y-10259563D02*
X14514063Y-10187437D01*
X14441937Y-10187437D01*
X14441937Y-10259563D01*
X14514063Y-10259563D01*
X14514063Y-10513563D02*
X14514063Y-10441437D01*
X14441937Y-10441437D01*
X14441937Y-10513563D01*
X14514063Y-10513563D01*
X14514063Y-10767563D02*
X14514063Y-10695437D01*
X14441937Y-10695437D01*
X14441937Y-10767563D01*
X14514063Y-10767563D01*
X14514063Y-11021563D02*
X14514063Y-10949437D01*
X14441937Y-10949437D01*
X14441937Y-11021563D01*
X14514063Y-11021563D01*
X14514063Y-11275563D02*
X14514063Y-11203437D01*
X14441937Y-11203437D01*
X14441937Y-11275563D01*
X14514063Y-11275563D01*
X14514063Y-11529563D02*
X14514063Y-11457437D01*
X14441937Y-11457437D01*
X14441937Y-11529563D01*
X14514063Y-11529563D01*
D12*
X11523428Y-12279214D02*
X11523428Y-11979214D01*
X11594857Y-11979214D01*
X11637714Y-11993500D01*
X11666286Y-12022071D01*
X11680571Y-12050643D01*
X11694857Y-12107786D01*
X11694857Y-12150643D01*
X11680571Y-12207786D01*
X11666286Y-12236357D01*
X11637714Y-12264929D01*
X11594857Y-12279214D01*
X11523428Y-12279214D01*
X11823428Y-12279214D02*
X11823428Y-12079214D01*
X11823428Y-12136357D02*
X11837714Y-12107786D01*
X11852000Y-12093500D01*
X11880571Y-12079214D01*
X11909143Y-12079214D01*
X12009143Y-12279214D02*
X12009143Y-12079214D01*
X12009143Y-11979214D02*
X11994857Y-11993500D01*
X12009143Y-12007786D01*
X12023428Y-11993500D01*
X12009143Y-11979214D01*
X12009143Y-12007786D01*
X12194857Y-12279214D02*
X12166286Y-12264929D01*
X12152000Y-12236357D01*
X12152000Y-11979214D01*
X12352000Y-12279214D02*
X12323428Y-12264929D01*
X12309143Y-12236357D01*
X12309143Y-11979214D01*
X12694857Y-12279214D02*
X12694857Y-11979214D01*
X12794857Y-12193500D01*
X12894857Y-11979214D01*
X12894857Y-12279214D01*
X13166286Y-12279214D02*
X13166286Y-12122071D01*
X13152000Y-12093500D01*
X13123428Y-12079214D01*
X13066286Y-12079214D01*
X13037714Y-12093500D01*
X13166286Y-12264929D02*
X13137714Y-12279214D01*
X13066286Y-12279214D01*
X13037714Y-12264929D01*
X13023428Y-12236357D01*
X13023428Y-12207786D01*
X13037714Y-12179214D01*
X13066286Y-12164929D01*
X13137714Y-12164929D01*
X13166286Y-12150643D01*
X13309143Y-12079214D02*
X13309143Y-12379214D01*
X13309143Y-12093500D02*
X13337714Y-12079214D01*
X13394857Y-12079214D01*
X13423428Y-12093500D01*
X13437714Y-12107786D01*
X13452000Y-12136357D01*
X13452000Y-12222071D01*
X13437714Y-12250643D01*
X13423428Y-12264929D01*
X13394857Y-12279214D01*
X13337714Y-12279214D01*
X13309143Y-12264929D01*
X13580571Y-12250643D02*
X13594857Y-12264929D01*
X13580571Y-12279214D01*
X13566286Y-12264929D01*
X13580571Y-12250643D01*
X13580571Y-12279214D01*
X13580571Y-12093500D02*
X13594857Y-12107786D01*
X13580571Y-12122071D01*
X13566286Y-12107786D01*
X13580571Y-12093500D01*
X13580571Y-12122071D01*
X11197000Y-12753500D02*
X11237000Y-12793500D01*
X11237000Y-12753500D02*
X11197000Y-12793500D01*
X11580571Y-12609214D02*
X11609143Y-12609214D01*
X11637714Y-12623500D01*
X11652000Y-12637786D01*
X11666286Y-12666357D01*
X11680571Y-12723500D01*
X11680571Y-12794929D01*
X11666286Y-12852071D01*
X11652000Y-12880643D01*
X11637714Y-12894929D01*
X11609143Y-12909214D01*
X11580571Y-12909214D01*
X11552000Y-12894929D01*
X11537714Y-12880643D01*
X11523428Y-12852071D01*
X11509143Y-12794929D01*
X11509143Y-12723500D01*
X11523428Y-12666357D01*
X11537714Y-12637786D01*
X11552000Y-12623500D01*
X11580571Y-12609214D01*
X11809143Y-12880643D02*
X11823428Y-12894929D01*
X11809143Y-12909214D01*
X11794857Y-12894929D01*
X11809143Y-12880643D01*
X11809143Y-12909214D01*
X12080571Y-12709214D02*
X12080571Y-12909214D01*
X12009143Y-12594929D02*
X11937714Y-12809214D01*
X12123428Y-12809214D01*
X12294857Y-12609214D02*
X12323428Y-12609214D01*
X12352000Y-12623500D01*
X12366286Y-12637786D01*
X12380571Y-12666357D01*
X12394857Y-12723500D01*
X12394857Y-12794929D01*
X12380571Y-12852071D01*
X12366286Y-12880643D01*
X12352000Y-12894929D01*
X12323428Y-12909214D01*
X12294857Y-12909214D01*
X12266286Y-12894929D01*
X12252000Y-12880643D01*
X12237714Y-12852071D01*
X12223428Y-12794929D01*
X12223428Y-12723500D01*
X12237714Y-12666357D01*
X12252000Y-12637786D01*
X12266286Y-12623500D01*
X12294857Y-12609214D01*
X12580571Y-12609214D02*
X12609143Y-12609214D01*
X12637714Y-12623500D01*
X12652000Y-12637786D01*
X12666286Y-12666357D01*
X12680571Y-12723500D01*
X12680571Y-12794929D01*
X12666286Y-12852071D01*
X12652000Y-12880643D01*
X12637714Y-12894929D01*
X12609143Y-12909214D01*
X12580571Y-12909214D01*
X12552000Y-12894929D01*
X12537714Y-12880643D01*
X12523428Y-12852071D01*
X12509143Y-12794929D01*
X12509143Y-12723500D01*
X12523428Y-12666357D01*
X12537714Y-12637786D01*
X12552000Y-12623500D01*
X12580571Y-12609214D01*
X12809143Y-12909214D02*
X12809143Y-12709214D01*
X12809143Y-12737786D02*
X12823428Y-12723500D01*
X12852000Y-12709214D01*
X12894857Y-12709214D01*
X12923428Y-12723500D01*
X12937714Y-12752071D01*
X12937714Y-12909214D01*
X12937714Y-12752071D02*
X12952000Y-12723500D01*
X12980571Y-12709214D01*
X13023428Y-12709214D01*
X13052000Y-12723500D01*
X13066286Y-12752071D01*
X13066286Y-12909214D01*
X13209143Y-12909214D02*
X13209143Y-12709214D01*
X13209143Y-12737786D02*
X13223428Y-12723500D01*
X13252000Y-12709214D01*
X13294857Y-12709214D01*
X13323428Y-12723500D01*
X13337714Y-12752071D01*
X13337714Y-12909214D01*
X13337714Y-12752071D02*
X13352000Y-12723500D01*
X13380571Y-12709214D01*
X13423428Y-12709214D01*
X13452000Y-12723500D01*
X13466286Y-12752071D01*
X13466286Y-12909214D01*
X14052000Y-12594929D02*
X13794857Y-12980643D01*
X14437714Y-12609214D02*
X14466286Y-12609214D01*
X14494857Y-12623500D01*
X14509143Y-12637786D01*
X14523428Y-12666357D01*
X14537714Y-12723500D01*
X14537714Y-12794929D01*
X14523428Y-12852071D01*
X14509143Y-12880643D01*
X14494857Y-12894929D01*
X14466286Y-12909214D01*
X14437714Y-12909214D01*
X14409143Y-12894929D01*
X14394857Y-12880643D01*
X14380571Y-12852071D01*
X14366286Y-12794929D01*
X14366286Y-12723500D01*
X14380571Y-12666357D01*
X14394857Y-12637786D01*
X14409143Y-12623500D01*
X14437714Y-12609214D01*
X14666286Y-12880643D02*
X14680571Y-12894929D01*
X14666286Y-12909214D01*
X14652000Y-12894929D01*
X14666286Y-12880643D01*
X14666286Y-12909214D01*
X14866286Y-12609214D02*
X14894857Y-12609214D01*
X14923428Y-12623500D01*
X14937714Y-12637786D01*
X14952000Y-12666357D01*
X14966286Y-12723500D01*
X14966286Y-12794929D01*
X14952000Y-12852071D01*
X14937714Y-12880643D01*
X14923428Y-12894929D01*
X14894857Y-12909214D01*
X14866286Y-12909214D01*
X14837714Y-12894929D01*
X14823428Y-12880643D01*
X14809143Y-12852071D01*
X14794857Y-12794929D01*
X14794857Y-12723500D01*
X14809143Y-12666357D01*
X14823428Y-12637786D01*
X14837714Y-12623500D01*
X14866286Y-12609214D01*
X15252000Y-12909214D02*
X15080571Y-12909214D01*
X15166286Y-12909214D02*
X15166286Y-12609214D01*
X15137714Y-12652071D01*
X15109143Y-12680643D01*
X15080571Y-12694929D01*
X15523428Y-12609214D02*
X15380571Y-12609214D01*
X15366286Y-12752071D01*
X15380571Y-12737786D01*
X15409143Y-12723500D01*
X15480571Y-12723500D01*
X15509143Y-12737786D01*
X15523428Y-12752071D01*
X15537714Y-12780643D01*
X15537714Y-12852071D01*
X15523428Y-12880643D01*
X15509143Y-12894929D01*
X15480571Y-12909214D01*
X15409143Y-12909214D01*
X15380571Y-12894929D01*
X15366286Y-12880643D01*
X15637714Y-12609214D02*
X15837714Y-12609214D01*
X15709143Y-12909214D01*
X15937714Y-12609214D02*
X15937714Y-12666357D01*
X16052000Y-12609214D02*
X16052000Y-12666357D01*
X16494857Y-13023500D02*
X16480571Y-13009214D01*
X16452000Y-12966357D01*
X16437714Y-12937786D01*
X16423428Y-12894929D01*
X16409143Y-12823500D01*
X16409143Y-12766357D01*
X16423428Y-12694929D01*
X16437714Y-12652071D01*
X16452000Y-12623500D01*
X16480571Y-12580643D01*
X16494857Y-12566357D01*
X16594857Y-12637786D02*
X16609143Y-12623500D01*
X16637714Y-12609214D01*
X16709143Y-12609214D01*
X16737714Y-12623500D01*
X16752000Y-12637786D01*
X16766286Y-12666357D01*
X16766286Y-12694929D01*
X16752000Y-12737786D01*
X16580571Y-12909214D01*
X16766286Y-12909214D01*
X16952000Y-12609214D02*
X16980571Y-12609214D01*
X17009143Y-12623500D01*
X17023428Y-12637786D01*
X17037714Y-12666357D01*
X17052000Y-12723500D01*
X17052000Y-12794929D01*
X17037714Y-12852071D01*
X17023428Y-12880643D01*
X17009143Y-12894929D01*
X16980571Y-12909214D01*
X16952000Y-12909214D01*
X16923428Y-12894929D01*
X16909143Y-12880643D01*
X16894857Y-12852071D01*
X16880571Y-12794929D01*
X16880571Y-12723500D01*
X16894857Y-12666357D01*
X16909143Y-12637786D01*
X16923428Y-12623500D01*
X16952000Y-12609214D01*
X17409143Y-12909214D02*
X17409143Y-12609214D01*
X17537714Y-12909214D02*
X17537714Y-12752071D01*
X17523428Y-12723500D01*
X17494857Y-12709214D01*
X17452000Y-12709214D01*
X17423428Y-12723500D01*
X17409143Y-12737786D01*
X17723428Y-12909214D02*
X17694857Y-12894929D01*
X17680571Y-12880643D01*
X17666286Y-12852071D01*
X17666286Y-12766357D01*
X17680571Y-12737786D01*
X17694857Y-12723500D01*
X17723428Y-12709214D01*
X17766286Y-12709214D01*
X17794857Y-12723500D01*
X17809143Y-12737786D01*
X17823428Y-12766357D01*
X17823428Y-12852071D01*
X17809143Y-12880643D01*
X17794857Y-12894929D01*
X17766286Y-12909214D01*
X17723428Y-12909214D01*
X17994857Y-12909214D02*
X17966286Y-12894929D01*
X17952000Y-12866357D01*
X17952000Y-12609214D01*
X18223428Y-12894929D02*
X18194857Y-12909214D01*
X18137714Y-12909214D01*
X18109143Y-12894929D01*
X18094857Y-12866357D01*
X18094857Y-12752071D01*
X18109143Y-12723500D01*
X18137714Y-12709214D01*
X18194857Y-12709214D01*
X18223428Y-12723500D01*
X18237714Y-12752071D01*
X18237714Y-12780643D01*
X18094857Y-12809214D01*
X18352000Y-12894929D02*
X18380571Y-12909214D01*
X18437714Y-12909214D01*
X18466286Y-12894929D01*
X18480571Y-12866357D01*
X18480571Y-12852071D01*
X18466286Y-12823500D01*
X18437714Y-12809214D01*
X18394857Y-12809214D01*
X18366286Y-12794929D01*
X18352000Y-12766357D01*
X18352000Y-12752071D01*
X18366286Y-12723500D01*
X18394857Y-12709214D01*
X18437714Y-12709214D01*
X18466286Y-12723500D01*
X18580571Y-13023500D02*
X18594857Y-13009214D01*
X18623428Y-12966357D01*
X18637714Y-12937786D01*
X18652000Y-12894929D01*
X18666286Y-12823500D01*
X18666286Y-12766357D01*
X18652000Y-12694929D01*
X18637714Y-12652071D01*
X18623428Y-12623500D01*
X18594857Y-12580643D01*
X18580571Y-12566357D01*
X11237000Y-13169500D02*
G75*
G03*
X11237000Y-13169500I-40000J0D01*
G01*
X11580571Y-13005214D02*
X11609143Y-13005214D01*
X11637714Y-13019500D01*
X11652000Y-13033786D01*
X11666286Y-13062357D01*
X11680571Y-13119500D01*
X11680571Y-13190929D01*
X11666286Y-13248071D01*
X11652000Y-13276643D01*
X11637714Y-13290929D01*
X11609143Y-13305214D01*
X11580571Y-13305214D01*
X11552000Y-13290929D01*
X11537714Y-13276643D01*
X11523428Y-13248071D01*
X11509143Y-13190929D01*
X11509143Y-13119500D01*
X11523428Y-13062357D01*
X11537714Y-13033786D01*
X11552000Y-13019500D01*
X11580571Y-13005214D01*
X11809143Y-13276643D02*
X11823428Y-13290929D01*
X11809143Y-13305214D01*
X11794857Y-13290929D01*
X11809143Y-13276643D01*
X11809143Y-13305214D01*
X11994857Y-13133786D02*
X11966286Y-13119500D01*
X11952000Y-13105214D01*
X11937714Y-13076643D01*
X11937714Y-13062357D01*
X11952000Y-13033786D01*
X11966286Y-13019500D01*
X11994857Y-13005214D01*
X12052000Y-13005214D01*
X12080571Y-13019500D01*
X12094857Y-13033786D01*
X12109143Y-13062357D01*
X12109143Y-13076643D01*
X12094857Y-13105214D01*
X12080571Y-13119500D01*
X12052000Y-13133786D01*
X11994857Y-13133786D01*
X11966286Y-13148071D01*
X11952000Y-13162357D01*
X11937714Y-13190929D01*
X11937714Y-13248071D01*
X11952000Y-13276643D01*
X11966286Y-13290929D01*
X11994857Y-13305214D01*
X12052000Y-13305214D01*
X12080571Y-13290929D01*
X12094857Y-13276643D01*
X12109143Y-13248071D01*
X12109143Y-13190929D01*
X12094857Y-13162357D01*
X12080571Y-13148071D01*
X12052000Y-13133786D01*
X12294857Y-13005214D02*
X12323428Y-13005214D01*
X12352000Y-13019500D01*
X12366286Y-13033786D01*
X12380571Y-13062357D01*
X12394857Y-13119500D01*
X12394857Y-13190929D01*
X12380571Y-13248071D01*
X12366286Y-13276643D01*
X12352000Y-13290929D01*
X12323428Y-13305214D01*
X12294857Y-13305214D01*
X12266286Y-13290929D01*
X12252000Y-13276643D01*
X12237714Y-13248071D01*
X12223428Y-13190929D01*
X12223428Y-13119500D01*
X12237714Y-13062357D01*
X12252000Y-13033786D01*
X12266286Y-13019500D01*
X12294857Y-13005214D01*
X12580571Y-13005214D02*
X12609143Y-13005214D01*
X12637714Y-13019500D01*
X12652000Y-13033786D01*
X12666286Y-13062357D01*
X12680571Y-13119500D01*
X12680571Y-13190929D01*
X12666286Y-13248071D01*
X12652000Y-13276643D01*
X12637714Y-13290929D01*
X12609143Y-13305214D01*
X12580571Y-13305214D01*
X12552000Y-13290929D01*
X12537714Y-13276643D01*
X12523428Y-13248071D01*
X12509143Y-13190929D01*
X12509143Y-13119500D01*
X12523428Y-13062357D01*
X12537714Y-13033786D01*
X12552000Y-13019500D01*
X12580571Y-13005214D01*
X12809143Y-13305214D02*
X12809143Y-13105214D01*
X12809143Y-13133786D02*
X12823428Y-13119500D01*
X12852000Y-13105214D01*
X12894857Y-13105214D01*
X12923428Y-13119500D01*
X12937714Y-13148071D01*
X12937714Y-13305214D01*
X12937714Y-13148071D02*
X12952000Y-13119500D01*
X12980571Y-13105214D01*
X13023428Y-13105214D01*
X13052000Y-13119500D01*
X13066286Y-13148071D01*
X13066286Y-13305214D01*
X13209143Y-13305214D02*
X13209143Y-13105214D01*
X13209143Y-13133786D02*
X13223428Y-13119500D01*
X13252000Y-13105214D01*
X13294857Y-13105214D01*
X13323428Y-13119500D01*
X13337714Y-13148071D01*
X13337714Y-13305214D01*
X13337714Y-13148071D02*
X13352000Y-13119500D01*
X13380571Y-13105214D01*
X13423428Y-13105214D01*
X13452000Y-13119500D01*
X13466286Y-13148071D01*
X13466286Y-13305214D01*
X14052000Y-12990929D02*
X13794857Y-13376643D01*
X14437714Y-13005214D02*
X14466286Y-13005214D01*
X14494857Y-13019500D01*
X14509143Y-13033786D01*
X14523428Y-13062357D01*
X14537714Y-13119500D01*
X14537714Y-13190929D01*
X14523428Y-13248071D01*
X14509143Y-13276643D01*
X14494857Y-13290929D01*
X14466286Y-13305214D01*
X14437714Y-13305214D01*
X14409143Y-13290929D01*
X14394857Y-13276643D01*
X14380571Y-13248071D01*
X14366286Y-13190929D01*
X14366286Y-13119500D01*
X14380571Y-13062357D01*
X14394857Y-13033786D01*
X14409143Y-13019500D01*
X14437714Y-13005214D01*
X14666286Y-13276643D02*
X14680571Y-13290929D01*
X14666286Y-13305214D01*
X14652000Y-13290929D01*
X14666286Y-13276643D01*
X14666286Y-13305214D01*
X14866286Y-13005214D02*
X14894857Y-13005214D01*
X14923428Y-13019500D01*
X14937714Y-13033786D01*
X14952000Y-13062357D01*
X14966286Y-13119500D01*
X14966286Y-13190929D01*
X14952000Y-13248071D01*
X14937714Y-13276643D01*
X14923428Y-13290929D01*
X14894857Y-13305214D01*
X14866286Y-13305214D01*
X14837714Y-13290929D01*
X14823428Y-13276643D01*
X14809143Y-13248071D01*
X14794857Y-13190929D01*
X14794857Y-13119500D01*
X14809143Y-13062357D01*
X14823428Y-13033786D01*
X14837714Y-13019500D01*
X14866286Y-13005214D01*
X15066286Y-13005214D02*
X15252000Y-13005214D01*
X15152000Y-13119500D01*
X15194857Y-13119500D01*
X15223428Y-13133786D01*
X15237714Y-13148071D01*
X15252000Y-13176643D01*
X15252000Y-13248071D01*
X15237714Y-13276643D01*
X15223428Y-13290929D01*
X15194857Y-13305214D01*
X15109143Y-13305214D01*
X15080571Y-13290929D01*
X15066286Y-13276643D01*
X15537714Y-13305214D02*
X15366286Y-13305214D01*
X15452000Y-13305214D02*
X15452000Y-13005214D01*
X15423428Y-13048071D01*
X15394857Y-13076643D01*
X15366286Y-13090929D01*
X15809143Y-13005214D02*
X15666286Y-13005214D01*
X15652000Y-13148071D01*
X15666286Y-13133786D01*
X15694857Y-13119500D01*
X15766286Y-13119500D01*
X15794857Y-13133786D01*
X15809143Y-13148071D01*
X15823428Y-13176643D01*
X15823428Y-13248071D01*
X15809143Y-13276643D01*
X15794857Y-13290929D01*
X15766286Y-13305214D01*
X15694857Y-13305214D01*
X15666286Y-13290929D01*
X15652000Y-13276643D01*
X15937714Y-13005214D02*
X15937714Y-13062357D01*
X16052000Y-13005214D02*
X16052000Y-13062357D01*
X16494857Y-13419500D02*
X16480571Y-13405214D01*
X16452000Y-13362357D01*
X16437714Y-13333786D01*
X16423428Y-13290929D01*
X16409143Y-13219500D01*
X16409143Y-13162357D01*
X16423428Y-13090929D01*
X16437714Y-13048071D01*
X16452000Y-13019500D01*
X16480571Y-12976643D01*
X16494857Y-12962357D01*
X16594857Y-13033786D02*
X16609143Y-13019500D01*
X16637714Y-13005214D01*
X16709143Y-13005214D01*
X16737714Y-13019500D01*
X16752000Y-13033786D01*
X16766286Y-13062357D01*
X16766286Y-13090929D01*
X16752000Y-13133786D01*
X16580571Y-13305214D01*
X16766286Y-13305214D01*
X17123428Y-13305214D02*
X17123428Y-13005214D01*
X17252000Y-13305214D02*
X17252000Y-13148071D01*
X17237714Y-13119500D01*
X17209143Y-13105214D01*
X17166286Y-13105214D01*
X17137714Y-13119500D01*
X17123428Y-13133786D01*
X17437714Y-13305214D02*
X17409143Y-13290929D01*
X17394857Y-13276643D01*
X17380571Y-13248071D01*
X17380571Y-13162357D01*
X17394857Y-13133786D01*
X17409143Y-13119500D01*
X17437714Y-13105214D01*
X17480571Y-13105214D01*
X17509143Y-13119500D01*
X17523428Y-13133786D01*
X17537714Y-13162357D01*
X17537714Y-13248071D01*
X17523428Y-13276643D01*
X17509143Y-13290929D01*
X17480571Y-13305214D01*
X17437714Y-13305214D01*
X17709143Y-13305214D02*
X17680571Y-13290929D01*
X17666286Y-13262357D01*
X17666286Y-13005214D01*
X17937714Y-13290929D02*
X17909143Y-13305214D01*
X17852000Y-13305214D01*
X17823428Y-13290929D01*
X17809143Y-13262357D01*
X17809143Y-13148071D01*
X17823428Y-13119500D01*
X17852000Y-13105214D01*
X17909143Y-13105214D01*
X17937714Y-13119500D01*
X17952000Y-13148071D01*
X17952000Y-13176643D01*
X17809143Y-13205214D01*
X18066286Y-13290929D02*
X18094857Y-13305214D01*
X18152000Y-13305214D01*
X18180571Y-13290929D01*
X18194857Y-13262357D01*
X18194857Y-13248071D01*
X18180571Y-13219500D01*
X18152000Y-13205214D01*
X18109143Y-13205214D01*
X18080571Y-13190929D01*
X18066286Y-13162357D01*
X18066286Y-13148071D01*
X18080571Y-13119500D01*
X18109143Y-13105214D01*
X18152000Y-13105214D01*
X18180571Y-13119500D01*
X18294857Y-13419500D02*
X18309143Y-13405214D01*
X18337714Y-13362357D01*
X18352000Y-13333786D01*
X18366286Y-13290929D01*
X18380571Y-13219500D01*
X18380571Y-13162357D01*
X18366286Y-13090929D01*
X18352000Y-13048071D01*
X18337714Y-13019500D01*
X18309143Y-12976643D01*
X18294857Y-12962357D01*
X11187000Y-13515500D02*
X11187000Y-13615500D01*
X11137000Y-13565500D02*
X11237000Y-13565500D01*
X11680571Y-13701214D02*
X11509143Y-13701214D01*
X11594857Y-13701214D02*
X11594857Y-13401214D01*
X11566286Y-13444071D01*
X11537714Y-13472643D01*
X11509143Y-13486929D01*
X11809143Y-13672643D02*
X11823428Y-13686929D01*
X11809143Y-13701214D01*
X11794857Y-13686929D01*
X11809143Y-13672643D01*
X11809143Y-13701214D01*
X12009143Y-13401214D02*
X12037714Y-13401214D01*
X12066286Y-13415500D01*
X12080571Y-13429786D01*
X12094857Y-13458357D01*
X12109143Y-13515500D01*
X12109143Y-13586929D01*
X12094857Y-13644071D01*
X12080571Y-13672643D01*
X12066286Y-13686929D01*
X12037714Y-13701214D01*
X12009143Y-13701214D01*
X11980571Y-13686929D01*
X11966286Y-13672643D01*
X11952000Y-13644071D01*
X11937714Y-13586929D01*
X11937714Y-13515500D01*
X11952000Y-13458357D01*
X11966286Y-13429786D01*
X11980571Y-13415500D01*
X12009143Y-13401214D01*
X12294857Y-13401214D02*
X12323428Y-13401214D01*
X12352000Y-13415500D01*
X12366286Y-13429786D01*
X12380571Y-13458357D01*
X12394857Y-13515500D01*
X12394857Y-13586929D01*
X12380571Y-13644071D01*
X12366286Y-13672643D01*
X12352000Y-13686929D01*
X12323428Y-13701214D01*
X12294857Y-13701214D01*
X12266286Y-13686929D01*
X12252000Y-13672643D01*
X12237714Y-13644071D01*
X12223428Y-13586929D01*
X12223428Y-13515500D01*
X12237714Y-13458357D01*
X12252000Y-13429786D01*
X12266286Y-13415500D01*
X12294857Y-13401214D01*
X12580571Y-13401214D02*
X12609143Y-13401214D01*
X12637714Y-13415500D01*
X12652000Y-13429786D01*
X12666286Y-13458357D01*
X12680571Y-13515500D01*
X12680571Y-13586929D01*
X12666286Y-13644071D01*
X12652000Y-13672643D01*
X12637714Y-13686929D01*
X12609143Y-13701214D01*
X12580571Y-13701214D01*
X12552000Y-13686929D01*
X12537714Y-13672643D01*
X12523428Y-13644071D01*
X12509143Y-13586929D01*
X12509143Y-13515500D01*
X12523428Y-13458357D01*
X12537714Y-13429786D01*
X12552000Y-13415500D01*
X12580571Y-13401214D01*
X12809143Y-13701214D02*
X12809143Y-13501214D01*
X12809143Y-13529786D02*
X12823428Y-13515500D01*
X12852000Y-13501214D01*
X12894857Y-13501214D01*
X12923428Y-13515500D01*
X12937714Y-13544071D01*
X12937714Y-13701214D01*
X12937714Y-13544071D02*
X12952000Y-13515500D01*
X12980571Y-13501214D01*
X13023428Y-13501214D01*
X13052000Y-13515500D01*
X13066286Y-13544071D01*
X13066286Y-13701214D01*
X13209143Y-13701214D02*
X13209143Y-13501214D01*
X13209143Y-13529786D02*
X13223428Y-13515500D01*
X13252000Y-13501214D01*
X13294857Y-13501214D01*
X13323428Y-13515500D01*
X13337714Y-13544071D01*
X13337714Y-13701214D01*
X13337714Y-13544071D02*
X13352000Y-13515500D01*
X13380571Y-13501214D01*
X13423428Y-13501214D01*
X13452000Y-13515500D01*
X13466286Y-13544071D01*
X13466286Y-13701214D01*
X14052000Y-13386929D02*
X13794857Y-13772643D01*
X14437714Y-13401214D02*
X14466286Y-13401214D01*
X14494857Y-13415500D01*
X14509143Y-13429786D01*
X14523428Y-13458357D01*
X14537714Y-13515500D01*
X14537714Y-13586929D01*
X14523428Y-13644071D01*
X14509143Y-13672643D01*
X14494857Y-13686929D01*
X14466286Y-13701214D01*
X14437714Y-13701214D01*
X14409143Y-13686929D01*
X14394857Y-13672643D01*
X14380571Y-13644071D01*
X14366286Y-13586929D01*
X14366286Y-13515500D01*
X14380571Y-13458357D01*
X14394857Y-13429786D01*
X14409143Y-13415500D01*
X14437714Y-13401214D01*
X14666286Y-13672643D02*
X14680571Y-13686929D01*
X14666286Y-13701214D01*
X14652000Y-13686929D01*
X14666286Y-13672643D01*
X14666286Y-13701214D01*
X14866286Y-13401214D02*
X14894857Y-13401214D01*
X14923428Y-13415500D01*
X14937714Y-13429786D01*
X14952000Y-13458357D01*
X14966286Y-13515500D01*
X14966286Y-13586929D01*
X14952000Y-13644071D01*
X14937714Y-13672643D01*
X14923428Y-13686929D01*
X14894857Y-13701214D01*
X14866286Y-13701214D01*
X14837714Y-13686929D01*
X14823428Y-13672643D01*
X14809143Y-13644071D01*
X14794857Y-13586929D01*
X14794857Y-13515500D01*
X14809143Y-13458357D01*
X14823428Y-13429786D01*
X14837714Y-13415500D01*
X14866286Y-13401214D01*
X15066286Y-13401214D02*
X15252000Y-13401214D01*
X15152000Y-13515500D01*
X15194857Y-13515500D01*
X15223428Y-13529786D01*
X15237714Y-13544071D01*
X15252000Y-13572643D01*
X15252000Y-13644071D01*
X15237714Y-13672643D01*
X15223428Y-13686929D01*
X15194857Y-13701214D01*
X15109143Y-13701214D01*
X15080571Y-13686929D01*
X15066286Y-13672643D01*
X15394857Y-13701214D02*
X15452000Y-13701214D01*
X15480571Y-13686929D01*
X15494857Y-13672643D01*
X15523428Y-13629786D01*
X15537714Y-13572643D01*
X15537714Y-13458357D01*
X15523428Y-13429786D01*
X15509143Y-13415500D01*
X15480571Y-13401214D01*
X15423428Y-13401214D01*
X15394857Y-13415500D01*
X15380571Y-13429786D01*
X15366286Y-13458357D01*
X15366286Y-13529786D01*
X15380571Y-13558357D01*
X15394857Y-13572643D01*
X15423428Y-13586929D01*
X15480571Y-13586929D01*
X15509143Y-13572643D01*
X15523428Y-13558357D01*
X15537714Y-13529786D01*
X15794857Y-13501214D02*
X15794857Y-13701214D01*
X15723428Y-13386929D02*
X15652000Y-13601214D01*
X15837714Y-13601214D01*
X15937714Y-13401214D02*
X15937714Y-13458357D01*
X16052000Y-13401214D02*
X16052000Y-13458357D01*
X16494857Y-13815500D02*
X16480571Y-13801214D01*
X16452000Y-13758357D01*
X16437714Y-13729786D01*
X16423428Y-13686929D01*
X16409143Y-13615500D01*
X16409143Y-13558357D01*
X16423428Y-13486929D01*
X16437714Y-13444071D01*
X16452000Y-13415500D01*
X16480571Y-13372643D01*
X16494857Y-13358357D01*
X16752000Y-13401214D02*
X16609143Y-13401214D01*
X16594857Y-13544071D01*
X16609143Y-13529786D01*
X16637714Y-13515500D01*
X16709143Y-13515500D01*
X16737714Y-13529786D01*
X16752000Y-13544071D01*
X16766286Y-13572643D01*
X16766286Y-13644071D01*
X16752000Y-13672643D01*
X16737714Y-13686929D01*
X16709143Y-13701214D01*
X16637714Y-13701214D01*
X16609143Y-13686929D01*
X16594857Y-13672643D01*
X16937714Y-13529786D02*
X16909143Y-13515500D01*
X16894857Y-13501214D01*
X16880571Y-13472643D01*
X16880571Y-13458357D01*
X16894857Y-13429786D01*
X16909143Y-13415500D01*
X16937714Y-13401214D01*
X16994857Y-13401214D01*
X17023428Y-13415500D01*
X17037714Y-13429786D01*
X17052000Y-13458357D01*
X17052000Y-13472643D01*
X17037714Y-13501214D01*
X17023428Y-13515500D01*
X16994857Y-13529786D01*
X16937714Y-13529786D01*
X16909143Y-13544071D01*
X16894857Y-13558357D01*
X16880571Y-13586929D01*
X16880571Y-13644071D01*
X16894857Y-13672643D01*
X16909143Y-13686929D01*
X16937714Y-13701214D01*
X16994857Y-13701214D01*
X17023428Y-13686929D01*
X17037714Y-13672643D01*
X17052000Y-13644071D01*
X17052000Y-13586929D01*
X17037714Y-13558357D01*
X17023428Y-13544071D01*
X16994857Y-13529786D01*
X17409143Y-13701214D02*
X17409143Y-13401214D01*
X17537714Y-13701214D02*
X17537714Y-13544071D01*
X17523428Y-13515500D01*
X17494857Y-13501214D01*
X17452000Y-13501214D01*
X17423428Y-13515500D01*
X17409143Y-13529786D01*
X17723428Y-13701214D02*
X17694857Y-13686929D01*
X17680571Y-13672643D01*
X17666286Y-13644071D01*
X17666286Y-13558357D01*
X17680571Y-13529786D01*
X17694857Y-13515500D01*
X17723428Y-13501214D01*
X17766286Y-13501214D01*
X17794857Y-13515500D01*
X17809143Y-13529786D01*
X17823428Y-13558357D01*
X17823428Y-13644071D01*
X17809143Y-13672643D01*
X17794857Y-13686929D01*
X17766286Y-13701214D01*
X17723428Y-13701214D01*
X17994857Y-13701214D02*
X17966286Y-13686929D01*
X17952000Y-13658357D01*
X17952000Y-13401214D01*
X18223428Y-13686929D02*
X18194857Y-13701214D01*
X18137714Y-13701214D01*
X18109143Y-13686929D01*
X18094857Y-13658357D01*
X18094857Y-13544071D01*
X18109143Y-13515500D01*
X18137714Y-13501214D01*
X18194857Y-13501214D01*
X18223428Y-13515500D01*
X18237714Y-13544071D01*
X18237714Y-13572643D01*
X18094857Y-13601214D01*
X18352000Y-13686929D02*
X18380571Y-13701214D01*
X18437714Y-13701214D01*
X18466286Y-13686929D01*
X18480571Y-13658357D01*
X18480571Y-13644071D01*
X18466286Y-13615500D01*
X18437714Y-13601214D01*
X18394857Y-13601214D01*
X18366286Y-13586929D01*
X18352000Y-13558357D01*
X18352000Y-13544071D01*
X18366286Y-13515500D01*
X18394857Y-13501214D01*
X18437714Y-13501214D01*
X18466286Y-13515500D01*
X18580571Y-13815500D02*
X18594857Y-13801214D01*
X18623428Y-13758357D01*
X18637714Y-13729786D01*
X18652000Y-13686929D01*
X18666286Y-13615500D01*
X18666286Y-13558357D01*
X18652000Y-13486929D01*
X18637714Y-13444071D01*
X18623428Y-13415500D01*
X18594857Y-13372643D01*
X18580571Y-13358357D01*
X11222063Y-13997563D02*
X11222063Y-13925437D01*
X11149937Y-13925437D01*
X11149937Y-13997563D01*
X11222063Y-13997563D01*
X11680571Y-14097214D02*
X11509143Y-14097214D01*
X11594857Y-14097214D02*
X11594857Y-13797214D01*
X11566286Y-13840071D01*
X11537714Y-13868643D01*
X11509143Y-13882929D01*
X11809143Y-14068643D02*
X11823428Y-14082929D01*
X11809143Y-14097214D01*
X11794857Y-14082929D01*
X11809143Y-14068643D01*
X11809143Y-14097214D01*
X12009143Y-13797214D02*
X12037714Y-13797214D01*
X12066286Y-13811500D01*
X12080571Y-13825786D01*
X12094857Y-13854357D01*
X12109143Y-13911500D01*
X12109143Y-13982929D01*
X12094857Y-14040071D01*
X12080571Y-14068643D01*
X12066286Y-14082929D01*
X12037714Y-14097214D01*
X12009143Y-14097214D01*
X11980571Y-14082929D01*
X11966286Y-14068643D01*
X11952000Y-14040071D01*
X11937714Y-13982929D01*
X11937714Y-13911500D01*
X11952000Y-13854357D01*
X11966286Y-13825786D01*
X11980571Y-13811500D01*
X12009143Y-13797214D01*
X12223428Y-13825786D02*
X12237714Y-13811500D01*
X12266286Y-13797214D01*
X12337714Y-13797214D01*
X12366286Y-13811500D01*
X12380571Y-13825786D01*
X12394857Y-13854357D01*
X12394857Y-13882929D01*
X12380571Y-13925786D01*
X12209143Y-14097214D01*
X12394857Y-14097214D01*
X12580571Y-13797214D02*
X12609143Y-13797214D01*
X12637714Y-13811500D01*
X12652000Y-13825786D01*
X12666286Y-13854357D01*
X12680571Y-13911500D01*
X12680571Y-13982929D01*
X12666286Y-14040071D01*
X12652000Y-14068643D01*
X12637714Y-14082929D01*
X12609143Y-14097214D01*
X12580571Y-14097214D01*
X12552000Y-14082929D01*
X12537714Y-14068643D01*
X12523428Y-14040071D01*
X12509143Y-13982929D01*
X12509143Y-13911500D01*
X12523428Y-13854357D01*
X12537714Y-13825786D01*
X12552000Y-13811500D01*
X12580571Y-13797214D01*
X12809143Y-14097214D02*
X12809143Y-13897214D01*
X12809143Y-13925786D02*
X12823428Y-13911500D01*
X12852000Y-13897214D01*
X12894857Y-13897214D01*
X12923428Y-13911500D01*
X12937714Y-13940071D01*
X12937714Y-14097214D01*
X12937714Y-13940071D02*
X12952000Y-13911500D01*
X12980571Y-13897214D01*
X13023428Y-13897214D01*
X13052000Y-13911500D01*
X13066286Y-13940071D01*
X13066286Y-14097214D01*
X13209143Y-14097214D02*
X13209143Y-13897214D01*
X13209143Y-13925786D02*
X13223428Y-13911500D01*
X13252000Y-13897214D01*
X13294857Y-13897214D01*
X13323428Y-13911500D01*
X13337714Y-13940071D01*
X13337714Y-14097214D01*
X13337714Y-13940071D02*
X13352000Y-13911500D01*
X13380571Y-13897214D01*
X13423428Y-13897214D01*
X13452000Y-13911500D01*
X13466286Y-13940071D01*
X13466286Y-14097214D01*
X14052000Y-13782929D02*
X13794857Y-14168643D01*
X14437714Y-13797214D02*
X14466286Y-13797214D01*
X14494857Y-13811500D01*
X14509143Y-13825786D01*
X14523428Y-13854357D01*
X14537714Y-13911500D01*
X14537714Y-13982929D01*
X14523428Y-14040071D01*
X14509143Y-14068643D01*
X14494857Y-14082929D01*
X14466286Y-14097214D01*
X14437714Y-14097214D01*
X14409143Y-14082929D01*
X14394857Y-14068643D01*
X14380571Y-14040071D01*
X14366286Y-13982929D01*
X14366286Y-13911500D01*
X14380571Y-13854357D01*
X14394857Y-13825786D01*
X14409143Y-13811500D01*
X14437714Y-13797214D01*
X14666286Y-14068643D02*
X14680571Y-14082929D01*
X14666286Y-14097214D01*
X14652000Y-14082929D01*
X14666286Y-14068643D01*
X14666286Y-14097214D01*
X14866286Y-13797214D02*
X14894857Y-13797214D01*
X14923428Y-13811500D01*
X14937714Y-13825786D01*
X14952000Y-13854357D01*
X14966286Y-13911500D01*
X14966286Y-13982929D01*
X14952000Y-14040071D01*
X14937714Y-14068643D01*
X14923428Y-14082929D01*
X14894857Y-14097214D01*
X14866286Y-14097214D01*
X14837714Y-14082929D01*
X14823428Y-14068643D01*
X14809143Y-14040071D01*
X14794857Y-13982929D01*
X14794857Y-13911500D01*
X14809143Y-13854357D01*
X14823428Y-13825786D01*
X14837714Y-13811500D01*
X14866286Y-13797214D01*
X15223428Y-13897214D02*
X15223428Y-14097214D01*
X15152000Y-13782929D02*
X15080571Y-13997214D01*
X15266286Y-13997214D01*
X15437714Y-13797214D02*
X15466286Y-13797214D01*
X15494857Y-13811500D01*
X15509143Y-13825786D01*
X15523428Y-13854357D01*
X15537714Y-13911500D01*
X15537714Y-13982929D01*
X15523428Y-14040071D01*
X15509143Y-14068643D01*
X15494857Y-14082929D01*
X15466286Y-14097214D01*
X15437714Y-14097214D01*
X15409143Y-14082929D01*
X15394857Y-14068643D01*
X15380571Y-14040071D01*
X15366286Y-13982929D01*
X15366286Y-13911500D01*
X15380571Y-13854357D01*
X15394857Y-13825786D01*
X15409143Y-13811500D01*
X15437714Y-13797214D01*
X15652000Y-13825786D02*
X15666286Y-13811500D01*
X15694857Y-13797214D01*
X15766286Y-13797214D01*
X15794857Y-13811500D01*
X15809143Y-13825786D01*
X15823428Y-13854357D01*
X15823428Y-13882929D01*
X15809143Y-13925786D01*
X15637714Y-14097214D01*
X15823428Y-14097214D01*
X15937714Y-13797214D02*
X15937714Y-13854357D01*
X16052000Y-13797214D02*
X16052000Y-13854357D01*
X16494857Y-14211500D02*
X16480571Y-14197214D01*
X16452000Y-14154357D01*
X16437714Y-14125786D01*
X16423428Y-14082929D01*
X16409143Y-14011500D01*
X16409143Y-13954357D01*
X16423428Y-13882929D01*
X16437714Y-13840071D01*
X16452000Y-13811500D01*
X16480571Y-13768643D01*
X16494857Y-13754357D01*
X16737714Y-13897214D02*
X16737714Y-14097214D01*
X16666286Y-13782929D02*
X16594857Y-13997214D01*
X16780571Y-13997214D01*
X16866286Y-13797214D02*
X17052000Y-13797214D01*
X16952000Y-13911500D01*
X16994857Y-13911500D01*
X17023428Y-13925786D01*
X17037714Y-13940071D01*
X17052000Y-13968643D01*
X17052000Y-14040071D01*
X17037714Y-14068643D01*
X17023428Y-14082929D01*
X16994857Y-14097214D01*
X16909143Y-14097214D01*
X16880571Y-14082929D01*
X16866286Y-14068643D01*
X17409143Y-14097214D02*
X17409143Y-13797214D01*
X17537714Y-14097214D02*
X17537714Y-13940071D01*
X17523428Y-13911500D01*
X17494857Y-13897214D01*
X17452000Y-13897214D01*
X17423428Y-13911500D01*
X17409143Y-13925786D01*
X17723428Y-14097214D02*
X17694857Y-14082929D01*
X17680571Y-14068643D01*
X17666286Y-14040071D01*
X17666286Y-13954357D01*
X17680571Y-13925786D01*
X17694857Y-13911500D01*
X17723428Y-13897214D01*
X17766286Y-13897214D01*
X17794857Y-13911500D01*
X17809143Y-13925786D01*
X17823428Y-13954357D01*
X17823428Y-14040071D01*
X17809143Y-14068643D01*
X17794857Y-14082929D01*
X17766286Y-14097214D01*
X17723428Y-14097214D01*
X17994857Y-14097214D02*
X17966286Y-14082929D01*
X17952000Y-14054357D01*
X17952000Y-13797214D01*
X18223428Y-14082929D02*
X18194857Y-14097214D01*
X18137714Y-14097214D01*
X18109143Y-14082929D01*
X18094857Y-14054357D01*
X18094857Y-13940071D01*
X18109143Y-13911500D01*
X18137714Y-13897214D01*
X18194857Y-13897214D01*
X18223428Y-13911500D01*
X18237714Y-13940071D01*
X18237714Y-13968643D01*
X18094857Y-13997214D01*
X18352000Y-14082929D02*
X18380571Y-14097214D01*
X18437714Y-14097214D01*
X18466286Y-14082929D01*
X18480571Y-14054357D01*
X18480571Y-14040071D01*
X18466286Y-14011500D01*
X18437714Y-13997214D01*
X18394857Y-13997214D01*
X18366286Y-13982929D01*
X18352000Y-13954357D01*
X18352000Y-13940071D01*
X18366286Y-13911500D01*
X18394857Y-13897214D01*
X18437714Y-13897214D01*
X18466286Y-13911500D01*
X18580571Y-14211500D02*
X18594857Y-14197214D01*
X18623428Y-14154357D01*
X18637714Y-14125786D01*
X18652000Y-14082929D01*
X18666286Y-14011500D01*
X18666286Y-13954357D01*
X18652000Y-13882929D01*
X18637714Y-13840071D01*
X18623428Y-13811500D01*
X18594857Y-13768643D01*
X18580571Y-13754357D01*
M02*
